<svg width="503" height="367" viewBox="0 0 503 367" fill="none" xmlns="http://www.w3.org/2000/svg">
<g clip-path="url(#clip0)">
<g opacity="0.34">
<path d="M75.7973 80.9661L12.0708 117.865C6.72371 120.961 6.75545 128.692 12.1277 131.744L33.7389 144.021C36.3005 145.477 39.4547 145.406 41.9488 143.838L68.0409 127.433C70.5619 125.848 73.7547 125.794 76.3275 127.293L112.743 148.518" stroke="#B1BAC9"/>
<path d="M30.6265 317.573L77.7387 289.527C80.2472 288.034 83.37 288.026 85.8864 289.506L131.683 316.439C134.185 317.91 137.289 317.911 139.792 316.44L184.808 289.983" stroke="#B1BAC9"/>
<path d="M365.864 134.021L393.857 117.063C396.361 115.545 399.495 115.518 402.026 116.991L448.098 143.806C450.608 145.267 453.714 145.253 456.21 143.769L478.72 130.387" stroke="#B1BAC9"/>
</g>
<path d="M18.0562 135.27L33.0685 144.016C35.6084 145.496 38.7553 145.464 41.2642 143.932L63.6027 130.294" stroke="#418DFF"/>
<path d="M108.337 302.972L131.775 316.584C134.265 318.03 137.341 318.027 139.828 316.574L154.699 307.886" stroke="#418DFF"/>
<path d="M407.219 119.929L433.997 135.39" stroke="#418DFF"/>
<g filter="url(#filter0_f)">
<path fill-rule="evenodd" clip-rule="evenodd" d="M424.326 35.1056L427.266 44.0254C427.533 44.8345 427.208 45.7212 426.482 46.1659L417.513 51.328C416.68 51.8377 415.701 52.0533 414.731 51.9402L397.717 49.9553C397.02 49.874 396.431 49.402 396.199 48.7398L393.103 39.8963C392.812 39.0637 393.154 38.1418 393.917 37.7008L402.995 32.4531C403.805 31.985 404.744 31.7898 405.673 31.8962L422.795 33.858C423.505 33.9395 424.102 34.4263 424.326 35.1056Z" fill="#61E8FF" fill-opacity="0.39"/>
</g>
<path fill-rule="evenodd" clip-rule="evenodd" d="M393.104 37.9458L396.199 46.7893C396.431 47.4515 397.02 47.9235 397.717 48.0048L414.731 49.9897C415.701 50.1029 416.68 49.8872 417.513 49.3775L426.482 44.2154C426.974 43.914 427.281 43.4099 427.345 42.8641L427.358 41.4811C427.31 42.0556 426.998 40.6393 426.482 40.9549L417.513 46.1171C416.68 46.6268 415.701 46.8424 414.731 46.7293L397.717 44.7443C397.02 44.6631 396.431 44.1911 396.199 43.5289L393.104 36.1236C393.06 35.9996 393 37.0995 393 37.0995C393 37.0995 393.036 37.7511 393.104 37.9458Z" fill="#B1BAC9"/>
<mask id="mask0" mask-type="alpha" maskUnits="userSpaceOnUse" x="393" y="29" width="35" height="21">
<path fill-rule="evenodd" clip-rule="evenodd" d="M427.358 29H393V49.1015H427.358V29Z" fill="white"/>
</mask>
<g mask="url(#mask0)">
<path fill-rule="evenodd" clip-rule="evenodd" d="M424.326 32.2374L427.266 41.1572C427.533 41.9663 427.208 42.8531 426.482 43.2977L417.513 48.4599C416.68 48.9696 415.701 49.1852 414.731 49.0721L397.717 47.0871C397.02 47.0059 396.431 46.5339 396.199 45.8717L393.103 37.0281C392.812 36.1956 393.154 35.2736 393.917 34.8326L402.995 29.585C403.805 29.1169 404.744 28.9217 405.673 29.0281L422.794 30.9898C423.505 31.0714 424.102 31.5582 424.326 32.2374Z" fill="#F1F5F9"/>
</g>
<g filter="url(#filter1_f)">
<path fill-rule="evenodd" clip-rule="evenodd" d="M459.015 323.578L463.145 336.111C463.52 337.248 463.064 338.494 462.044 339.119L449.442 346.372C448.272 347.088 446.896 347.391 445.533 347.232L421.627 344.443C420.649 344.329 419.821 343.666 419.495 342.735L415.145 330.31C414.736 329.14 415.216 327.844 416.288 327.225L429.044 319.852C430.182 319.194 431.501 318.92 432.807 319.069L456.863 321.825C457.86 321.94 458.7 322.624 459.015 323.578Z" fill="#61E8FF" fill-opacity="0.39"/>
</g>
<path fill-rule="evenodd" clip-rule="evenodd" d="M415.146 327.569L419.495 339.994C419.821 340.925 420.649 341.588 421.627 341.702L445.534 344.491C446.896 344.65 448.272 344.347 449.442 343.631L462.044 336.378C462.736 335.955 463.166 335.246 463.257 334.479L463.275 332.536C463.207 333.343 462.769 331.353 462.044 331.797L449.442 339.05C448.272 339.766 446.896 340.069 445.534 339.91L421.627 337.121C420.649 337.007 419.821 336.344 419.495 335.413L415.146 325.009C415.085 324.834 415 326.38 415 326.38C415 326.38 415.05 327.295 415.146 327.569Z" fill="#B1BAC9"/>
<mask id="mask1" mask-type="alpha" maskUnits="userSpaceOnUse" x="415" y="315" width="49" height="29">
<path fill-rule="evenodd" clip-rule="evenodd" d="M463.275 315H415V343.244H463.275V315Z" fill="white"/>
</mask>
<g mask="url(#mask1)">
<path fill-rule="evenodd" clip-rule="evenodd" d="M459.015 319.549L463.145 332.081C463.52 333.218 463.064 334.464 462.044 335.089L449.442 342.342C448.272 343.058 446.896 343.361 445.533 343.202L421.627 340.413C420.649 340.299 419.821 339.636 419.495 338.705L415.145 326.28C414.736 325.11 415.216 323.815 416.288 323.195L429.044 315.822C430.182 315.164 431.501 314.89 432.807 315.039L456.863 317.796C457.86 317.91 458.7 318.594 459.015 319.549Z" fill="#F1F5F9"/>
</g>
<path fill-rule="evenodd" clip-rule="evenodd" d="M451.27 193.61L420.181 282.423C417.853 289.073 411.936 293.813 404.942 294.63L234.071 314.564C224.335 315.7 214.498 313.534 206.137 308.415L116.061 256.573C111.119 253.547 108.04 248.484 107.393 243.004L109.03 231.476C109.521 237.245 110.884 220.66 116.061 223.83L206.137 275.672C214.498 280.79 224.335 282.956 234.071 281.82L404.942 261.886C411.936 261.07 417.853 256.329 420.181 249.679L450.091 180.035C450.525 178.789 452.307 185.112 452.307 185.112C452.307 185.112 451.954 191.655 451.27 193.61Z" fill="#B1BAC9"/>
<mask id="mask2" mask-type="alpha" maskUnits="userSpaceOnUse" x="107" y="110" width="346" height="203">
<path fill-rule="evenodd" clip-rule="evenodd" d="M107.261 110.857H452.31V312.73H107.261V110.857Z" fill="white"/>
</mask>
<g mask="url(#mask2)">
<path fill-rule="evenodd" clip-rule="evenodd" d="M137.71 143.37L108.19 232.949C105.511 241.074 108.773 249.98 116.063 254.445L206.138 306.287C214.499 311.406 224.336 313.571 234.075 312.435L404.944 292.501C411.937 291.685 417.855 286.945 420.183 280.295L451.272 191.482C454.2 183.121 450.768 173.862 443.105 169.433L351.931 116.733C343.797 112.032 334.369 110.071 325.036 111.14L153.095 130.841C145.964 131.66 139.962 136.549 137.71 143.37Z" fill="white"/>
<path fill-rule="evenodd" clip-rule="evenodd" d="M137.449 143.635L107.929 233.213C105.251 241.339 108.512 250.244 115.802 254.71L205.878 306.552C214.238 311.671 224.076 313.836 233.815 312.7L404.683 292.766C411.677 291.95 417.594 287.21 419.922 280.559L451.011 191.747C453.939 183.385 450.507 174.126 442.844 169.698L351.67 116.997C343.536 112.296 334.108 110.336 324.776 111.404L152.834 131.106C145.703 131.925 139.702 136.814 137.449 143.635Z" fill="#174C81" fill-opacity="0.13"/>
</g>
<mask id="mask3" mask-type="alpha" maskUnits="userSpaceOnUse" x="202" y="132" width="44" height="22">
<path fill-rule="evenodd" clip-rule="evenodd" d="M202.286 132.06H245.673V153.31H202.286V132.06Z" fill="white"/>
</mask>
<g mask="url(#mask3)">
<path fill-rule="evenodd" clip-rule="evenodd" d="M202.286 142.685C202.286 136.817 211.998 132.06 223.979 132.06C235.96 132.06 245.673 136.817 245.673 142.685C245.673 148.553 235.96 153.31 223.979 153.31C211.998 153.31 202.286 148.553 202.286 142.685Z" fill="#C1C0C7"/>
</g>
<path fill-rule="evenodd" clip-rule="evenodd" d="M202.286 140.935C202.286 135.067 211.58 130.31 223.044 130.31C234.509 130.31 243.803 135.067 243.803 140.935C243.803 146.803 234.509 151.56 223.044 151.56C211.58 151.56 202.286 146.803 202.286 140.935Z" fill="#F8F7F7"/>
<path fill-rule="evenodd" clip-rule="evenodd" d="M238.85 134.615C238.85 134.615 252.591 145.938 224.548 148.106C224.548 148.106 229.108 135.505 238.85 134.615Z" fill="#BFBFC7"/>
<path fill-rule="evenodd" clip-rule="evenodd" d="M202.798 112.515L206.765 141.768C206.765 141.768 222.718 156.028 238.78 141.768L241.829 114.066C241.829 114.066 222.032 125.325 202.798 112.515Z" fill="#E2DEE4"/>
<path fill-rule="evenodd" clip-rule="evenodd" d="M200.416 106.605C200.416 99.3016 210.547 93.3806 223.044 93.3806C235.541 93.3806 245.672 99.3016 245.672 106.605C245.672 113.908 235.541 119.829 223.044 119.829C210.547 119.829 200.416 113.908 200.416 106.605Z" fill="#BFBFC7"/>
<path fill-rule="evenodd" clip-rule="evenodd" d="M200.416 105.494C200.416 98.8045 210.547 93.3806 223.044 93.3806C235.541 93.3806 245.672 98.8045 245.672 105.494C245.672 112.185 235.541 117.608 223.044 117.608C210.547 117.608 200.416 112.185 200.416 105.494Z" fill="#FEFEFD"/>
<path fill-rule="evenodd" clip-rule="evenodd" d="M204.486 104.525C204.486 99.5523 212.746 95.5208 222.936 95.5208C233.126 95.5208 241.386 99.5523 241.386 104.525C241.386 109.498 233.126 113.529 222.936 113.529C212.746 113.529 204.486 109.498 204.486 104.525Z" fill="#BFBFC7"/>
<path fill-rule="evenodd" clip-rule="evenodd" d="M204.812 105.168C204.812 100.609 212.975 96.9119 223.044 96.9119C233.114 96.9119 241.277 100.609 241.277 105.168C241.277 109.729 233.114 113.426 223.044 113.426C212.975 113.426 204.812 109.729 204.812 105.168Z" fill="#89555D"/>
<path fill-rule="evenodd" clip-rule="evenodd" d="M225.402 106.605C225.402 104.835 226.835 103.4 228.604 103.4C230.372 103.4 231.805 104.835 231.805 106.605C231.805 108.375 230.372 109.81 228.604 109.81C226.835 109.81 225.402 108.375 225.402 106.605Z" fill="#E6AFA5"/>
<path fill-rule="evenodd" clip-rule="evenodd" d="M233.846 107.191C233.846 105.572 235.157 104.26 236.774 104.26C238.391 104.26 239.702 105.572 239.702 107.191C239.702 108.81 238.391 110.122 236.774 110.122C235.157 110.122 233.846 108.81 233.846 107.191Z" fill="#EA9895"/>
<path fill-rule="evenodd" clip-rule="evenodd" d="M210.099 109.309C210.099 107.876 211.26 106.713 212.692 106.713C214.124 106.713 215.285 107.876 215.285 109.309C215.285 110.743 214.124 111.905 212.692 111.905C211.26 111.905 210.099 110.743 210.099 109.309Z" fill="#ECB1AA"/>
<path fill-rule="evenodd" clip-rule="evenodd" d="M218.273 105.169C218.273 104.052 219.177 103.146 220.293 103.146C221.409 103.146 222.313 104.052 222.313 105.169C222.313 106.286 221.409 107.191 220.293 107.191C219.177 107.191 218.273 106.286 218.273 105.169Z" fill="#ECB1AA"/>
<path fill-rule="evenodd" clip-rule="evenodd" d="M207.347 103.526C207.347 102.815 207.923 102.237 208.634 102.237C209.345 102.237 209.922 102.815 209.922 103.526C209.922 104.239 209.345 104.815 208.634 104.815C207.923 104.815 207.347 104.239 207.347 103.526Z" fill="#ECB1AA"/>
<path fill-rule="evenodd" clip-rule="evenodd" d="M220.293 111.905C220.293 111.193 220.87 110.616 221.581 110.616C222.292 110.616 222.869 111.193 222.869 111.905C222.869 112.617 222.292 113.194 221.581 113.194C220.87 113.194 220.293 112.617 220.293 111.905Z" fill="#EA9895"/>
<mask id="mask4" mask-type="alpha" maskUnits="userSpaceOnUse" x="192" y="32" width="30" height="34">
<path fill-rule="evenodd" clip-rule="evenodd" d="M192.193 32.5845H221.79V65.877H192.193V32.5845Z" fill="white"/>
</mask>
<g mask="url(#mask4)">
<path fill-rule="evenodd" clip-rule="evenodd" d="M202.93 39.7641L199.349 33.5713C199.349 33.5713 186 40.4159 195.767 57.0387H200.543L197.562 59.2117C197.562 59.2117 204.016 67.0342 214.869 65.7305C214.869 65.7305 225.939 58.1254 220.078 44.8705L215.954 47.9125L218.396 40.9049C218.396 40.9049 214.977 32.2675 202.93 32.5935V39.7641Z" fill="#74B74A"/>
</g>
<mask id="mask5" mask-type="alpha" maskUnits="userSpaceOnUse" x="240" y="55" width="30" height="25">
<path fill-rule="evenodd" clip-rule="evenodd" d="M240.489 55.9226H269.381V79.8075H240.489V55.9226Z" fill="white"/>
</mask>
<g mask="url(#mask5)">
<path fill-rule="evenodd" clip-rule="evenodd" d="M263.473 65.7535L269.053 63.6231C269.053 63.6231 265.196 51.6887 250.198 57.5346L249.561 61.4772L248.168 58.7263C248.168 58.7263 240.863 63.0107 240.489 72.1448C240.489 72.1448 245.276 82.2993 256.979 79.2293L255.023 75.4185L260.47 78.3698C260.47 78.3698 268.041 76.6997 269.381 66.7107L263.473 65.7535Z" fill="#74B74A"/>
</g>
<path fill-rule="evenodd" clip-rule="evenodd" d="M236.623 27.5394L239.33 22.0985C239.33 22.0985 228.232 15.8356 221.043 30.5491L223.279 33.9368L220.344 32.8401C220.344 32.8401 217.83 41.0817 223.837 48.1689C223.837 48.1689 234.404 52.4588 241.041 42.0937L236.956 40.5934L243.06 39.0433C243.06 39.0433 247.572 32.5731 241.699 24.1806L236.623 27.5394Z" fill="#4A803B"/>
<mask id="mask6" mask-type="alpha" maskUnits="userSpaceOnUse" x="201" y="0" width="30" height="35">
<path fill-rule="evenodd" clip-rule="evenodd" d="M201.954 0.325928H230.931V34.5539H201.954V0.325928Z" fill="white"/>
</mask>
<g mask="url(#mask6)">
<path fill-rule="evenodd" clip-rule="evenodd" d="M213.023 8.14841L209.442 2.28155C209.442 2.28155 201.954 7.49653 201.954 13.3634L206.991 17.9265H201.954C201.954 17.9265 205.861 34.8752 224.419 34.5493C224.419 34.5493 230.931 29.0084 230.931 22.1637L225.721 22.8156L229.628 18.4177C229.628 18.4177 230.605 14.0153 227.675 8.80028L224.093 11.4078L223.768 5.54091C223.768 5.54091 218.233 0.651864 213.023 0.325928V8.14841Z" fill="#74B74A"/>
</g>
<path fill-rule="evenodd" clip-rule="evenodd" d="M245.013 43.1677L248.195 38.4364C248.195 38.4364 241.679 34.5858 237.259 36.6131L235.563 41.993L233.822 38.1903C233.822 38.1903 222.405 46.9971 229.064 60.8941C229.064 60.8941 235.489 63.8953 240.644 61.53L238.353 57.8225L243.016 59.252C243.016 59.252 246.67 58.4678 249.586 54.4536L246.384 52.6508L250.69 50.3774C250.69 50.3774 252.46 44.5096 250.906 40.4644L245.013 43.1677Z" fill="#74B74A"/>
<path d="M202.93 39.7642C202.93 39.7642 220.434 65.9476 219.822 105.169" stroke="#87B75E" stroke-width="3"/>
<path fill-rule="evenodd" clip-rule="evenodd" d="M198.86 70.8912C198.86 70.8912 197.214 78.3985 206.991 82.7119L209.605 81.6471V84.7435C209.605 84.7435 214.326 87.482 217.419 86.2757C217.419 86.2757 220.512 80.1804 218.721 74.8024L215.773 75.2913V72.8302C215.773 72.8302 208.139 67.1429 201.953 69.5874L203.581 72.4664L198.86 70.8912Z" fill="#4A803B"/>
<path d="M223.442 106.605C217.582 90.1686 221.163 70.5648 225.396 53.7791C229.628 36.9933 213.023 8.14795 213.023 8.14795" stroke="#87B75E" stroke-width="3"/>
<path d="M245.013 43.1675C245.013 43.1675 233.441 47.5807 230.93 68.9768C228.42 90.3729 237.768 93.2173 223.442 106.2" stroke="#87B75E" stroke-width="3"/>
<path d="M263 65.8772C263 65.8772 218.395 76.0083 223.442 106.605" stroke="#87B75E" stroke-width="3"/>
<path fill-rule="evenodd" clip-rule="evenodd" d="M246.235 89.7612C245.595 92.5997 241.806 94.1626 237.772 93.2516C233.737 92.3406 230.985 89.3009 231.625 86.462C232.265 83.6231 236.054 82.0606 240.088 82.9716C244.123 83.8822 246.875 86.9223 246.235 89.7612Z" fill="#74B74A"/>
<path fill-rule="evenodd" clip-rule="evenodd" d="M201.954 86.3729H206.991L203.365 91.5879C203.365 91.5879 208.14 99.193 212.699 100.062L214.869 96.9117L216.442 100.062C216.442 100.062 224.202 102.018 229.195 91.5879L226.978 88.1114H229.195C229.195 88.1114 232.183 76.8122 221.789 72.4665C221.789 72.4665 207.923 70.0761 201.954 86.3729Z" fill="#74B74A"/>
<path fill-rule="evenodd" clip-rule="evenodd" d="M371.48 161.254C371.889 161.814 372.255 162.502 372.291 163.207C372.376 164.868 372.078 167.297 371.291 168.319C370.503 169.342 370.546 172.196 370.291 173.815C370.035 175.433 368.589 181.952 365.866 183.507C366.212 183.493 366.6 183.345 367.032 183.016C369.78 180.929 371.269 175.646 371.652 169.299C372.631 168.958 373.482 167.765 373.993 163.931C373.901 162.866 372.877 162.044 371.48 161.254Z" fill="#974350"/>
<path fill-rule="evenodd" clip-rule="evenodd" d="M370.291 173.815C370.546 172.196 370.503 169.342 371.291 168.319C372.078 167.297 372.376 164.869 372.291 163.207C372.255 162.502 371.889 161.814 371.48 161.254C368.965 159.831 365.237 158.514 363.541 156.076C363.455 159.612 360.078 163.292 360.078 163.292C360.078 163.292 361.865 164.23 362.631 165.891C363.397 167.553 363.733 177.479 363.522 178.715C363.345 179.755 364.008 183.579 365.866 183.507C368.59 181.952 370.035 175.434 370.291 173.815Z" fill="#C3747B"/>
<path fill-rule="evenodd" clip-rule="evenodd" d="M363.184 160.821C363.184 160.821 366.461 163.676 367.354 162.909C368.248 162.142 368.716 160.651 363.95 158.35" fill="#FB9FA1"/>
<path fill-rule="evenodd" clip-rule="evenodd" d="M360.801 211.473C362.517 211.389 364.58 209.819 366.036 207.838C366.824 206.171 367.24 204.182 366.929 202.101C365.312 195.115 367.525 195.115 365.397 187.532C363.95 189.023 358.461 189.491 358.461 189.491C358.461 189.491 359.227 194.902 358.461 199.971C357.915 203.585 356.938 206.852 357.7 209.387C358.388 210.425 359.446 211.54 360.801 211.473Z" fill="#C3747B"/>
<path fill-rule="evenodd" clip-rule="evenodd" d="M360.801 211.474C359.446 211.541 358.387 210.425 357.7 209.387C358.007 210.409 358.595 211.312 359.609 212.07C361.362 213.236 364.453 211.191 366.036 207.839C364.579 209.819 362.517 211.389 360.801 211.474Z" fill="#974350"/>
<path fill-rule="evenodd" clip-rule="evenodd" d="M364.248 158.696C364.248 161.352 362.288 163.505 359.87 163.505C357.451 163.505 355.491 161.352 355.491 158.696C355.491 156.04 357.451 153.886 359.87 153.886C362.288 153.886 364.248 156.04 364.248 158.696Z" fill="#B2AAA8"/>
<path fill-rule="evenodd" clip-rule="evenodd" d="M366.206 186.318C366.206 189.012 364.024 191.196 361.333 191.196C358.642 191.196 356.46 189.012 356.46 186.318C356.46 183.624 358.642 181.44 361.333 181.44C364.024 181.44 366.206 183.624 366.206 186.318Z" fill="#B2AAA8"/>
<path fill-rule="evenodd" clip-rule="evenodd" d="M347.984 147.199C347.962 149.059 348.093 152.272 348.819 157.091C349.263 157.315 349.705 157.536 350.143 157.755C350.087 155.696 350.041 152.309 350.004 148.458C349.291 148.024 348.609 147.6 347.984 147.199Z" fill="#B2AAA8"/>
<path fill-rule="evenodd" clip-rule="evenodd" d="M365.117 185.281C365.117 185.281 362.205 173.176 360.035 164.741C359.827 163.934 359.665 163.048 359.542 162.096C363.851 161.521 363.214 156.42 361.099 155.155C360.891 154.947 360.24 154.523 359.312 153.957C359.676 145.583 361.501 135.511 363.408 127.934C366.269 116.559 364.673 109.317 364.673 109.317C364.673 109.317 340.502 105.142 335.481 104.533C334.289 110.4 334.97 145.442 335.481 148.425C335.788 150.218 342.469 153.892 348.819 157.091C348.092 152.272 347.962 149.059 347.984 147.199C345.89 145.856 344.423 144.76 344.503 144.335C344.758 142.972 347.056 123.29 347.056 122.949C347.056 122.609 349.864 124.313 349.864 124.313C349.864 124.313 349.902 138.063 350.004 148.458C350.041 152.309 350.087 155.696 350.143 157.755C350.163 158.461 350.183 159.015 350.205 159.373C350.46 163.591 356.396 182.825 357.29 185.7C357.162 188.448 360.163 189.918 362.78 189.023C365.397 188.129 365.117 185.281 365.117 185.281Z" fill="#CCC5C2"/>
<path fill-rule="evenodd" clip-rule="evenodd" d="M355.995 60.9717C355.995 60.9717 355.995 60.9714 355.995 60.9714L355.995 60.9717Z" fill="#EFEDED"/>
<path fill-rule="evenodd" clip-rule="evenodd" d="M376.303 95.741C374.096 97.4282 371.195 96.9633 369.444 96.4344C369.823 98.4302 369.943 99.7961 369.609 99.8169C368.69 99.699 366.699 99.6006 364.301 99.5201C358.043 99.3097 349.013 99.2205 349.013 99.2205L346.971 97.8147C346.971 97.8147 346.758 95.4716 346.375 94.9179C345.992 94.364 344.97 93.9379 345.226 95.216C345.481 96.494 345.056 97.0479 345.056 97.0479C345.056 97.0479 343.651 95.8977 341.609 94.7048C339.566 93.5121 335.566 97.3035 338.97 100.328C342.375 103.353 347.992 104.801 349.268 104.801C349.971 104.801 357.485 105.55 364.353 105.939C369.959 106.256 375.134 106.334 375.823 105.568C376.881 105.183 376.875 101.032 376.303 95.741Z" fill="#FBA0A3"/>
<path fill-rule="evenodd" clip-rule="evenodd" d="M327.19 74.0969C325.894 77.7378 324.888 80.5006 324.587 80.7746C323.651 81.6265 307.693 83.5009 304.459 84.1399C304.076 83.7565 299.778 83.1175 298.756 82.6489C297.735 82.1802 297.863 83.1602 298.331 83.7992C298.799 84.4382 300.161 85.1196 300.161 85.1196C300.161 85.1196 298.118 85.7162 295.948 85.5457C293.777 85.3752 291.139 89.0391 294.543 90.4873C297.948 91.9358 304.927 89.2947 305.863 88.8686C306.799 88.4425 323.566 87.6757 326.715 86.8237C328.637 86.3036 331.315 82.1641 333.111 79.0176C331.517 78.5731 328.468 77.3211 327.19 74.0969Z" fill="#FBA0A3"/>
<path fill-rule="evenodd" clip-rule="evenodd" d="M327.875 102.605L327.877 101.618L326.95 101.541L303.552 88.018C302.579 87.4554 300.88 87.526 299.756 88.1755L297.383 89.5473L283.481 97.5822L282.986 97.8682L281.446 97.7397V98.758L283.208 99.7763L306.876 113.456L308.638 114.474L310.672 113.298L324.574 105.263L326.948 103.891C327.584 103.524 327.898 103.049 327.875 102.605H327.875Z" fill="#9FC0F0"/>
<path fill-rule="evenodd" clip-rule="evenodd" d="M327.22 100.678L303.552 86.999C302.579 86.4367 300.88 86.5072 299.756 87.1567L297.383 88.5285L283.48 96.5635L281.446 97.7392L283.208 98.7576L306.876 112.437L308.638 113.455L310.672 112.28L324.574 104.244L326.948 102.873C328.071 102.223 328.193 101.241 327.22 100.678Z" fill="#C6E2FB"/>
<path fill-rule="evenodd" clip-rule="evenodd" d="M316.47 104.691L303.49 97.1889C302.957 96.8804 302.025 96.9193 301.408 97.2753L300.107 98.0278L292.483 102.434L291.367 103.079L292.333 103.637L305.313 111.139L306.279 111.698L307.395 111.053L315.019 106.647L316.32 105.894C316.937 105.538 317.004 104.999 316.47 104.691Z" fill="#2E3B70"/>
<path fill-rule="evenodd" clip-rule="evenodd" d="M314.532 106.133L305.985 101.193C305.634 100.99 305.021 101.015 304.615 101.25L303.758 101.745L298.738 104.647L298.003 105.071L298.64 105.439L307.186 110.378L307.822 110.746L308.557 110.321L313.576 107.42L314.433 106.925C314.839 106.69 314.883 106.335 314.532 106.133Z" fill="#5A648F"/>
<path fill-rule="evenodd" clip-rule="evenodd" d="M310.077 100.003L302.801 95.7974C302.225 95.4649 302.298 94.8786 302.963 94.4944L307.664 91.777C308.328 91.3931 309.343 91.3509 309.919 91.6837L317.195 95.889C317.77 96.2218 317.697 96.8079 317.033 97.192L312.331 99.9094C311.667 100.293 310.652 100.335 310.077 100.003Z" fill="#A7CBF0"/>
<path fill-rule="evenodd" clip-rule="evenodd" d="M309.065 113.233L308.913 110.793L307.874 94.1222L307.697 91.2761C307.613 89.9288 306.756 88.3806 305.783 87.8183L282.115 74.1388C281.765 73.9369 281.45 73.8916 281.191 73.9763L281.189 73.9747L281.18 73.9793C281.117 74.001 281.057 74.0312 281.001 74.0688L280.688 74.2252L280.756 74.32C280.568 74.6002 280.472 75.0222 280.505 75.5602L280.683 78.4064L281.722 95.0769L281.874 97.5167L283.636 98.535L307.304 112.214L308.077 112.662L308.641 113.453L309.065 113.233Z" fill="#C6E2FB"/>
<mask id="mask7" mask-type="alpha" maskUnits="userSpaceOnUse" x="280" y="74" width="29" height="40">
<path fill-rule="evenodd" clip-rule="evenodd" d="M280.075 74.155H308.642V113.453H280.075V74.155Z" fill="white"/>
</mask>
<g mask="url(#mask7)">
<path fill-rule="evenodd" clip-rule="evenodd" d="M305.359 88.0391L281.691 74.3597C280.718 73.7973 279.998 74.4338 280.081 75.7811L280.259 78.6272L281.298 95.2978L281.45 97.7373L283.212 98.7558L306.88 112.435L308.642 113.453L308.49 111.014L307.45 94.3431L307.273 91.4969C307.189 90.1496 306.332 88.6014 305.359 88.0391Z" fill="#B0B5D1"/>
</g>
<path fill-rule="evenodd" clip-rule="evenodd" d="M295.405 93.8282C295.125 94.971 293.795 95.3623 292.435 94.7026C291.075 94.0429 290.199 92.5818 290.48 91.439C290.76 90.2962 292.09 89.9046 293.451 90.5643C294.811 91.2241 295.686 92.6853 295.405 93.8282Z" fill="white"/>
<mask id="mask8" mask-type="alpha" maskUnits="userSpaceOnUse" x="326" y="54" width="52" height="61">
<path fill-rule="evenodd" clip-rule="evenodd" d="M326.8 54.3135H377.099V114.699H326.8V54.3135Z" fill="white"/>
</mask>
<g mask="url(#mask8)">
<path fill-rule="evenodd" clip-rule="evenodd" d="M349.269 104.801C347.992 104.801 342.375 103.353 338.971 100.328C335.566 97.3035 339.566 93.5118 341.609 94.7047C343.651 95.8976 345.056 97.0478 345.056 97.0478C345.056 97.0478 345.481 96.4939 345.226 95.2159C344.971 93.9379 345.992 94.364 346.375 94.9176C346.758 95.4715 346.971 97.8147 346.971 97.8147L349.013 99.2205C349.013 99.2205 356.267 99.2921 362.278 99.4585C362.774 88.0613 365.525 82.3079 365.525 82.3079C366.785 85.5211 367.723 92.5055 368.503 96.6218C370.254 97.1506 374.892 97.3293 377.099 95.642C376.153 86.8955 372.86 75.1305 371.057 71.9986C368.163 66.9716 356.673 62.03 356.096 61.1781C356.06 61.1252 356.029 61.062 356.002 60.9905C356.138 61.3989 358.294 68.2997 347.566 67.1421C345.452 65.9405 342.197 57.9567 345.063 55.1806C340.638 54.5809 336.352 54.1142 335.395 54.3994C333.951 54.8294 329.533 65.9392 326.8 73.6173C327.651 76.77 331.694 79.1982 333.523 79.0277C334.669 77.0199 335.042 75.4066 335.042 75.4066C335.042 75.4066 336.162 85.7159 335.907 89.9819C335.651 94.248 334.63 101.989 335.226 104.034C335.821 106.079 343.566 110.254 351.822 113.492C357.193 115.598 360.725 114.674 362.726 112.81C362.468 110.326 362.316 107.993 362.247 105.81C356.028 105.405 349.9 104.801 349.269 104.801Z" fill="#589BFF"/>
</g>
<path fill-rule="evenodd" clip-rule="evenodd" d="M365.525 82.3081C365.525 82.3081 362.774 88.0615 362.278 99.4587C362.973 99.4778 363.653 99.4983 364.301 99.52C364.506 91.2474 365.525 82.3081 365.525 82.3081Z" fill="#3180F6"/>
<path fill-rule="evenodd" clip-rule="evenodd" d="M362.247 105.81C362.316 107.993 362.468 110.326 362.726 112.81C363.801 111.809 364.436 110.537 364.673 109.317C364.521 108.321 364.418 107.178 364.353 105.939C363.655 105.899 362.95 105.856 362.247 105.81Z" fill="#3180F6"/>
<path fill-rule="evenodd" clip-rule="evenodd" d="M347.566 67.1422C358.294 68.2998 356.138 61.399 356.001 60.9906C355.999 60.9847 355.997 60.9778 355.995 60.9716L355.995 60.9711C355.594 59.8725 356.096 56.8464 356.096 56.8464C356.096 56.8464 350.475 55.914 345.063 55.1807C342.196 57.957 345.452 65.9406 347.566 67.1422Z" fill="#FBA0A3"/>
<path fill-rule="evenodd" clip-rule="evenodd" d="M347.566 67.1423C347.566 67.1423 349.056 69.8049 349.056 71.168C350.226 71.5726 357.703 67.0093 357.954 62.3471C357.609 61.5082 355.995 60.9712 355.995 60.9712C355.995 60.9712 356.354 64.8206 347.566 67.1423Z" fill="#4E5785"/>
<path fill-rule="evenodd" clip-rule="evenodd" d="M347.566 67.1423C347.566 67.1423 345.779 67.1849 343.779 69.3149C342.417 66.3754 340.417 60.2836 345.183 56.2791L347.226 56.7051C347.226 56.7051 344.29 61.2633 347.566 67.1423Z" fill="#4E5785"/>
<path fill-rule="evenodd" clip-rule="evenodd" d="M341.205 42.9767C341.205 42.9767 339.928 46.1078 340.247 50.6448C340.566 55.1818 340.77 58.952 340.7 59.8785C340.63 60.8051 340.566 63.1375 344.971 62.9458C349.375 62.7541 354.229 62.2661 355.503 57.3864C357.322 55.8208 356.875 55.5013 358.056 55.3735C359.237 55.2457 360.684 54.0208 360.759 51.5502C361.28 47.5456 360.546 41.7625 355.216 39.7816C349.886 37.8007 343.088 37.9604 341.205 42.9767Z" fill="#FBA0A3"/>
<mask id="mask9" mask-type="alpha" maskUnits="userSpaceOnUse" x="341" y="35" width="22" height="18">
<path fill-rule="evenodd" clip-rule="evenodd" d="M341.205 35.6824H362.786V52.5229H341.205V35.6824Z" fill="white"/>
</mask>
<g mask="url(#mask9)">
<path fill-rule="evenodd" clip-rule="evenodd" d="M354.205 43.371C354.205 43.371 349.46 45.2773 341.205 42.9769C341.524 34.0414 357.652 33.2746 359.907 40.9001C361.95 42.2635 364.759 44.2229 360.759 51.5503C361.024 50.613 357.769 47.7375 357.035 52.4662C356.397 52.594 356.141 52.4662 356.141 52.4662C356.141 52.4662 356.907 48.8238 356.652 47.2263C355.663 46.3636 354.407 45.7141 354.205 43.371Z" fill="#23083E"/>
</g>
<path opacity="0.8" d="M311.371 231.296L311.975 231.867L312.647 231.378L343.954 208.595V278.672C343.954 282.513 339.802 284.92 336.469 283.01L186.075 196.876C182.068 194.581 183.048 188.545 187.575 187.635L213.137 182.498L243.431 190.768L243.765 190.859L244.083 190.725L274.573 177.866L285.811 206.99L285.893 207.201L286.057 207.357L311.371 231.296Z" fill="#FF7652" stroke="white" stroke-width="2"/>
<path opacity="0.8" d="M262.219 230.608L262.466 231.248H263.152H294.266L320.361 266.214V302.289C320.361 306.131 316.21 308.537 312.877 306.628L162.483 220.494C158.476 218.199 159.455 212.163 163.983 211.253L189.545 206.116L219.839 214.386L220.172 214.477L220.491 214.342L250.981 201.484L262.219 230.608Z" fill="#589BFF" stroke="white" stroke-width="2"/>
<path opacity="0.8" d="M267.508 247.074H267.965L268.264 246.729L299.128 211.109V326.195C299.128 330.038 294.973 332.444 291.64 330.531L140.894 244.037C136.972 241.786 137.815 235.898 142.212 234.839L182.101 225.234L198.32 238.18L198.594 238.398H198.944H223.955L239.811 246.955L240.033 247.074H240.286H267.508Z" fill="#0F9F6F" stroke="white" stroke-width="2"/>
<g filter="url(#filter2_f)">
<path fill-rule="evenodd" clip-rule="evenodd" d="M405.019 229.536L400.537 243.138C400.13 244.372 400.625 245.725 401.732 246.403L415.41 254.275C416.68 255.052 418.174 255.381 419.653 255.209L445.599 252.182C446.661 252.058 447.56 251.338 447.913 250.328L452.634 236.842C453.079 235.572 452.558 234.166 451.394 233.493L437.549 225.491C436.314 224.777 434.882 224.479 433.465 224.642L407.355 227.633C406.273 227.758 405.361 228.5 405.019 229.536Z" fill="#61E8FF" fill-opacity="0.39"/>
</g>
<path fill-rule="evenodd" clip-rule="evenodd" d="M452.634 233.868L447.913 247.354C447.56 248.364 446.661 249.084 445.599 249.208L419.652 252.235C418.173 252.407 416.68 252.078 415.41 251.301L401.732 243.429C400.981 242.969 400.514 242.2 400.416 241.368L400.396 239.259C400.47 240.135 400.946 237.975 401.732 238.456L415.41 246.329C416.68 247.106 418.173 247.435 419.652 247.262L445.599 244.235C446.661 244.111 447.56 243.392 447.913 242.382L452.634 231.089C452.7 230.9 452.791 232.577 452.791 232.577C452.791 232.577 452.738 233.571 452.634 233.868Z" fill="#B1BAC9"/>
<mask id="mask10" mask-type="alpha" maskUnits="userSpaceOnUse" x="400" y="220" width="53" height="31">
<path fill-rule="evenodd" clip-rule="evenodd" d="M400.396 220.225H452.792V250.88H400.396V220.225Z" fill="white"/>
</mask>
<g mask="url(#mask10)">
<path fill-rule="evenodd" clip-rule="evenodd" d="M405.019 225.162L400.537 238.765C400.13 239.999 400.625 241.351 401.732 242.029L415.41 249.901C416.68 250.679 418.174 251.007 419.653 250.835L445.599 247.808C446.661 247.684 447.56 246.964 447.913 245.954L452.634 232.468C453.079 231.198 452.558 229.792 451.394 229.12L437.549 221.117C436.314 220.403 434.882 220.106 433.465 220.268L407.355 223.259C406.273 223.384 405.361 224.126 405.019 225.162Z" fill="#F1F5F9"/>
</g>
<g filter="url(#filter3_f)">
<path fill-rule="evenodd" clip-rule="evenodd" d="M111.885 145.692L107.402 159.295C106.996 160.529 107.491 161.881 108.598 162.559L122.276 170.432C123.546 171.209 125.039 171.538 126.518 171.365L152.465 168.338C153.527 168.214 154.426 167.494 154.779 166.485L159.5 152.998C159.945 151.728 159.423 150.323 158.26 149.65L144.415 141.647C143.18 140.934 141.748 140.636 140.331 140.798L114.221 143.79C113.138 143.914 112.227 144.656 111.885 145.692Z" fill="#61E8FF" fill-opacity="0.39"/>
</g>
<path fill-rule="evenodd" clip-rule="evenodd" d="M159.5 150.024L154.779 163.51C154.425 164.52 153.527 165.24 152.465 165.364L126.518 168.391C125.039 168.563 123.545 168.234 122.276 167.457L108.598 159.585C107.847 159.125 107.38 158.357 107.281 157.524L107.261 155.415C107.336 156.291 107.811 154.131 108.598 154.613L122.276 162.485C123.545 163.262 125.039 163.591 126.518 163.419L152.465 160.392C153.527 160.268 154.425 159.548 154.779 158.538L159.5 147.245C159.566 147.056 159.657 148.733 159.657 148.733C159.657 148.733 159.604 149.727 159.5 150.024Z" fill="#B1BAC9"/>
<mask id="mask11" mask-type="alpha" maskUnits="userSpaceOnUse" x="107" y="136" width="53" height="32">
<path fill-rule="evenodd" clip-rule="evenodd" d="M107.261 136.382H159.658V167.036H107.261V136.382Z" fill="white"/>
</mask>
<g mask="url(#mask11)">
<path fill-rule="evenodd" clip-rule="evenodd" d="M111.885 141.319L107.402 154.921C106.996 156.155 107.491 157.507 108.598 158.185L122.276 166.058C123.546 166.835 125.039 167.164 126.518 166.991L152.465 163.964C153.527 163.84 154.426 163.121 154.779 162.111L159.5 148.624C159.945 147.355 159.423 145.949 158.26 145.276L144.415 137.274C143.18 136.56 141.748 136.262 140.331 136.424L114.221 139.416C113.138 139.54 112.227 140.283 111.885 141.319Z" fill="#F1F5F9"/>
</g>
<mask id="mask12" mask-type="alpha" maskUnits="userSpaceOnUse" x="57" y="41" width="51" height="54">
<path fill-rule="evenodd" clip-rule="evenodd" d="M107.239 41.2903H57.808V94.4717H107.239V41.2903Z" fill="white"/>
</mask>
<g mask="url(#mask12)">
<path fill-rule="evenodd" clip-rule="evenodd" d="M107.239 57.5337L89.9954 54.4732L73.2431 42.905C68.4726 40.0449 75.5232 41.3113 70.7494 44.1567L74.8869 48.9375L57.808 42.8823V72.3943H57.8191C57.8759 74.2171 59.0582 76.0312 61.3839 77.4254L86.3749 92.319C91.1454 95.179 98.8826 95.1907 103.656 92.3452H103.657C106.103 90.887 107.287 88.9615 107.228 87.0457H107.239V57.5337Z" fill="#39475B"/>
</g>
<path fill-rule="evenodd" clip-rule="evenodd" d="M103.65 62.8212C98.8672 65.6686 91.1159 65.6569 86.3367 62.795L61.2997 47.892C56.5205 45.0302 56.5233 40.4019 61.306 37.5546C66.0887 34.7072 73.8401 34.719 78.6193 37.5809L103.656 52.4839C108.435 55.3457 108.433 59.9738 103.65 62.8212Z" fill="#8091A9"/>
<g filter="url(#filter4_f)">
<path d="M103.65 59.8691V59.8691C98.8672 62.7164 91.1159 62.7047 86.3367 59.8429L61.2997 44.9399C56.5205 42.078 56.5234 37.4498 61.306 34.6025C66.0887 31.7551 73.8401 31.7669 78.6193 34.6287L103.656 49.5317C108.435 52.3936 108.433 57.0217 103.65 59.8691" stroke="#9EF81E" stroke-width="3"/>
</g>
<mask id="mask13" mask-type="alpha" maskUnits="userSpaceOnUse" x="57" y="5" width="51" height="55">
<path fill-rule="evenodd" clip-rule="evenodd" d="M107.239 5.86328H57.808V59.0447H107.239V5.86328Z" fill="white"/>
</mask>
<g mask="url(#mask13)">
<path fill-rule="evenodd" clip-rule="evenodd" d="M107.239 22.1067L89.9954 19.0462L73.2431 7.47795C68.4726 4.61793 75.5232 5.88425 70.7494 8.72974L74.8869 13.5105L57.808 7.45531V36.9673H57.8191C57.8759 38.7901 59.0582 40.6042 61.3839 41.9984L86.3749 56.892C91.1454 59.752 98.8826 59.7637 103.656 56.9182H103.657C106.103 55.46 107.287 53.5345 107.228 51.6187H107.239V22.1067Z" fill="#39475B"/>
</g>
<path fill-rule="evenodd" clip-rule="evenodd" d="M103.65 27.3945C98.8672 30.2418 91.1159 30.2301 86.3367 27.3683L61.2997 12.4653C56.5205 9.60343 56.5233 4.97519 61.306 2.12789C66.0887 -0.71952 73.8401 -0.707747 78.6193 2.1541L103.656 17.0571C108.435 19.919 108.433 24.5471 103.65 27.3945Z" fill="#8091A9"/>
<mask id="mask14" mask-type="alpha" maskUnits="userSpaceOnUse" x="453" y="88" width="51" height="54">
<path fill-rule="evenodd" clip-rule="evenodd" d="M503 88.5256H453.569V141.707H503V88.5256Z" fill="white"/>
</mask>
<g mask="url(#mask14)">
<path fill-rule="evenodd" clip-rule="evenodd" d="M503 104.769L485.757 101.709L469.004 90.1403C464.234 87.2803 471.284 88.5466 466.511 91.3921L470.648 96.1729L453.569 90.1177V119.63H453.58C453.637 121.452 454.819 123.267 457.145 124.661L482.136 139.554C486.907 142.414 494.644 142.426 499.418 139.581H499.418C501.864 138.122 503.049 136.197 502.989 134.281H503V104.769Z" fill="#39475B"/>
</g>
<path fill-rule="evenodd" clip-rule="evenodd" d="M499.411 110.057C494.628 112.904 486.877 112.892 482.098 110.03L457.061 95.1274C452.282 92.2655 452.285 87.6373 457.067 84.79C461.85 81.9426 469.601 81.9544 474.381 84.8162L499.417 99.7192C504.197 102.581 504.194 107.209 499.411 110.057Z" fill="#8091A9"/>
<g filter="url(#filter5_f)">
<path d="M499.411 107.105V107.105C494.628 109.952 486.877 109.94 482.098 107.078L457.061 92.1755C452.282 89.3136 452.285 84.6854 457.067 81.8381C461.85 78.9907 469.601 79.0025 474.381 81.8643L499.417 96.7673C504.197 99.6292 504.194 104.257 499.411 107.105" stroke="#9EF81E" stroke-width="3"/>
</g>
<mask id="mask15" mask-type="alpha" maskUnits="userSpaceOnUse" x="453" y="53" width="51" height="54">
<path fill-rule="evenodd" clip-rule="evenodd" d="M503 53.0989H453.569V106.28H503V53.0989Z" fill="white"/>
</mask>
<g mask="url(#mask15)">
<path fill-rule="evenodd" clip-rule="evenodd" d="M503 69.3423L485.757 66.2818L469.004 54.7135C464.234 51.8535 471.284 53.1198 466.511 55.9653L470.648 60.7461L453.569 54.6909V84.2029H453.58C453.637 86.0257 454.819 87.8398 457.145 89.234L482.136 104.128C486.907 106.988 494.644 106.999 499.418 104.154H499.418C501.864 102.696 503.049 100.77 502.989 98.8543H503V69.3423Z" fill="#39475B"/>
</g>
<path fill-rule="evenodd" clip-rule="evenodd" d="M499.411 74.6303C494.628 77.4776 486.877 77.466 482.098 74.6041L457.061 59.7011C452.282 56.8393 452.285 52.211 457.067 49.3637C461.85 46.5163 469.601 46.5281 474.381 49.3899L499.417 64.2929C504.197 67.1548 504.194 71.7829 499.411 74.6303Z" fill="#8091A9"/>
<mask id="mask16" mask-type="alpha" maskUnits="userSpaceOnUse" x="7" y="281" width="51" height="54">
<path fill-rule="evenodd" clip-rule="evenodd" d="M57.105 281.011H7.6742V334.193H57.105V281.011Z" fill="white"/>
</mask>
<g mask="url(#mask16)">
<path fill-rule="evenodd" clip-rule="evenodd" d="M57.105 297.255L39.8617 294.194L23.1093 282.626C18.3389 279.766 25.3895 281.032 20.6156 283.878L24.7531 288.659L7.67418 282.604V312.115H7.68527C7.74212 313.938 8.9244 315.752 11.2501 317.147L36.2411 332.04C41.0116 334.9 48.7488 334.912 53.5227 332.066H53.5228C55.9692 330.608 57.1536 328.683 57.0939 326.767H57.105V297.255Z" fill="#39475B"/>
</g>
<path fill-rule="evenodd" clip-rule="evenodd" d="M53.5161 302.543C48.7335 305.39 40.9821 305.379 36.2029 302.517L11.1659 287.614C6.38668 284.752 6.38956 280.124 11.1722 277.276C15.9549 274.429 23.7064 274.441 28.4855 277.303L53.5225 292.206C58.3016 295.067 58.2988 299.696 53.5161 302.543Z" fill="#8091A9"/>
<g filter="url(#filter6_f)">
<path d="M53.5161 299.591V299.591C48.7335 302.438 40.9821 302.426 36.2029 299.564L11.1659 284.661C6.38668 281.799 6.38956 277.171 11.1722 274.324C15.9549 271.477 23.7064 271.488 28.4855 274.35L53.5225 289.253C58.3016 292.115 58.2988 296.743 53.5161 299.591" stroke="#9EF81E" stroke-width="3"/>
</g>
<mask id="mask17" mask-type="alpha" maskUnits="userSpaceOnUse" x="7" y="245" width="51" height="54">
<path fill-rule="evenodd" clip-rule="evenodd" d="M57.105 245.584H7.6742V298.766H57.105V245.584Z" fill="white"/>
</mask>
<g mask="url(#mask17)">
<path fill-rule="evenodd" clip-rule="evenodd" d="M57.105 261.828L39.8617 258.767L23.1093 247.199C18.3389 244.339 25.3895 245.605 20.6156 248.451L24.7531 253.232L7.67418 247.177V276.688H7.68527C7.74212 278.511 8.9244 280.325 11.2501 281.72L36.2411 296.613C41.0116 299.473 48.7488 299.485 53.5227 296.639H53.5228C55.9692 295.181 57.1536 293.256 57.0939 291.34H57.105V261.828Z" fill="#39475B"/>
</g>
<path fill-rule="evenodd" clip-rule="evenodd" d="M53.5161 267.116C48.7335 269.963 40.9821 269.952 36.2029 267.09L11.1659 252.187C6.38668 249.325 6.38956 244.697 11.1722 241.849C15.9549 239.002 23.7064 239.014 28.4855 241.876L53.5225 256.779C58.3016 259.64 58.2988 264.269 53.5161 267.116Z" fill="#8091A9"/>
</g>
<defs>
<filter id="filter0_f" x="352.226" y="-8.90631" width="115.907" height="101.65" filterUnits="userSpaceOnUse" color-interpolation-filters="sRGB">
<feFlood flood-opacity="0" result="BackgroundImageFix"/>
<feBlend mode="normal" in="SourceGraphic" in2="BackgroundImageFix" result="shape"/>
<feGaussianBlur stdDeviation="20.3871" result="effect1_foregroundBlur"/>
</filter>
<filter id="filter1_f" x="374.226" y="278.255" width="129.824" height="109.792" filterUnits="userSpaceOnUse" color-interpolation-filters="sRGB">
<feFlood flood-opacity="0" result="BackgroundImageFix"/>
<feBlend mode="normal" in="SourceGraphic" in2="BackgroundImageFix" result="shape"/>
<feGaussianBlur stdDeviation="20.3871" result="effect1_foregroundBlur"/>
</filter>
<filter id="filter2_f" x="359.621" y="183.824" width="133.945" height="112.204" filterUnits="userSpaceOnUse" color-interpolation-filters="sRGB">
<feFlood flood-opacity="0" result="BackgroundImageFix"/>
<feBlend mode="normal" in="SourceGraphic" in2="BackgroundImageFix" result="shape"/>
<feGaussianBlur stdDeviation="20.3871" result="effect1_foregroundBlur"/>
</filter>
<filter id="filter3_f" x="66.487" y="99.9807" width="133.945" height="112.204" filterUnits="userSpaceOnUse" color-interpolation-filters="sRGB">
<feFlood flood-opacity="0" result="BackgroundImageFix"/>
<feBlend mode="normal" in="SourceGraphic" in2="BackgroundImageFix" result="shape"/>
<feGaussianBlur stdDeviation="20.3871" result="effect1_foregroundBlur"/>
</filter>
<filter id="filter4_f" x="53.499" y="28.2563" width="57.9582" height="37.9589" filterUnits="userSpaceOnUse" color-interpolation-filters="sRGB">
<feFlood flood-opacity="0" result="BackgroundImageFix"/>
<feBlend mode="normal" in="SourceGraphic" in2="BackgroundImageFix" result="shape"/>
<feGaussianBlur stdDeviation="1.35914" result="effect1_foregroundBlur"/>
</filter>
<filter id="filter5_f" x="449.26" y="75.4919" width="57.9582" height="37.9589" filterUnits="userSpaceOnUse" color-interpolation-filters="sRGB">
<feFlood flood-opacity="0" result="BackgroundImageFix"/>
<feBlend mode="normal" in="SourceGraphic" in2="BackgroundImageFix" result="shape"/>
<feGaussianBlur stdDeviation="1.35914" result="effect1_foregroundBlur"/>
</filter>
<filter id="filter6_f" x="3.36521" y="267.978" width="57.9582" height="37.9589" filterUnits="userSpaceOnUse" color-interpolation-filters="sRGB">
<feFlood flood-opacity="0" result="BackgroundImageFix"/>
<feBlend mode="normal" in="SourceGraphic" in2="BackgroundImageFix" result="shape"/>
<feGaussianBlur stdDeviation="1.35914" result="effect1_foregroundBlur"/>
</filter>
<clipPath id="clip0">
<rect width="503" height="367" fill="white"/>
</clipPath>
</defs>
</svg>
