<svg width="40" height="40" viewBox="0 0 40 40" fill="none" xmlns="http://www.w3.org/2000/svg">
<g clip-path="url(#clip0)">
<path fill-rule="evenodd" clip-rule="evenodd" d="M24.7542 19.9996L39.0157 5.73812C40.3285 4.42533 40.3285 2.29689 39.0157 0.98429C37.7029 -0.328497 35.5747 -0.328497 34.2619 0.98429L20.0002 15.246L5.73852 0.984102C4.42574 -0.328685 2.29748 -0.328685 0.984694 0.984102C-0.327906 2.29689 -0.327906 4.42533 0.984694 5.73793L15.2464 19.9994L0.984694 34.2611C-0.327906 35.5739 -0.327906 37.7023 0.984694 39.0149C2.29748 40.3277 4.42574 40.3277 5.73852 39.0149L20.0002 24.7533L34.2619 39.0149C35.5745 40.3277 37.7029 40.3277 39.0157 39.0149C40.3285 37.7021 40.3285 35.5739 39.0157 34.2611L24.7542 19.9996Z" fill="#1C1832"/>
</g>
<defs>
<clipPath id="clip0">
<rect width="40" height="40" fill="white"/>
</clipPath>
</defs>
</svg>
