<svg width="64" height="64" viewBox="0 0 64 64" fill="none" xmlns="http://www.w3.org/2000/svg">
<path d="M60 43L48.07 46.73L43.93 48.28C44.3948 47.8825 44.7271 47.3525 44.8822 46.7609C45.0373 46.1693 45.0079 45.5444 44.798 44.97C44.588 44.3956 44.2075 43.899 43.7074 43.547C43.2073 43.1949 42.6116 43.004 42 43H33L22 39H11V55H18L35 61H37L62 48C62.5437 47.4611 62.895 46.7583 63 46C63 45.2044 62.6839 44.4413 62.1213 43.8787C61.5587 43.3161 60.7957 43 60 43Z" fill="white"/>
<path d="M11 36H0V58H11V36Z" fill="#FF7652"/>
<path d="M14 39H22L33 43H42C42.7956 43 43.5587 43.3161 44.1213 43.8787C44.6839 44.4413 45 45.2044 45 46C45 46.7956 44.6839 47.5587 44.1213 48.1213C43.5587 48.6839 42.7956 49 42 49H31C30.2044 49 29.4413 49.3161 28.8787 49.8787C28.3161 50.4413 28 51.2044 28 52" stroke="#524A4D" stroke-width="2" stroke-miterlimit="10"/>
<path d="M48.07 46.73L60 43C60.7956 43 61.5587 43.3161 62.1213 43.8787C62.6839 44.4413 63 45.2044 63 46C62.895 46.7583 62.5437 47.4611 62 48L37 61H35L18 55H11" stroke="#524A4D" stroke-width="2" stroke-miterlimit="10"/>
<path d="M8 53H6" stroke="#524A4D" stroke-width="2" stroke-miterlimit="10"/>
<path d="M11 36V58" stroke="#524A4D" stroke-width="2" stroke-miterlimit="10"/>
<path d="M37 37C46.3888 37 54 29.3888 54 20C54 10.6112 46.3888 3 37 3C27.6112 3 20 10.6112 20 20C20 29.3888 27.6112 37 37 37Z" fill="white"/>
<path d="M37 37C46.3888 37 54 29.3888 54 20C54 10.6112 46.3888 3 37 3C27.6112 3 20 10.6112 20 20C20 29.3888 27.6112 37 37 37Z" stroke="#524A4D" stroke-width="2" stroke-miterlimit="10"/>
<path d="M37 34C44.732 34 51 27.732 51 20C51 12.268 44.732 6 37 6C29.268 6 23 12.268 23 20C23 27.732 29.268 34 37 34Z" fill="#75DBD0"/>
<path d="M37 3V37" stroke="#524A4D" stroke-width="2" stroke-miterlimit="10"/>
<path d="M54 20H20" stroke="#524A4D" stroke-width="2" stroke-miterlimit="10"/>
<path d="M37 37C41.9706 37 46 29.3888 46 20C46 10.6112 41.9706 3 37 3C32.0294 3 28 10.6112 28 20C28 29.3888 32.0294 37 37 37Z" stroke="#524A4D" stroke-width="2" stroke-miterlimit="10"/>
</svg>
