<svg width="64" height="64" viewBox="0 0 64 64" fill="none" xmlns="http://www.w3.org/2000/svg">
<path d="M60 4H4V60H60V4Z" fill="#F8F7F7"/>
<path d="M47 33V30" stroke="#524A4D" stroke-width="2" stroke-miterlimit="10"/>
<path d="M9 33V36" stroke="#A8A0A2" stroke-width="2" stroke-miterlimit="10"/>
<path d="M13 33V40" stroke="#A8A0A2" stroke-width="2" stroke-miterlimit="10"/>
<path d="M9 52V54" stroke="#A8A0A2" stroke-width="2" stroke-miterlimit="10"/>
<path d="M17 54V56" stroke="#A8A0A2" stroke-width="2" stroke-miterlimit="10"/>
<path d="M21 56V58" stroke="#A8A0A2" stroke-width="2" stroke-miterlimit="10"/>
<path d="M25 52V54" stroke="#A8A0A2" stroke-width="2" stroke-miterlimit="10"/>
<path d="M29 48V50" stroke="#A8A0A2" stroke-width="2" stroke-miterlimit="10"/>
<path d="M35 56V58" stroke="#A8A0A2" stroke-width="2" stroke-miterlimit="10"/>
<path d="M39 48V50" stroke="#A8A0A2" stroke-width="2" stroke-miterlimit="10"/>
<path d="M43 52V54" stroke="#A8A0A2" stroke-width="2" stroke-miterlimit="10"/>
<path d="M47 50V52" stroke="#A8A0A2" stroke-width="2" stroke-miterlimit="10"/>
<path d="M55 54V56" stroke="#A8A0A2" stroke-width="2" stroke-miterlimit="10"/>
<path d="M55 48V50" stroke="#A8A0A2" stroke-width="2" stroke-miterlimit="10"/>
<path d="M43 42V44" stroke="#A8A0A2" stroke-width="2" stroke-miterlimit="10"/>
<path d="M47 36V38" stroke="#A8A0A2" stroke-width="2" stroke-miterlimit="10"/>
<path d="M35 46V48" stroke="#A8A0A2" stroke-width="2" stroke-miterlimit="10"/>
<path d="M29 36V38" stroke="#A8A0A2" stroke-width="2" stroke-miterlimit="10"/>
<path d="M17 50V52" stroke="#A8A0A2" stroke-width="2" stroke-miterlimit="10"/>
<path d="M17 36V38" stroke="#A8A0A2" stroke-width="2" stroke-miterlimit="10"/>
<path d="M9 38V42" stroke="#A8A0A2" stroke-width="2" stroke-miterlimit="10"/>
<path d="M21 40V44" stroke="#A8A0A2" stroke-width="2" stroke-miterlimit="10"/>
<path d="M29 52V56" stroke="#A8A0A2" stroke-width="2" stroke-miterlimit="10"/>
<path d="M35 50V54" stroke="#A8A0A2" stroke-width="2" stroke-miterlimit="10"/>
<path d="M43 46V50" stroke="#A8A0A2" stroke-width="2" stroke-miterlimit="10"/>
<path d="M51 54V58" stroke="#A8A0A2" stroke-width="2" stroke-miterlimit="10"/>
<path d="M55 42V46" stroke="#A8A0A2" stroke-width="2" stroke-miterlimit="10"/>
<path d="M55 36V40" stroke="#A8A0A2" stroke-width="2" stroke-miterlimit="10"/>
<path d="M47 40V46" stroke="#A8A0A2" stroke-width="2" stroke-miterlimit="10"/>
<path d="M51 46V52" stroke="#A8A0A2" stroke-width="2" stroke-miterlimit="10"/>
<path d="M51 36V44" stroke="#A8A0A2" stroke-width="2" stroke-miterlimit="10"/>
<path d="M39 52V58" stroke="#A8A0A2" stroke-width="2" stroke-miterlimit="10"/>
<path d="M25 36V40" stroke="#A8A0A2" stroke-width="2" stroke-miterlimit="10"/>
<path d="M39 33V36" stroke="#A8A0A2" stroke-width="2" stroke-miterlimit="10"/>
<path d="M21 33V38" stroke="#A8A0A2" stroke-width="2" stroke-miterlimit="10"/>
<path d="M25 42V48" stroke="#A8A0A2" stroke-width="2" stroke-miterlimit="10"/>
<path d="M35 36V44" stroke="#A8A0A2" stroke-width="2" stroke-miterlimit="10"/>
<path d="M43 33V40" stroke="#A8A0A2" stroke-width="2" stroke-miterlimit="10"/>
<path d="M39 38V46" stroke="#A8A0A2" stroke-width="2" stroke-miterlimit="10"/>
<path d="M29 40V46" stroke="#A8A0A2" stroke-width="2" stroke-miterlimit="10"/>
<path d="M29 28C29 27.2044 29.3161 26.4413 29.8787 25.8787C30.4413 25.3161 31.2044 25 32 25C32.7956 25 33.5587 25.3161 34.1213 25.8787C34.6839 26.4413 35 27.2044 35 28" stroke="#524A4D" stroke-width="2" stroke-miterlimit="10"/>
<path d="M32 21C33.8565 21 35.637 21.7375 36.9497 23.0503C38.2625 24.363 39 26.1435 39 28" stroke="#524A4D" stroke-width="2" stroke-miterlimit="10"/>
<path d="M25 28C24.9997 26.1678 25.7178 24.4086 27 23.1" stroke="#524A4D" stroke-width="2" stroke-miterlimit="10"/>
<path d="M21 28C21 25.0826 22.1589 22.2847 24.2218 20.2218C26.2847 18.1589 29.0826 17 32 17C34.9174 17 37.7153 18.1589 39.7782 20.2218C41.8411 22.2847 43 25.0826 43 28" stroke="#524A4D" stroke-width="2" stroke-miterlimit="10"/>
<path d="M42 16.8199C43.573 18.2269 44.8314 19.9499 45.693 21.8764C46.5546 23.8029 47 25.8896 47 27.9999" stroke="#524A4D" stroke-width="2" stroke-miterlimit="10"/>
<path d="M17 28C17 24.0218 18.5804 20.2064 21.3934 17.3934C24.2064 14.5804 28.0218 13 32 13" stroke="#524A4D" stroke-width="2" stroke-miterlimit="10"/>
<path d="M26 9.99996C28.8536 9.05022 31.8919 8.79146 34.865 9.24496C37.8381 9.69846 40.6611 10.8513 43.1018 12.6086C45.5425 14.3659 47.5312 16.6774 48.9042 19.3532C50.2773 22.029 50.9956 24.9925 51 28" stroke="#524A4D" stroke-width="2" stroke-miterlimit="10"/>
<path d="M13 28C12.992 23.1696 14.8308 18.5188 18.14 15" stroke="#524A4D" stroke-width="2" stroke-miterlimit="10"/>
<path d="M53.1699 19C54.3822 21.8454 55.0048 24.9071 54.9999 28" stroke="#524A4D" stroke-width="2" stroke-miterlimit="10"/>
<path d="M10.0801 21C11.3856 16.8899 13.8203 13.2296 17.1063 10.4369C20.3923 7.64423 24.3973 5.83162 28.6641 5.20599C32.9309 4.58035 37.2877 5.1669 41.2372 6.89868C45.1866 8.63046 48.5696 11.4377 51.0001 15" stroke="#524A4D" stroke-width="2" stroke-miterlimit="10"/>
<path d="M29 28V33" stroke="#524A4D" stroke-width="2" stroke-miterlimit="10"/>
<path d="M55 28V33" stroke="#524A4D" stroke-width="2" stroke-miterlimit="10"/>
<path d="M51 28V30" stroke="#524A4D" stroke-width="2" stroke-miterlimit="10"/>
<path d="M43 28V30" stroke="#524A4D" stroke-width="2" stroke-miterlimit="10"/>
<path d="M35 28V30" stroke="#524A4D" stroke-width="2" stroke-miterlimit="10"/>
<path d="M25 28V33" stroke="#524A4D" stroke-width="2" stroke-miterlimit="10"/>
<path d="M21 28V30" stroke="#524A4D" stroke-width="2" stroke-miterlimit="10"/>
<path d="M9 28V33" stroke="#524A4D" stroke-width="2" stroke-miterlimit="10"/>
<path d="M17 28V33" stroke="#524A4D" stroke-width="2" stroke-miterlimit="10"/>
<path d="M39 28V33" stroke="#524A4D" stroke-width="2" stroke-miterlimit="10"/>
<path d="M13 28V30" stroke="#524A4D" stroke-width="2" stroke-miterlimit="10"/>
<path d="M63 56V63H56" stroke="#524A4D" stroke-width="2" stroke-miterlimit="10"/>
<path d="M8 63H1V56" stroke="#524A4D" stroke-width="2" stroke-miterlimit="10"/>
<path d="M8 1H1V8" stroke="#524A4D" stroke-width="2" stroke-miterlimit="10"/>
<path d="M56 1H63V8" stroke="#524A4D" stroke-width="2" stroke-miterlimit="10"/>
<path d="M4 5H6" stroke="#A8A0A2" stroke-width="2" stroke-miterlimit="10"/>
<path d="M58 5H60" stroke="#A8A0A2" stroke-width="2" stroke-miterlimit="10"/>
<path d="M4 59H6" stroke="#A8A0A2" stroke-width="2" stroke-miterlimit="10"/>
<path d="M58 59H60" stroke="#A8A0A2" stroke-width="2" stroke-miterlimit="10"/>
<path d="M0 33H64" stroke="#FF7652" stroke-width="2" stroke-miterlimit="10"/>
<path d="M9 44V50" stroke="#A8A0A2" stroke-width="2" stroke-miterlimit="10"/>
<path d="M13 50V58" stroke="#A8A0A2" stroke-width="2" stroke-miterlimit="10"/>
<path d="M21 46V54" stroke="#A8A0A2" stroke-width="2" stroke-miterlimit="10"/>
<path d="M17 40V48" stroke="#A8A0A2" stroke-width="2" stroke-miterlimit="10"/>
<path d="M13 42V48" stroke="#A8A0A2" stroke-width="2" stroke-miterlimit="10"/>
</svg>
