<svg width="64" height="64" viewBox="0 0 64 64" fill="none" xmlns="http://www.w3.org/2000/svg">
<g clip-path="url(#clip0)">
<path d="M32 60C47.464 60 60 47.464 60 32C60 16.536 47.464 4 32 4C16.536 4 4 16.536 4 32C4 47.464 16.536 60 32 60Z" fill="white"/>
<path d="M18 56.24V52H20V57.3C23.7503 59.0789 27.8492 60.0018 32 60.0018C36.1508 60.0018 40.2497 59.0789 44 57.3V52H46V56.24C49.0772 54.4683 51.7916 52.1305 54 49.35C53.64 43.75 48.74 42.82 41 38L40 37L36 41L32 38L28 41L24 37L23 38C15.29 42.82 10.39 43.75 10 49.35C12.2084 52.1305 14.9228 54.4683 18 56.24Z" fill="#73DCE0"/>
<path d="M37 34L32 36L27 34V30H37V34Z" fill="#A8A0A2"/>
<path d="M24 19C23.7348 19 23.4804 19.1054 23.2929 19.2929C23.1054 19.4804 23 19.7348 23 20V23C23 23.2652 23.1054 23.5196 23.2929 23.7071C23.4804 23.8946 23.7348 24 24 24C24.2652 24 24.5196 23.8946 24.7071 23.7071C24.8946 23.5196 25 23.2652 25 23V20C25 19.7348 24.8946 19.4804 24.7071 19.2929C24.5196 19.1054 24.2652 19 24 19Z" fill="#A8A0A2"/>
<path d="M40 19C39.7348 19 39.4804 19.1054 39.2929 19.2929C39.1054 19.4804 39 19.7348 39 20V23C39 23.2652 39.1054 23.5196 39.2929 23.7071C39.4804 23.8946 39.7348 24 40 24C40.2652 24 40.5196 23.8946 40.7071 23.7071C40.8946 23.5196 41 23.2652 41 23V20C41 19.7348 40.8946 19.4804 40.7071 19.2929C40.5196 19.1054 40.2652 19 40 19Z" fill="#A8A0A2"/>
<path d="M31 49H33" stroke="#524A4D" stroke-width="2" stroke-miterlimit="10"/>
<path d="M31 45H33" stroke="#524A4D" stroke-width="2" stroke-miterlimit="10"/>
<path d="M24 17V20C26 20 27 15 27 15C27 15 29 18 32 18H37C37.6291 18.0499 38.235 18.2598 38.7601 18.6099C39.2852 18.9599 39.712 19.4385 40 20V17C40 13 37 10 32 10C30.9104 9.94813 29.8406 10.3047 29 11C29 11 24 11 24 17Z" fill="#736B6D"/>
<path d="M36 41L32 38L28 41L24 37L27 34L32 36L37 34L40 37L36 41Z" fill="#E2DDDF"/>
<path d="M40 37L36 41L32 38L28 41L24 37" stroke="#524A4D" stroke-width="2" stroke-miterlimit="10"/>
<path d="M18 52V56.24C18.65 56.62 19.32 56.98 20 57.3V52H18Z" fill="#524A4D"/>
<path d="M44 52V57.3C44.68 56.98 45.35 56.62 46 56.24V52H44Z" fill="#524A4D"/>
<path d="M40 20V22C39.947 24.4666 39.2581 26.8777 38 29C36 32 34 33 32 33C30 33 28 32 26 29C24.7419 26.8777 24.053 24.4666 24 22V20C26 20 27 15 27 15C27 15 29 18 32 18H37C37.6291 18.0499 38.235 18.2598 38.7601 18.6098C39.2852 18.9599 39.712 19.4385 40 20Z" fill="#E2DDDF"/>
<path d="M58 15.11C62.3894 21.8171 64.0102 29.9638 62.5222 37.8403C61.0342 45.7167 56.5531 52.7106 50.0193 57.3542C43.4854 61.9977 35.407 63.9298 27.4792 62.7451C19.5514 61.5603 12.3908 57.3508 7.5 51" stroke="#524A4D" stroke-width="2" stroke-miterlimit="10"/>
<path d="M4.86 47C1.1175 40.2623 0.0191028 32.372 1.77906 24.8683C3.53901 17.3646 8.03109 10.7856 14.3791 6.41457C20.7271 2.04353 28.4757 0.193957 36.1136 1.22662C43.7514 2.25929 50.7307 6.10014 55.69 12" stroke="#524A4D" stroke-width="2" stroke-miterlimit="10"/>
<path d="M7 56V51H12" stroke="#524A4D" stroke-width="2" stroke-miterlimit="10"/>
<path d="M56 7V12H51" stroke="#524A4D" stroke-width="2" stroke-miterlimit="10"/>
</g>
<defs>
<clipPath id="clip0">
<rect width="64" height="64" fill="white"/>
</clipPath>
</defs>
</svg>
