<svg width="64" height="64" viewBox="0 0 64 64" fill="none" xmlns="http://www.w3.org/2000/svg">
<path d="M59 57H5V23C5 22.7348 5.10536 22.4804 5.29289 22.2929C5.48043 22.1054 5.73478 22 6 22H58C58.2652 22 58.5196 22.1054 58.7071 22.2929C58.8946 22.4804 59 22.7348 59 23V57Z" fill="white"/>
<path d="M37 60H27L25 58V57H39V58L37 60Z" fill="#736B6D"/>
<path d="M6 22H58C58.2652 22 58.5196 22.1054 58.7071 22.2929C58.8946 22.4804 59 22.7348 59 23V57H5V23C5 22.7348 5.10536 22.4804 5.29289 22.2929C5.48043 22.1054 5.73478 22 6 22Z" stroke="#524A4D" stroke-width="2" stroke-miterlimit="10"/>
<path d="M62 62H2L0 60V58H25L27 60H37L39 58H64V60L62 62Z" fill="#A8A0A2"/>
<path d="M56 25H8V54H56V25Z" fill="#FF7652"/>
<path d="M31 51H33" stroke="#524A4D" stroke-width="2" stroke-miterlimit="10"/>
<path d="M35 51H37" stroke="#524A4D" stroke-width="2" stroke-miterlimit="10"/>
<path d="M27 51H29" stroke="#524A4D" stroke-width="2" stroke-miterlimit="10"/>
<path d="M32 41C42.4934 41 51 32.4934 51 22C51 11.5066 42.4934 3 32 3C21.5066 3 13 11.5066 13 22C13 32.4934 21.5066 41 32 41Z" fill="white"/>
<path d="M32 38C40.8366 38 48 30.8366 48 22C48 13.1634 40.8366 6 32 6C23.1634 6 16 13.1634 16 22C16 30.8366 23.1634 38 32 38Z" fill="#73DCE0"/>
<path d="M32 41C42.4934 41 51 32.4934 51 22C51 11.5066 42.4934 3 32 3C21.5066 3 13 11.5066 13 22C13 32.4934 21.5066 41 32 41Z" stroke="#524A4D" stroke-width="2" stroke-linejoin="round"/>
<path d="M32 3V41" stroke="#524A4D" stroke-width="2" stroke-linejoin="round"/>
<path d="M16 22H48" stroke="#524A4D" stroke-width="2" stroke-linejoin="round"/>
<path d="M32 41C37.5228 41 42 32.4934 42 22C42 11.5066 37.5228 3 32 3C26.4772 3 22 11.5066 22 22C22 32.4934 26.4772 41 32 41Z" stroke="#524A4D" stroke-width="2" stroke-linejoin="round"/>
</svg>
