<svg width="24" height="24" viewBox="0 0 24 24" fill="none" xmlns="http://www.w3.org/2000/svg">
<path d="M12 22C17.5228 22 22 17.5228 22 12C22 6.47715 17.5228 2 12 2C6.47715 2 2 6.47715 2 12C2 17.5228 6.47715 22 12 22Z" stroke="#9898AB" stroke-miterlimit="10"/>
<path d="M13.3337 10.6667H10.667V17.3333H13.3337V10.6667Z" fill="#9898AB"/>
<path d="M12.0001 9.61334C12.8911 9.61334 13.6134 8.89103 13.6134 8.00001C13.6134 7.10899 12.8911 6.38667 12.0001 6.38667C11.109 6.38667 10.3867 7.10899 10.3867 8.00001C10.3867 8.89103 11.109 9.61334 12.0001 9.61334Z" fill="#9898AB"/>
</svg>
