<?xml version="1.0" encoding="utf-8"?>
<!-- Generator: Adobe Illustrator 22.1.0, SVG Export Plug-In . SVG Version: 6.00 Build 0)  -->
<svg version="1.1" id="Layer_1" xmlns="http://www.w3.org/2000/svg" xmlns:xlink="http://www.w3.org/1999/xlink" x="0px" y="0px"
	 viewBox="0 0 486.9 294.7" style="enable-background:new 0 0 486.9 294.7;" xml:space="preserve">
<style type="text/css">
	.st0{fill:url(#SVGID_1_);}
	.st1{fill:#243588;}
	.st2{fill:url(#SVGID_2_);}
	.st3{fill:#E50043;}
	.st4{fill:#BD2B0B;}
	.st5{fill:#E1042D;}
	.st6{fill:url(#SVGID_3_);}
	.st7{fill:url(#SVGID_4_);}
	.st8{fill:url(#SVGID_5_);}
	.st9{fill:url(#SVGID_6_);}
	.st10{fill:url(#SVGID_7_);}
	.st11{fill:url(#SVGID_8_);}
	.st12{fill:url(#SVGID_9_);}
	.st13{fill:url(#SVGID_10_);}
	.st14{fill:url(#SVGID_11_);}
	.st15{fill:url(#SVGID_12_);}
</style>
<g>
	<radialGradient id="SVGID_1_" cx="280.5678" cy="229.1511" r="184.4952" gradientUnits="userSpaceOnUse">
		<stop  offset="0" style="stop-color:#00A1E4"/>
		<stop  offset="0.4719" style="stop-color:#243588"/>
	</radialGradient>
	<path class="st0" d="M422.9,162.2c-3.9,0-9.6,0-14.4,0c29.7,59.6,13.2,107.5-41.6,110.5c-33.7,1.9-74.6-13.6-111.7-39.4
		c41.2,31.5,88.5,50.9,126.8,48.7C440.5,278.8,457.2,226.4,422.9,162.2z"/>
</g>
<g>
	<g>
		<path class="st1" d="M202,201.2c0.8,0.5,2,0.9,3.3,0.9c1.6,0,2.4-0.7,2.4-1.8c0-1-0.7-1.6-2.4-2.2c-2.2-0.8-3.7-2-3.7-3.9
			c0-2.2,1.8-3.9,4.8-3.9c1.5,0,2.5,0.3,3.2,0.7l-0.6,2c-0.5-0.3-1.4-0.6-2.7-0.6c-1.6,0-2.2,0.8-2.2,1.6c0,1,0.8,1.5,2.6,2.2
			c2.3,0.9,3.5,2.1,3.5,4c0,2.2-1.6,4-5.1,4c-1.4,0-2.9-0.4-3.7-0.8L202,201.2z"/>
		<path class="st1" d="M215,190.4v7.8c0,2.6,1.1,3.8,2.8,3.8c1.8,0,2.8-1.2,2.8-3.8v-7.8h2.5v7.7c0,4.1-2.1,6-5.4,6
			c-3.1,0-5.1-1.7-5.1-6v-7.7H215z"/>
		<path class="st1" d="M225.3,190.6c0.9-0.2,2.1-0.3,3.8-0.3c1.8,0,3.1,0.4,3.9,1.1c0.8,0.7,1.3,1.7,1.3,3c0,1.3-0.4,2.3-1.1,3
			c-1,1-2.5,1.5-4.2,1.5c-0.5,0-0.9,0-1.2-0.1v5.1h-2.4V190.6z M227.8,196.8c0.3,0.1,0.7,0.1,1.2,0.1c1.8,0,3-0.9,3-2.5
			c0-1.5-1-2.3-2.7-2.3c-0.7,0-1.2,0.1-1.4,0.1V196.8z"/>
		<path class="st1" d="M236.7,190.6c0.9-0.2,2.1-0.3,3.8-0.3c1.8,0,3.1,0.4,4,1.1c0.8,0.7,1.3,1.7,1.3,3c0,1.3-0.4,2.3-1.1,3
			c-1,1-2.5,1.5-4.2,1.5c-0.5,0-0.9,0-1.2-0.1v5.1h-2.4V190.6z M239.1,196.8c0.3,0.1,0.7,0.1,1.2,0.1c1.8,0,3-0.9,3-2.5
			c0-1.5-1-2.3-2.7-2.3c-0.7,0-1.2,0.1-1.4,0.1V196.8z"/>
		<path class="st1" d="M248,190.4h2.5v11.4h5.5v2.1h-8V190.4z"/>
		<path class="st1" d="M259.2,203.8v-5.6l-4.2-7.8h2.8l1.6,3.5c0.5,1,0.8,1.8,1.2,2.7h0c0.3-0.9,0.7-1.7,1.2-2.7l1.6-3.5h2.8
			l-4.5,7.8v5.7H259.2z"/>
	</g>
	<g>
		<path class="st1" d="M281.3,203.4c-0.6,0.3-1.9,0.6-3.5,0.6c-4.3,0-6.9-2.7-6.9-6.8c0-4.4,3.1-7.1,7.2-7.1c1.6,0,2.8,0.3,3.3,0.6
			l-0.5,2c-0.6-0.3-1.5-0.5-2.6-0.5c-2.7,0-4.7,1.7-4.7,4.9c0,3,1.7,4.8,4.7,4.8c1,0,2-0.2,2.7-0.5L281.3,203.4z"/>
		<path class="st1" d="M286,190.4v5.4h5.7v-5.4h2.5v13.4h-2.5v-5.9H286v5.9h-2.5v-13.4H286z"/>
		<path class="st1" d="M300,200l-1.2,3.8h-2.5l4.3-13.4h3.1l4.4,13.4h-2.6l-1.2-3.8H300z M303.8,198.2l-1.1-3.3
			c-0.3-0.8-0.5-1.7-0.7-2.5h0c-0.2,0.8-0.4,1.7-0.6,2.5l-1,3.3H303.8z"/>
		<path class="st1" d="M312.7,190.4v13.4h-2.5v-13.4H312.7z"/>
		<path class="st1" d="M314.8,203.8v-13.4h2.8l3.5,5.8c0.9,1.5,1.7,3.1,2.3,4.5l0,0c-0.2-1.8-0.2-3.5-0.2-5.6v-4.7h2.3v13.4h-2.6
			l-3.5-5.9c-0.9-1.5-1.7-3.1-2.4-4.6l-0.1,0c0.1,1.7,0.1,3.5,0.1,5.7v4.8H314.8z"/>
	</g>
	<g>
		<path class="st1" d="M332.4,201.2c0.8,0.5,2,0.9,3.3,0.9c1.6,0,2.4-0.7,2.4-1.8c0-1-0.7-1.6-2.4-2.2c-2.2-0.8-3.7-2-3.7-3.9
			c0-2.2,1.8-3.9,4.8-3.9c1.5,0,2.5,0.3,3.2,0.7l-0.6,2c-0.5-0.3-1.4-0.6-2.7-0.6c-1.6,0-2.2,0.8-2.2,1.6c0,1,0.8,1.5,2.6,2.2
			c2.3,0.9,3.5,2.1,3.5,4c0,2.2-1.6,4-5.1,4c-1.4,0-2.9-0.4-3.7-0.8L332.4,201.2z"/>
		<path class="st1" d="M350,197.9h-5.1v3.9h5.7v2h-8.1v-13.4h7.8v2h-5.4v3.5h5.1V197.9z"/>
		<g>
			<path class="st1" d="M352.5,190.6c0.9-0.2,2.3-0.3,3.7-0.3c1.9,0,3.2,0.3,4.2,1.1c0.7,0.6,1.2,1.6,1.2,2.7c0,1.7-1.2,2.9-2.5,3.4
				v0.1c1,0.4,1.6,1.3,1.9,2.6c0.4,1.7,0.8,3.2,1.1,3.8h-2.5c-0.2-0.4-0.5-1.5-0.9-3.2c-0.4-1.8-1-2.3-2.4-2.4h-1.2v5.5h-2.4V190.6z
				 M354.9,196.5h1.5c1.7,0,2.7-0.9,2.7-2.2c0-1.5-1-2.2-2.6-2.2c-0.8,0-1.3,0.1-1.5,0.1V196.5z"/>
			<path class="st1" d="M367,203.8l-4.3-13.4h2.7l1.8,6.1c0.5,1.7,1,3.3,1.3,4.9h0c0.4-1.6,0.9-3.2,1.4-4.9l2-6.1h2.6l-4.6,13.4H367
				z"/>
		</g>
		<path class="st1" d="M378.8,190.4v13.4h-2.5v-13.4H378.8z"/>
		<path class="st1" d="M391.1,203.4c-0.6,0.3-1.9,0.6-3.5,0.6c-4.3,0-6.9-2.7-6.9-6.8c0-4.4,3.1-7.1,7.2-7.1c1.6,0,2.8,0.3,3.3,0.6
			l-0.5,2c-0.6-0.3-1.5-0.5-2.6-0.5c-2.7,0-4.7,1.7-4.7,4.9c0,3,1.7,4.8,4.7,4.8c1,0,2-0.2,2.7-0.5L391.1,203.4z"/>
		<path class="st1" d="M400.6,197.9h-5.1v3.9h5.7v2h-8.1v-13.4h7.8v2h-5.4v3.5h5.1V197.9z"/>
		<path class="st1" d="M403.7,201.2c0.8,0.5,2,0.9,3.3,0.9c1.6,0,2.4-0.7,2.4-1.8c0-1-0.7-1.6-2.4-2.2c-2.2-0.8-3.7-2-3.7-3.9
			c0-2.2,1.8-3.9,4.8-3.9c1.5,0,2.5,0.3,3.2,0.7l-0.6,2c-0.5-0.3-1.4-0.6-2.7-0.6c-1.6,0-2.2,0.8-2.2,1.6c0,1,0.8,1.5,2.6,2.2
			c2.3,0.9,3.5,2.1,3.5,4c0,2.2-1.6,4-5.1,4c-1.4,0-2.9-0.4-3.7-0.8L403.7,201.2z"/>
	</g>
</g>
<g>
	<radialGradient id="SVGID_2_" cx="316.836" cy="39.9716" r="204.0648" gradientUnits="userSpaceOnUse">
		<stop  offset="0" style="stop-color:#00A1E4"/>
		<stop  offset="1" style="stop-color:#243588"/>
	</radialGradient>
	<path class="st2" d="M178.4,11.2c41-6.9,93.4,6.5,142.4,33.2C265.9,11.4,205.2-6,158.6,1.9c-56.7,9.5-76.7,53.5-57,108.4
		c4.9-4.9,10.8-8.6,17.4-11C109.1,54.2,129.6,19.4,178.4,11.2z"/>
</g>
<path class="st3" d="M163.4,180.5c-3.7,2.9-7.8,5.2-12.2,6.9c65.9,71,169.4,117.4,240.4,105.5c3.4-0.6,6.6-1.3,9.7-2.1
	C330.3,302.2,225.9,253.4,163.4,180.5z"/>
<path class="st3" d="M369.6,107.2h12.9c-47.1-49.3-112.2-83.1-162.1-80.3c-2.8,0.2-5.4,0.4-8,0.8C261,25.3,324.5,58.8,369.6,107.2z"
	/>
<g>
	<path class="st4" d="M377.3,179.1v-65.6h30c7.6,0,13.4,1.8,17.3,5.3c4,3.5,6,8.6,6,15.2c0,7-2,12.3-5.9,16
		c-3.9,3.7-9.5,5.6-16.9,5.6h-13.6v23.5H377.3z M394.1,142.5h11.1c3,0,5.2-0.6,6.7-1.9c1.4-1.3,2.2-3.3,2.2-6c0-2.6-0.7-4.6-2.2-5.8
		c-1.5-1.3-3.8-1.9-6.8-1.9h-10.9V142.5z"/>
	<path class="st4" d="M438.4,179.1v-65.6h16.9v51.3h31.7v14.2H438.4z"/>
	<g>
		<path class="st4" d="M347.1,179.1v-15.3h-26.8v-12.3l24.4-37.9h17.9v38.6h6.7v11.6h-6.7v15.3H347.1z M347.5,152.6v-24.8l-16,24.8
			H347.5z"/>
	</g>
</g>
<g>
	<path class="st5" d="M407.8,155.7c7.3,0,13-1.9,16.9-5.6c3.9-3.7,5.9-9.1,5.9-16c0-6.6-2-11.7-6-15.2c-4-3.5-9.7-5.3-17.3-5.3h-30
		v44.1h16.9v-2H407.8z M394.1,126.8h10.9c3,0,5.3,0.6,6.8,1.9c1.5,1.3,2.2,3.2,2.2,5.8c0,2.7-0.7,4.7-2.2,6
		c-1.4,1.3-3.7,1.9-6.7,1.9h-11.1V126.8z"/>
	<rect x="438.4" y="113.6" class="st5" width="16.9" height="44.1"/>
	<path class="st5" d="M362.6,152.2v-38.6h-17.9l-24.4,37.9v6.1h49.1v-5.4H362.6z M347.5,152.6h-16l16-24.8V152.6z"/>
</g>
<g>
	<path class="st1" d="M288.7,179.1h-16c-0.2-0.8-0.3-1.6-0.5-2.4c-0.1-0.8-0.3-1.7-0.4-2.5c-2.2,2.2-4.6,3.9-7.1,4.9
		c-2.5,1.1-5.3,1.6-8.3,1.6c-4.7,0-8.4-1.3-11.1-3.9c-2.7-2.6-4.1-6-4.1-10.4c0-4,1.1-7.3,3.2-9.8c2.1-2.5,5.3-4.3,9.6-5.3
		c2.4-0.5,5.4-1.1,9.1-1.7c5.5-0.9,8.2-2.2,8.2-3.9v-1.2c0-1.4-0.5-2.5-1.6-3.2c-1.1-0.7-2.6-1.1-4.7-1.1c-2.3,0-4.1,0.5-5.4,1.4
		c-1.3,0.9-2.2,2.3-2.5,4h-14.5c0.8-5.4,3-9.5,6.8-12.1c3.8-2.7,9.1-4,16-4c4.3,0,7.9,0.5,10.9,1.6c2.9,1,5.3,2.6,6.9,4.7
		c1.2,1.5,2,3.3,2.4,5.4c0.5,2.1,0.7,5.4,0.7,10.1v18.5c0,2.2,0.2,3.9,0.6,5.1c0.4,1.2,1,2.1,1.8,2.4V179.1z M271.4,156.4
		c-1.2,0.8-3.4,1.5-6.5,2.2c-1.5,0.3-2.6,0.6-3.4,0.8c-1.9,0.5-3.3,1.2-4.1,2.1c-0.8,0.8-1.2,2-1.2,3.4c0,1.7,0.5,3.1,1.6,4.2
		c1.1,1.1,2.5,1.6,4.3,1.6c2.7,0,4.9-0.8,6.7-2.4c1.7-1.6,2.6-3.6,2.6-6.2V156.4z"/>
	<linearGradient id="SVGID_3_" gradientUnits="userSpaceOnUse" x1="264.5071" y1="173.7756" x2="264.5071" y2="117.3605">
		<stop  offset="0" style="stop-color:#00A1E4"/>
		<stop  offset="1" style="stop-color:#243588"/>
	</linearGradient>
	<path class="st6" d="M283.2,135.9c-1.7-2.1-4-3.7-6.9-4.7c-3-1-6.6-1.6-10.9-1.6c-6.9,0-12.2,1.3-16,4c-3.8,2.7-6,6.7-6.8,12.1
		h14.6c0.3-1.8,1.2-3.1,2.5-4c1.3-0.9,3.1-1.4,5.4-1.4c2.1,0,3.7,0.4,4.7,1.1c1.1,0.7,1.6,1.8,1.6,3.1v1.1c0,1.7-2.7,3-8.2,3.9
		c-3.7,0.6-6.7,1.2-9.1,1.7c-4.3,1-7.5,2.8-9.6,5.3c-0.3,0.3-0.5,0.7-0.8,1h24.4c1.4-0.4,2.5-0.9,3.3-1.3v1.3h15v-6.4
		c0-4.6-0.2-7.9-0.7-10C285.2,139.2,284.4,137.4,283.2,135.9z"/>
</g>
<g>
	<path class="st1" d="M182.9,113.6h15.7v23.2c1.6-2.5,3.6-4.4,6.1-5.6c2.5-1.3,5.3-1.9,8.5-1.9c5.9,0,10.8,2.4,14.6,7.2
		c3.8,4.8,5.7,11,5.7,18.6c0,7.6-1.9,13.7-5.7,18.3c-3.8,4.7-8.7,7-14.8,7c-3.1,0-5.8-0.6-8.2-1.9c-2.3-1.2-4.4-3.2-6.2-5.8v6.4
		h-15.8V113.6z M217,154.4c0-4-0.8-7.1-2.5-9.4c-1.6-2.3-3.9-3.4-6.7-3.4c-3,0-5.3,1.1-7,3.4c-1.7,2.2-2.5,5.4-2.5,9.4
		c0,4.4,0.8,7.7,2.3,10c1.6,2.3,3.9,3.4,6.9,3.4c3,0,5.4-1.2,7-3.5C216.2,162.1,217,158.7,217,154.4z"/>
	<linearGradient id="SVGID_4_" gradientUnits="userSpaceOnUse" x1="208.2033" y1="182.9471" x2="208.2033" y2="94.4293">
		<stop  offset="0" style="stop-color:#00A1E4"/>
		<stop  offset="1" style="stop-color:#243588"/>
	</linearGradient>
	<path class="st7" d="M213.3,129.4c-3.2,0-6,0.6-8.5,1.9c-2.5,1.3-4.5,3.2-6.1,5.7v-23.2h-15.8v44h15.8c-0.1-1-0.2-2-0.2-3.2
		c0-4,0.8-7.2,2.5-9.4c1.7-2.2,4-3.4,7-3.4c2.8,0,5,1.1,6.7,3.4c1.6,2.3,2.4,5.4,2.4,9.3c0,1.1-0.1,2.2-0.2,3.2h16.4
		c0-0.8,0.1-1.6,0.1-2.5c0-7.6-1.9-13.8-5.7-18.6C224,131.8,219.2,129.4,213.3,129.4z"/>
</g>
<path class="st1" d="M296.5,179.1v-65.6h15.8v65.6H296.5z"/>
<linearGradient id="SVGID_5_" gradientUnits="userSpaceOnUse" x1="304.5097" y1="182.9471" x2="304.5097" y2="94.4293">
	<stop  offset="0" style="stop-color:#00A1E4"/>
	<stop  offset="1" style="stop-color:#243588"/>
</linearGradient>
<rect x="296.6" y="113.7" class="st8" width="15.8" height="44"/>
<g>
	<path class="st1" d="M70.5,179.1v-65.6h15.8v65.6H70.5z"/>
	<linearGradient id="SVGID_6_" gradientUnits="userSpaceOnUse" x1="78.4407" y1="182.9471" x2="78.4407" y2="94.4293">
		<stop  offset="0" style="stop-color:#00A1E4"/>
		<stop  offset="1" style="stop-color:#243588"/>
	</linearGradient>
	<rect x="70.5" y="113.7" class="st9" width="15.8" height="44"/>
</g>
<g>
	<path class="st1" d="M52.1,179.1l-1.3-8.5c-2.5,3.5-5.4,6-8.8,7.7c-3.4,1.7-7.4,2.5-11.9,2.5c-4.2,0-8.2-0.8-11.8-2.3
		c-3.6-1.5-6.8-3.8-9.5-6.8c-2.9-3.1-5.1-6.7-6.5-10.9c-1.5-4.2-2.2-8.8-2.2-13.7c0-10.7,3.1-19.3,9.2-25.8
		c6.1-6.5,14.3-9.7,24.5-9.7c7.7,0,14,1.9,19,5.8c5,3.9,8.2,9.3,9.5,16.2h-16c-1.1-2.8-2.7-4.9-4.9-6.4c-2.2-1.4-4.9-2.1-8.1-2.1
		c-4.8,0-8.7,2-11.7,5.9c-3,3.9-4.5,9.1-4.5,15.6c0,6.4,1.5,11.4,4.4,15.2c2.9,3.8,6.8,5.6,11.7,5.6c3.9,0,7.2-1,9.7-3
		c2.6-2,4.2-4.8,4.8-8.3H33.1v-12.6h29.5v35.6H52.1z"/>
	<linearGradient id="SVGID_7_" gradientUnits="userSpaceOnUse" x1="47.8466" y1="165.7896" x2="47.8466" y2="137.3276">
		<stop  offset="0" style="stop-color:#00A1E4"/>
		<stop  offset="1" style="stop-color:#243588"/>
	</linearGradient>
	<path class="st10" d="M33.1,156.2h14.5c-0.1,0.5-0.2,1-0.3,1.5h15.3v-14.1H33.1V156.2z"/>
	<linearGradient id="SVGID_8_" gradientUnits="userSpaceOnUse" x1="31.1194" y1="184.0544" x2="31.1194" y2="91.6609">
		<stop  offset="0" style="stop-color:#00A1E4"/>
		<stop  offset="1" style="stop-color:#243588"/>
	</linearGradient>
	<path class="st11" d="M41.2,127.4c2.2,1.4,3.8,3.6,4.9,6.4h16.1c-1.3-6.9-4.5-12.3-9.5-16.2c-5-3.9-11.3-5.8-19-5.8
		c-10.2,0-18.3,3.2-24.4,9.7c-6.1,6.5-9.2,15-9.2,25.8c0,3.7,0.4,7.2,1.2,10.5h17.8c-1.3-3.1-2-6.8-2-11.1c0-6.4,1.5-11.6,4.4-15.5
		c3-3.9,6.8-5.9,11.6-5.9C36.3,125.2,39,126,41.2,127.4z"/>
</g>
<g>
	
		<linearGradient id="SVGID_9_" gradientUnits="userSpaceOnUse" x1="89.1153" y1="50.278" x2="126.6525" y2="61.3183" gradientTransform="matrix(0.9999 1.540000e-02 -1.540000e-02 0.9999 2.0086 -1.7803)">
		<stop  offset="0" style="stop-color:#00A1E4"/>
		<stop  offset="1" style="stop-color:#243588"/>
	</linearGradient>
	<path class="st12" d="M125.6,18.8c-7.8,5.1-14,11.6-18.5,19.2c-5.7,9.6-8.5,20.9-8.5,33.4c0,7.6,1.1,15.7,3.2,24.1
		C112.7,92.8,90.7,51.6,125.6,18.8z"/>
</g>
<g>
	<linearGradient id="SVGID_10_" gradientUnits="userSpaceOnUse" x1="446.4657" y1="236.3378" x2="415.1869" y2="227.6488">
		<stop  offset="0" style="stop-color:#00A1E4"/>
		<stop  offset="1" style="stop-color:#243588"/>
	</linearGradient>
	<path class="st13" d="M429.2,252.1c4.6-8.2,6.9-18,6.9-28.9c0-13-3.3-27.5-9.6-42.9c18.1,65.8-17,80.8-25.5,93.8
		C413.7,270.1,423.3,262.7,429.2,252.1z"/>
</g>
<g>
	<radialGradient id="SVGID_11_" cx="131.4125" cy="130.7926" r="64.5209" gradientUnits="userSpaceOnUse">
		<stop  offset="0.1894" style="stop-color:#00A1E4"/>
		<stop  offset="0.6344" style="stop-color:#243588"/>
		<stop  offset="0.8811" style="stop-color:#00A1E4"/>
	</radialGradient>
	<path class="st14" d="M175,143.5c0,22.3-18.1,40.4-40.4,40.4c-22.3,0-40.4-18.1-40.4-40.4c0-22.3,18.1-40.4,40.4-40.4
		C156.9,103.1,175,121.2,175,143.5z"/>
	<radialGradient id="SVGID_12_" cx="136.61" cy="121.5751" r="54.1081" gradientUnits="userSpaceOnUse">
		<stop  offset="0.1573" style="stop-color:#FCFDF8"/>
		<stop  offset="0.2093" style="stop-color:#FAFCF5"/>
		<stop  offset="0.2713" style="stop-color:#F4F8EA"/>
		<stop  offset="0.3385" style="stop-color:#EBF2D8"/>
		<stop  offset="0.4093" style="stop-color:#DFEABD"/>
		<stop  offset="0.483" style="stop-color:#CEDF98"/>
		<stop  offset="0.5591" style="stop-color:#B7D167"/>
		<stop  offset="0.6358" style="stop-color:#9AC32B"/>
		<stop  offset="0.6476" style="stop-color:#95C11F"/>
		<stop  offset="1" style="stop-color:#FCFDF8"/>
	</radialGradient>
	<path class="st15" d="M153.7,107.9c-0.4-0.2-0.7-0.4-1.1-0.5l0.2,0.3L153.7,107.9z M161.4,136.8l-0.1-0.3l-0.3-0.1l-0.4-0.8
		l-0.1-0.6l-0.4,1l0.2,0.4v0.7l-0.2,0.3l0.2,0.5l0.2,0.4v0.5l-0.2,0.6v0.6l0.2,0.7v0.7c0,0,0,0.2,0,0.7c0,0.5-0.2,0.7-0.2,0.7
		l-0.3,0.4c0,0,0,0.4,0.3,0.3c0.3-0.1,0.4,0.2,0.4,0.2l0.4,0.1h0.6l0.4-0.2l-0.2-0.7l0.5-0.6v-0.5l-0.4-0.6l0.3-0.5l0.3-0.6v-0.7
		l-0.1-0.5l-0.5-0.5l-0.8-0.5l0.1-0.6L161.4,136.8z M149,110.9l0.7,0.8h2.3l-0.3-0.8h-0.6c0,0,0-0.5-0.1-0.7c-0.1-0.3-0.3,0-0.3,0
		h-0.9l0.2,0.7l-0.1,0.4L149,110.9z M139.3,103.9l0.5,0.5h1l0.6,0.7l0.8-0.1l1.1-0.6l-1.1-0.3l-0.4,0.2l-0.3-0.2l-0.1-0.3l-1.1-0.1
		v-0.2l-0.8,0.1l-0.4-0.2l-1,0.3l0.3,0.1H139.3z M130.2,108.9l1,0.6l-0.8,1h1.4l0.8-0.3l0.6-0.1l0.3-0.6V109l-0.3-0.4v-1l0.3-1
		l-0.3-0.6l-0.4-0.4l-0.7,0.1l-0.6,0.6l0.3,1l0.4,0.8v0.6l-1.3-0.7l-0.4-1.1l-0.6-0.6v1l0.3,1V108.9z M134.7,110.4
		c0,0,0.1-0.1,0.6-0.3c0.4-0.1,1.3-0.6,1.3-0.6l1.4-0.6l1.3,1.4l-1.5,1.3l2-0.6l-0.3,0.6c0.8,0,1.4,0,1.4,0l-0.3,1
		c0,0-0.3,0.4,0.6,0.3c0.8-0.1,0.8-0.1,0.8-0.1l0.1,1.3c0,0-0.7,0-0.1,0.6c0.6,0.6,1,0.7,1,0.7s0.3,0.4,0.7,0.6
		c0.4,0.1,1.1,0.1,1.1,0.1l0.8,1.1l0.7,0.1l1.4-0.1v-0.4l-0.7-1l0.1-0.7l-0.6-0.7H146l0.6-0.7l0.1-0.4c0,0,0-0.1,0-0.8
		c0-0.7-0.6-1.1-0.6-1.1l0.6-1l-0.3-1.1h-1.1c0,0,0.4-1.3-0.1-0.8c-0.6,0.4-1.3,1-1.3,1v-0.4l-0.3-1.1c0,0-0.1-0.3-0.6-0.4
		c-0.4-0.1-2.1-0.7-2.1-0.7l-1.4-0.8l-1.7-0.6l-0.8-0.7l-0.6,0.6l-0.8-0.3h-1.8l0.8,0.4l0.3,0.4l-0.4,0.6l-0.1,0.7l0.3,0.6l-0.7,1.4
		l-0.6,0.6h1.1L134.7,110.4z M157.1,116.3l0.4,0.3l0.6,0.7l0.6,0.6l1,0.6l0.3,0.8l0.8,0.4l0.4,0.7l1.1,0.4l0.6,0.4l1,0.1l0.1-1.1
		l0.1-0.4l-0.4-0.7l0.7-0.8l0.3-1.3l-1-0.3l-0.7-0.4l-0.6-0.6v-0.6l-0.1-0.7l-1.3-1.3l-0.4-0.1c0,0-0.1-0.4-0.6-0.6
		c-0.4-0.1-0.6,0-0.6,0l-0.6-0.8h-1.1c0,0-0.6,0-1,0l0.7,0.4l0.3,0.4h0.6l2,1.1l0.6,0.8l-0.7-0.4l0.1,0.6c0,0,0,0-0.6,0
		c-0.6,0-0.7,0-0.7,0l-0.2-0.4l-0.2-0.3l-0.1,0.4h-0.6c0,0-0.6-0.3-1-0.7c-0.4-0.4-0.3-0.4-0.3-0.4H156l0.1,0.7l-0.4,0.1l-0.4,0.8
		l1.1,1L157.1,116.3z M124.9,159.7c0.3,0.4,0.8,1,0.8,1l0.7,0.4l0.7,0.6l1.5,0.4l0.6-0.3l0.3,0.4l1.7,0.1v0.8l0.7,0.7l0.4,0.1
		c0,0,0.3-1.1,0.4-0.4c0.1,0.7,0.3,1.1,0.3,1.1l0.7,0.3h0.7l0.1,0.4c0,0,0.3,0.6,0.7,0.6c0.4,0,0.4,0,0.4,0s0.7-0.4,1,0
		c0.3,0.4,0.3,0.4,0.3,0.4l1.4,0.1l0.4-1.1l-2.4-0.3h-0.8l-0.7-0.8l-0.2-0.8l0.2,0.1l0.5,0.6v0.3l0.4,0.1l0.7,0.2h0.9l0.5-0.2
		l0.8-0.5h0.7l0.7,0.7l0.5,0.2l0.1-0.3v-0.4l-0.1-0.5l-0.6-0.4l-0.3-0.5c0,0-0.7,0-1.2-0.1c-0.5-0.1-0.6-0.4-0.6-0.4
		s-0.8-0.3-1.2-0.2c-0.3,0.1-0.3,0.1-0.3,0.1l-0.7-0.1c0,0-0.3-0.2-0.8-0.2c-0.2,0-0.3,0.1-0.3,0.2l-0.2-0.7l-0.4-0.4l-1.1-0.3
		l-1-0.1c0,0,0.3-0.6-0.6-0.7c-0.8-0.1-0.8-0.1-0.8-0.1l-0.8-0.4l0.4-1l-0.1-0.6l0.6-0.4l-0.1-0.8h-0.4l0.7-0.7l0.1-0.8l-1.3-0.3
		l-0.7,0.1l-0.1,0.6l-0.6,0.6l-0.8,0.7l-0.8,0.3l-1.3,0.6l-0.6-0.3l-1.4-0.8v-0.6l-1.4-1l0.4-0.8v-0.6l0.3-0.7l-0.1-0.7v-0.7
		l0.3-0.6l-0.6-1.1l0.3-0.7l0.7-0.3c0,0,0.3,0,0.4-0.6c0.1-0.6,0.1-0.6,0.1-0.6l1.1-0.7c0.6,0,0.6,0,0.6,0l0.4,0.3h0.6l1-0.3h0.4
		v0.4l0.4,0.3l1.3-0.3l0.3-0.8l0.6,0.6h1.1l0.8-0.7c0,0-0.6,0.7,0.7,0.7c1.3,0,1.3,0,1.3,0l-0.8,1.7l0.8,0.1l0.4,0.6l-0.1,0.6
		l0.8,0.6l-0.1,0.7l0.4,0.4l0.8-0.4l0.4-1.7l-1-0.8l0.1-1l-0.7-1.4c0,0-0.3-0.4,0-0.8c0.3-0.4,0.8-0.7,0.8-0.7l0.7-0.4l-0.8-0.3
		c0,0,0.1-0.7,0.7-0.7c0.6,0,0.6,0,0.6,0s-1.1-0.6-0.6-0.6c0.6,0,1.8,0,1.8,0l-0.7-0.6l1-0.4l-0.6-0.7l0.7-0.6l-0.4-0.4v-0.8
		c0,0-0.7-1.8,0-1.1c0.7,0.7,0.7,1.3,0.7,1.3v-0.6l0.1-0.6v-0.7l0.7-0.6l-0.7-0.7l0.7-0.3l0.6,0.4l1-0.3l-0.7-0.6c1-0.1,1-0.1,1-0.1
		v-1.1l0.3-1l-0.4-0.3h1.3l0.4-1.4c0.6-0.1,0.6-0.1,0.6-0.1l0.1,1c0,0,0.3,0.7,0.7,0.6c0.4-0.1,1.1-0.8,1.1-0.8l0.3-0.7l0.4-0.1
		l0.3-0.5l0.4-0.9l-1.3,0.8l-0.3-0.4l-0.3-0.6l-0.7,0.7l-0.3-0.4l-1,0.1v-0.7l0.1-0.8v-0.6H143l-0.6,0.3l-0.7,1l-0.3,0.8l-0.1-0.7
		c0,0-0.1-0.4,0-0.8c0.1-0.4,0.1-0.4,0.1-0.4l0.3-1.1l1.7-0.3l0.7-0.3l0.1,0.6v0.7l0.7-0.3v-0.8l0.6-0.4c0,0,0.3-0.3,0.6-0.7
		c0.3-0.4,0.3-1.1,0.3-1.1l0.7,1l-0.3,1l-0.1,0.7l-0.1,0.8h0.6c0,0-0.1,0.8,0.6,0.7c0.7-0.1,0.7-0.1,0.7-0.1l0.8-0.7l0.3,1l0.6-0.1
		c0.6,0.7,0.7-0.6,0.7-0.6l-0.1-0.6H150l-0.4-0.7c0,0-0.1-0.4-0.6-0.4c-0.4,0-1.3,0.4-1.3,0.4l0.3-0.8l-0.6-1.3l-0.6-0.8l-0.6-0.6
		l-1.5-0.4l-0.6,0.1c0,0-0.6,0.3-0.7-0.3c-0.1-0.6-0.6-1-0.6-1l-0.3-0.6l-1.7-1.4l-0.4-0.7l-0.4,1v1.1l-0.4-0.4l-1-1.1l-0.4-0.3
		l-1.4-0.6c0,0,0.3,0.3-0.6,0c-0.8-0.3-1.4-0.3-1.4-0.3l-1.1-0.6l-0.6,1.5l1,0.1c0,0,0.4-0.4,0.4,0c0,0.4-0.1,1.4-0.1,1.4l0.4,0.3
		c0,0,0.1-0.3,0.3,0.4c0.1,0.7,0.3,1.1,0.3,1.1l-0.1,0.8l-0.7,0.3c-0.3,0.7,0.8,1.8,0.8,1.8l-0.7,0.6l-1.4-0.3l-0.1-0.4v-1.5
		l-1.4,0.6l-0.4,0.1l-0.1-0.6l-1.1-1.4l-0.8,0.1l-1,0.4l-0.6-0.7v-0.8l-1.1-0.1c0,0,0.1-1.5,0.6-1.8c0.4-0.3,1-0.8,1-0.8l0.4-0.3
		l0.6-0.4c0,0-0.3-0.7,0.3-0.7c0.6,0,0.6,0,0.6,0s0.6,0.7,1,0.6c0.4-0.1,0.6,1,0.6,1l0.7-0.8l-0.1-0.4h0.4l-1.1-0.6
		c0,0-0.4,0-0.1-0.4c0.3-0.4,0.8-0.6,0.8-0.6l0.4-0.3l-0.4-1l-0.1-0.7l0.6-0.4c0,0-1.3,0-0.6-0.4c0.7-0.4,2-0.6,2-0.6l0.4,0.6
		l0.7,0.4c0.1,0.4,0.1,1,0.1,1l-0.8-0.1c1.1,0.6,1.3,1,1.3,1l-0.3,0.4h-0.7l-0.4,0.1v0.8h0.8l0.8-0.4c0,0,0.6-0.7,0.6,0
		c0,0.7,0.1,1.3,0.1,1.3s0.4-0.1,1.3,0.1c0.8,0.3,1.4,0.3,1.4,0.3l-0.6-0.7c0,0-1.3-0.6-0.3-0.4c1,0.1,1,0.1,1,0.1l-0.6-0.7
		l-0.8-0.1l-0.3-0.8l1-0.3l0.4,0.1l0.1-0.4l-0.7-0.6l-0.8-0.1l-0.7-0.6l-1-0.6l-0.1-0.4l-0.8-0.3l-1-0.6l-0.3-1c0,0-1-1.4-1-0.4
		c0,1,0.4,1.5,0.4,1.5l-0.8-0.4l-0.4-0.7l-0.7,1v0.6l-0.4-0.8l-0.4,0.1l0.1,1l0.6,0.4l0.1,0.6l-0.4,0.4l-0.8-0.4l-0.3-0.4l-0.1-0.7
		h-1.1l0.3,0.8l0.3,0.4l0.1,0.4l-0.7,0.1l-0.1-1L128,114l-0.2-0.1l-1.5-0.4l1.1,1.8h-1.3l-0.4-0.1v-1c0.1-0.7,0.7-2,0.7-2h-1.3
		l-0.6-0.1l-1-0.4c0,0,0.6-1.4-0.6-0.7c-1.1,0.7-1.1,0.7-1.1,0.7l0.3,0.4h0.7v0.8l-0.4,0.1c0.7,0.4,1.1,0.6,1.1,0.6h0.6
		c0,0-0.1,0.1,0,0.8c0.1,0.7,0.1,1.3,0.1,1.3h-0.8l-0.8-0.4l-0.6-0.7v-0.6l-0.3-0.6l-0.4-0.4l-1.5,0.3l0.3-1.7l-0.6,0.6
		c0,0,1.5-1.8,0-0.6c-1.5,1.3-1.1,0-1.1,0l0.1-0.4l-1,0.4l0.4-0.8c-0.3-1.4-0.3-1.8-0.3-1.8l-1.1,0.1l-0.6-0.1l-0.7-0.4l-1.4,1
		l-0.1,0.4H113l-0.8,0.4v0.7l-0.6,0.6h-1.1l-0.7,0.7l-0.3,0.6l-1,0.4l0.7,0.7l-0.7,0.7h-0.7v0.4l-1,0.4h-1.4l-0.1,0
		c-0.1,0.1-0.1,0.1-0.2,0.2l0.4,0.4l0.6-0.1l1.5-0.1c0,0,0.3,0,0.8-0.3c0.6-0.3,1.1-0.7,1.1-0.7l0.6-0.4h1.1l-0.7,1.4h0.8l0.3,0.7
		l-0.3,1.1l0.4,0.3v0.6L111,120c0.6,0.7,0.6,0.7,0.6,0.7l-0.7,1.8l1,0.6l-0.4,0.7L111,124l-0.1,1l-0.6,0.6l0.3,0.8l0.1,1l0.4-1.1
		l0.1,1.4l-0.3,0.8l-0.4-0.4l-0.3,0.7l-0.4,0.7l-1,0.6l0.3,0.8l-0.6,0.7v1l-0.6,0.8l-1,0.8l0.7,1.1l-0.1,1c0,0-0.1,0.4,0.1,1
		c0.3,0.6,0.4,1,0.4,1l0.1,0.4c0,0,0,0.1,0,0.6c0,0.4,0.8,1.5,0.8,1.5l0.3,1.5l0.3,1.3c0,0-0.1,1,0.3,1.1c0.4,0.1,0.6,1,0.6,1
		l-0.4,0.8c0,0,0,1.3,0.7,1.5c0.7,0.3,0.6,1.1,0.6,1.1l0.1,0.7l0.4,0.1l0.4,0.4l0.2,0.7l0.2-2l-1.3-1.5V147l-0.4-0.8l0.3-1l-0.1-1.5
		l0.4-0.1l0.1,1.3c0,0-0.4,0.8,0,1.1c0.4,0.3,1,0.7,1,0.7v0.6l0.1,1l0.7,0.6v0.7l0.4,0.6c0,0,0.1-0.1,0.6,0.4
		c0.4,0.6,0.4,0.6,0.4,0.6l0.3,0.8v1.4l0.3,1l-0.1,1l0.7,0.7h0.4l0.4,0.8v0.4l1.8,0.1v0.6l1,0.3c0.4,0.6,0.7,1,0.7,1l1.8,0.4h0.8
		v0.4L124.9,159.7z M169.7,123.5l-0.3,0.6l-0.4-0.3l-1-1l-0.8-1.1l-0.8-0.7l-0.8-0.1l0.3,0.7l-0.8,0.6l-0.6,0.6l-0.4,0.7l-0.6-0.3
		l-0.3-0.4h-0.8l-0.1-0.6l-0.6-0.3l-0.4-0.2l-0.8-0.4l0.7,0.8l0.1,0.6l0.6,0.1v1l0.4,0.6v0.6l0.4,0.6l0.1,0.7l0.6,0.4l0.1,0.4
		l0.6,0.4l0.4,0.6v0.8l1,0.1v1l0.7,0.4v0.8l0.1,0.4l0.3,1.7l0.1,1.1l-0.1,0.8l-0.4,0.6l-0.4-0.1l0.4,0.8l-0.8,0.1v0.8l-0.4,1.5
		l0.4,0.4l0.1,0.8l0.4,1.3c0,0,0,0,0.1,0.6c0.1,0.6,0.6,0.4,0.3,1.3c-0.3,0.8-0.3,0.8-0.3,0.8l-0.7,1c0,0.4,0.4,1,0.4,1h0.4
		l-0.1,0.7l-0.3,0.7l-0.1,1.1l-0.3,0.7l-0.1,1l0.1,0.6l0.1,0.7l-0.1,0.4l-0.1,1.3l0.6,0.4l0.3,0.6l0.3,0.7l-0.3,0.8l0.7,0.3l0.4-0.8
		l0.4-1h0.7l0.3-0.4c0,0,0.1-0.7,0.6-0.7c0.4,0,0.8,0,0.8,0l1-1v-0.6c0,0,0.1-0.3,0.6-0.4c0.4-0.1,1.4-0.7,1.4-0.7s0,0.1,0.3-0.4
		c0.3-0.6,0.4-1,0.4-1v-1l0.6-1l0.4-1.7v-0.7l0.6-1.1c0,0,0-0.1,0-0.1C175,136.2,173.1,129.4,169.7,123.5z M169.4,163l-0.7,0.6
		l-1.3-0.2l-0.5,0.6c0,0-0.1,0.1-0.4,0.4c-0.3,0.3-0.3,0.3-0.3,0.3s-0.4,0.5-0.4,0.2c0-0.3-0.1-0.7-0.1-0.7l-0.7,0.1l-1.2,0.1
		l-0.3,0.6l-0.6-0.3l-1.1,0.3l-0.2,0.7l0.7,0.1l-0.2,0.7h-0.4l-0.9,0.1l-0.3-0.6l0.5-0.6l0.2-0.6l0.4-0.4l0.2-0.5
		c0,0,0.6-0.5,0.3-0.6c-0.3-0.1-0.3-0.1-0.3-0.1l-0.3-0.5l-1-0.2c0,0,0.2-0.4-0.1-0.4c-0.3,0-1.4,0.4-1.4,0.4l-0.5,0.4l-0.9,0.5
		h-0.8l-0.4-0.6l-0.5-0.2l-0.4-0.2l-0.1-0.3l-1.2,0.3l-0.6-0.4l0.4-0.9c0,0,0.4-0.3-0.1-0.3c-0.5,0-2.2,0.7-2.2,0.7s0.2,0.4-0.3,0.6
		c-0.5,0.2-2,0.5-2,0.5c-0.5,0.1-1.5,0.3-1.5,0.3l-0.2-0.5l-0.3-0.6H146l0.1,0.4l-0.4,0.3l-0.1,1l-0.4,0.3l-0.6-0.2l-0.2-0.6
		l-0.2-0.5l-1.4,0.4l-0.2,0.7l-1,0.4v0.4l-0.7,0.6l-0.6,0.5l-0.4-0.2c0,0-0.3-0.1,0.3,0.7c0.6,0.7,0.7,1.6,0.7,1.6v0.4l0.5,0.7
		l-0.3,0.6l-0.6,0.5h-0.3l-0.5,0.4l0.2,0.5l-1.1,0.7l0.2,0.4l-0.6,0.4h-0.4c0,0-0.4,0.3-0.1,0.5c0.3,0.2,0.7,0.3,0.7,0.3l0.1,0.4
		v0.5l-0.2,0.4l-0.6,0.3l-0.5,0.4l-0.1,0.4l0.8,0.1l0.5,0.2v0.8h1l0.1,0.4l0.2,0.7l0.6,0.2l0.2,0.9c0.7,0.5,0.7,0.5,0.7,0.5l0.3,0.2
		l0.2,0.5h2.1l-0.3,0.7h1.7l0.7,0.4c0,0,0,0.4,0.1,0.7c0.1,0.3,0.1,0.3,0.1,0.3l-0.4,0.7c10.3-3,18.8-10,23.9-19.1l0-0.2H169.4z
		 M163.4,116.2h0.7l0.6,0.4c-0.6-0.6-1.1-1.2-1.7-1.8l0,0L163.4,116.2z M167.2,120.9c0,0,0.6,0.3,1,0.3c0.4,0,0.3,1.4,0.3,1.4
		l0.8,0.4c0,0,0.1,0,0.1-0.1c-0.8-1.4-1.8-2.8-2.8-4.1l0.1,0.8L167.2,120.9z M127,109.4l0,0.3l0.1-0.7L127,109.4z M138.3,157.2
		l0.3,0.3l0.6,0.2c0,0,1.4-0.3,0.8-0.4c-0.6-0.1-1-0.1-1-0.1H138.3z M141.2,155.5l0.7-0.1c0,0-0.1-0.3-0.3-0.6
		c-0.2-0.3-0.8-0.2-0.8-0.2s0,0-0.2-0.4c-0.2-0.4-0.7,0-0.7,0l-1.1-0.1l-0.6-0.5l-0.5-0.3l-0.7,0.2h-0.6l-0.4-0.5l-1.5,0.2l0.7,0.5
		l0.7,0.5v0.3l0.7-0.2v0.3l0.6,0.1l0.5,0.1l0.6,0.1l0.7,0.7l0.5,0.2l0.8-0.1L141.2,155.5z M125.2,110.8l0.5,0.1h1.8l-0.1-0.4
		l-1.4-0.1v-0.7h-0.7l-0.7,0.1l0.7,0.3V110.8z M135.4,154.5l-0.6-0.2l-0.9,0.4l0.7,0.3L135.4,154.5z M134,153.6l-0.3,0.2l-0.6,0.4
		l-0.1,0.3c0,0,0.7-0.5,1-0.5c0.4,0,0.4,0,0.4,0L134,153.6z M139.6,180.6l-1-0.1l-0.7-0.2l-0.7-0.4l-0.4-0.2l0.6-0.5l0.4-0.4
		l-0.2-0.5l0.8-0.5c0,0-0.6,0.3-0.1-0.4c0.5-0.7,0.5-0.7,0.5-0.7s-0.2-0.8-0.6-0.8c-0.4,0-0.8-0.2-0.8-0.2l-0.5-0.2v-1.3l1-0.4
		l0.3-0.2l-0.7-0.5l-0.6-0.1v-0.7l0.5-0.7l0.6-0.4l0.7-0.7l-0.4-0.5l0.7-0.5l0.5-0.5l0.5-0.3v-0.6l0.2-0.6l-0.2-0.4l-0.2-0.5
		l-0.2-0.3l-0.7-0.4l-1.3,0.4l-1.1-0.3l-0.2-0.3h-0.6l-0.7,0.1l-0.5-0.6l-0.6-0.4h-0.5l-0.7-0.4l-0.1-0.3l-0.7-0.1l-0.7-1h-0.6
		l-1.4,0.1l-0.2,0.3l-0.3,0.4h-1.3l-0.9,0.3v0.7l-0.6,0.2l-0.4,0.3c0,0-0.4,0-0.1,0.5c0.3,0.5,0.3,0.5,0.3,0.5l-0.8,0.8l0.2,0.6
		c0,0,0.2,0,0,0.3c-0.2,0.3-0.6,0.6-0.6,0.6l0.1,1.4v0.6c0,0-0.6,0.7,0.2,0.3c0.7-0.5,0.7-0.5,0.7-0.5l0.5,0.2l0.4-0.2l0.6,0.5
		c0,0,0.4,0.1,0.6,0.1c0.2,0,0.6-0.1,0.9-0.2c0.1,0,0.2-0.1,0.2-0.1l-0.2,0.8h0.7l0.7,0.3l0.3-0.3h0.6l0.1,0.7c0,0,0.4,0.5,0.7,0.5
		c0.3,0,0.7,0.3,0.7,0.3l0.4,0.4l0.7,0.2l0.8,0.2l0.3,0.3l0.7,0.2l-0.5,0.6l-0.6,0.3l-0.8,0.2h-0.4l-0.2,0.4l-0.6,0.1l-0.4-0.2
		l-0.7,0.3v0.3l-0.6,0.3H130l-0.7-0.5l-0.6-0.4l-0.5,0.5c0.2,0.3,0.5,0.3,0.5,0.3l-0.5,0.6l-0.7,0.1c0,0-0.5,0.6-0.1,0.7l0.7,0.6
		l-0.5,0.5l1,0.3c0,0,0.3,0,0.4,0.3c0.1,0.3,0.2,0.7,0.2,0.7l1.1-0.1h0.7l0.8,0.2l0.5,0.3l0.6,0.2l0.4,0.1l0.1,0.6h1.1l0.8-0.1
		l0.7,0.2l1.1-0.3l0.8-0.4l1.1,0.3l0.7-0.2c0,0,0.4,0,0.5,0.4c0.1,0.4,0.2,0.7,0.2,0.7l0.4,0.2l0.7-1l-1-0.3L139.6,180.6z
		 M142.3,157l0.9,0.1l0.8-0.1h1.4l0.2-0.6l0.7-0.4l-0.1-0.4l-0.4-0.2l-0.8-0.1l-0.3,0.2h-0.8l-0.7-0.2l-0.9,0.3l1,0.3l-0.3,0.4
		c0,0,0.5,0.3,0.8,0.4c0.4,0.1-0.4,0.2-0.4,0.2L142.3,157z M127.4,112.7l0.7,0.3l0.3-0.3v-0.2l-0.3-0.3c0,0,0.1-0.7-0.3-0.2
		c-0.4,0.5-0.7,0.5-0.7,0.5L127.4,112.7z M128.4,111c0.4-0.1,0.7-0.5,0.7-0.5v-0.4l-0.7,0.2l-0.3,0.7C128.2,111,128,111.1,128.4,111
		z M129.4,111.2c0.5,0,0.5,0,0.5,0V111l0,0l0.2-0.3c0,0,0.1-0.4-0.2-0.2c-0.3,0.2-0.7,0.5-0.7,0.5S128.9,111.2,129.4,111.2z
		 M129.4,108.9l-0.5-0.1l0.5,0.5V108.9z M113.9,108.8c-0.4,0.3-0.9,0.5-1.3,0.8h0.8L113.9,108.8z"/>
</g>
</svg>
