<svg width="120" height="50" viewBox="0 0 120 50" fill="none" xmlns="http://www.w3.org/2000/svg">
<path fill-rule="evenodd" clip-rule="evenodd" d="M5.40834 30.8009C6.39222 30.8009 6.91695 31.0612 6.91695 31.9071C6.91695 32.6229 6.58899 33.1434 5.40834 33.1434H4.75241V30.7358H5.40834V30.8009ZM0.0297852 40.6267H7.11373C10.2621 40.6267 11.9675 39.1951 11.9675 37.0477C11.9675 35.7463 11.1804 34.3798 9.21267 34.1195V34.0544C11.1148 33.5989 11.574 32.5578 11.574 31.3214C11.574 29.2392 10.2621 28.0679 7.50728 28.0679H0.0297852V40.6267ZM4.68682 35.5511H5.34274C6.5234 35.5511 7.11373 35.8764 7.11373 36.6573C7.11373 37.5683 6.65458 37.9587 5.40834 37.9587H4.68682V35.5511V35.5511Z" fill="#007BC0"/>
<path fill-rule="evenodd" clip-rule="evenodd" d="M22.3964 40.6267H18.2641L18.1985 39.3252H18.1329C17.4114 40.5616 16.362 40.952 15.3781 40.952C13.6071 40.952 12.3608 40.1061 12.3608 37.7635V31.9722H16.5587V37.3731C16.5587 38.0238 16.8211 38.4142 17.2802 38.4142C17.7394 38.4142 18.1329 38.154 18.1329 37.4382V32.0372H22.3308V40.6267H22.3964Z" fill="#007BC0"/>
<path fill-rule="evenodd" clip-rule="evenodd" d="M28.3654 34.6401C28.3654 34.1846 28.2998 33.9894 28.1686 33.7942C28.0374 33.7291 27.8406 33.599 27.5127 33.599C26.8568 33.599 26.5944 33.8593 26.5944 34.2497C26.5944 34.6401 26.7912 34.7703 27.9062 34.9655C31.317 35.421 32.2353 36.0717 32.2353 37.7636C32.2353 39.6506 30.9891 40.887 27.4471 40.887C24.6266 40.887 22.8556 40.0411 22.79 37.7636H26.5944C26.5944 38.2191 26.66 38.5444 26.8568 38.6746C27.0535 38.8698 27.3159 38.9349 27.5783 38.9349C28.2342 38.9349 28.431 38.6095 28.431 38.154C28.431 37.8937 28.3654 37.6334 27.775 37.5033C27.5127 37.4382 27.1847 37.4382 25.9385 37.1779C23.7739 36.7224 22.9868 36.1368 22.9868 34.51C22.9868 32.9483 24.2331 31.5818 27.3815 31.5818C30.0708 31.5818 31.9729 32.2325 32.0385 34.51H28.3654V34.6401Z" fill="#007BC0"/>
<path fill-rule="evenodd" clip-rule="evenodd" d="M32.6289 31.9722H36.8268V40.6267H32.6289V31.9722Z" fill="#007BC0"/>
<path fill-rule="evenodd" clip-rule="evenodd" d="M37.7453 31.9721H41.8776L41.9432 33.2735H42.0088C42.6647 32.0372 43.7798 31.6467 44.7636 31.6467C46.6002 31.6467 47.8465 32.4927 47.8465 34.8352V40.6266H43.583V35.2257C43.583 34.5749 43.3206 34.1845 42.7959 34.1845C42.3367 34.1845 41.9432 34.4448 41.9432 35.1606V40.5615H37.6797V31.9721H37.7453Z" fill="#007BC0"/>
<path fill-rule="evenodd" clip-rule="evenodd" d="M52.3066 35.2257V35.1606C52.3066 34.3147 52.7658 33.9242 53.4217 33.9242C54.0776 33.9242 54.4712 34.3797 54.4712 35.1606V35.2257H52.3066ZM54.4712 37.8936C54.4056 38.5443 53.9464 38.7395 53.4217 38.7395C52.569 38.7395 52.241 38.284 52.241 37.3079V37.0477H58.2755V36.462C58.2755 33.3386 56.7013 31.6467 53.4217 31.6467C50.2733 31.6467 48.1743 33.2735 48.1743 36.2017C48.1743 39.7156 50.5356 40.8869 53.0281 40.8869C56.3733 40.8869 57.8819 39.8457 58.1443 37.8285H54.4712V37.8936Z" fill="#007BC0"/>
<path fill-rule="evenodd" clip-rule="evenodd" d="M64.1129 34.6401C64.1129 34.1846 64.0473 33.9894 63.9162 33.7942C63.785 33.7291 63.5226 33.599 63.2602 33.599C62.5387 33.599 62.3419 33.8593 62.3419 34.2497C62.3419 34.6401 62.5387 34.7703 63.6538 34.9655C66.999 35.421 67.9829 36.0717 67.9829 37.7636C67.9829 39.6506 66.671 40.887 63.1946 40.887C60.3086 40.887 58.5376 40.0411 58.5376 37.7636H62.3419C62.3419 38.2191 62.4075 38.5444 62.6043 38.6746C62.8011 38.8698 62.9979 38.9349 63.2602 38.9349C63.9162 38.9349 64.1129 38.6095 64.1129 38.154C64.1129 37.8937 64.0473 37.6334 63.457 37.5033C63.1946 37.4382 62.8011 37.4382 61.5548 37.1779C59.3903 36.7224 58.6032 36.1368 58.6032 34.51C58.6032 32.9483 59.8494 31.5818 62.9979 31.5818C65.7527 31.5818 67.5893 32.2325 67.7205 34.51H64.1129V34.6401Z" fill="#007BC0"/>
<path fill-rule="evenodd" clip-rule="evenodd" d="M73.4274 34.6401C73.4274 34.1846 73.3618 33.9894 73.2306 33.7942C73.0994 33.7291 72.9026 33.599 72.5747 33.599C71.9188 33.599 71.6564 33.8593 71.6564 34.2497C71.6564 34.6401 71.8532 34.7703 72.9682 34.9655C76.379 35.421 77.2973 36.0717 77.2973 37.7636C77.2973 39.6506 75.9855 40.887 72.5091 40.887C69.6886 40.887 67.9176 40.0411 67.8521 37.7636H71.6564C71.6564 38.2191 71.722 38.5444 71.9188 38.6746C72.1155 38.8698 72.3779 38.9349 72.6403 38.9349C73.2962 38.9349 73.493 38.6095 73.493 38.154C73.493 37.8937 73.4274 37.6334 72.837 37.5033C72.5747 37.4382 72.2467 37.4382 71.0005 37.1779C68.8359 36.7224 68.0488 36.1368 68.0488 34.51C68.0488 32.9483 69.2951 31.5818 72.4435 31.5818C75.1328 31.5818 77.0349 32.2325 77.1005 34.51H73.4274V34.6401Z" fill="#007BC0"/>
<path fill-rule="evenodd" clip-rule="evenodd" d="M79.0024 28.1331H83.5283L84.5778 36.0067L85.7584 28.1331H90.9402L92.1209 36.0067H92.1864L93.2359 28.1331H97.7618L95.0069 40.6268H89.5628L88.3821 32.5579L87.2014 40.6268H81.7573L79.0024 28.1331Z" fill="#007BC0"/>
<path fill-rule="evenodd" clip-rule="evenodd" d="M97.7617 31.9722H101.96V40.6267H97.7617V31.9722Z" fill="#007BC0"/>
<path fill-rule="evenodd" clip-rule="evenodd" d="M102.878 31.9722H107.01L107.076 32.8832C107.732 32.1023 108.322 31.842 108.847 31.842C109.175 31.842 109.503 31.842 109.962 32.1023V35.2258C109.503 35.0956 108.912 34.9655 108.191 34.9655C107.338 34.9655 107.076 35.486 107.076 36.0066V40.5616H102.878V31.9722Z" fill="#007BC0"/>
<path fill-rule="evenodd" clip-rule="evenodd" d="M113.832 35.2257V35.1606C113.832 34.3147 114.291 33.9242 114.947 33.9242C115.603 33.9242 115.997 34.3797 115.997 35.1606V35.2257H113.832ZM116.062 37.8936C115.997 38.5443 115.538 38.7395 115.013 38.7395C114.16 38.7395 113.832 38.284 113.832 37.3079V37.0477H119.867V36.462C119.867 33.3386 118.292 31.6467 115.013 31.6467C111.864 31.6467 109.831 33.2735 109.831 36.2017C109.831 39.7156 112.127 40.8869 114.685 40.8869C118.03 40.8869 119.539 39.8457 119.801 37.8285H116.062V37.8936Z" fill="#007BC0"/>
<path fill-rule="evenodd" clip-rule="evenodd" d="M88.4477 15.509C88.2509 15.7043 86.3487 17.266 85.1025 17.8516C84.9713 17.9167 85.0369 17.8516 85.1025 17.7865C86.1519 16.7454 87.267 15.9645 88.4477 15.3789C88.4477 15.3789 88.6444 15.3789 88.4477 15.509ZM70.541 8.7416C50.1419 9.6526 28.2997 17.8516 14.5254 28.8487C30.5954 17.9818 48.8956 11.2794 68.2453 10.2383C69.0324 9.52246 69.8195 9.06696 70.541 8.7416ZM109.306 30.4755C109.306 22.9923 103.206 16.0296 91.2681 12.5158C91.3993 11.865 91.3337 11.2794 91.2025 10.8239C103.599 14.2076 110.027 21.4305 109.306 30.4755ZM80.3142 7.89568C80.511 8.15596 80.9046 8.2861 81.1669 8.2861H81.1013C81.1669 8.35118 81.2981 8.35117 81.2981 8.48132C81.1669 8.54639 80.9046 8.48132 80.7734 8.54639C80.839 8.28611 80.6422 8.2861 80.511 8.15596C80.2486 8.09089 80.0519 8.09089 79.8551 8.22103C79.7239 8.09089 79.8551 7.89568 79.9863 7.89568C80.1175 7.96075 80.3142 7.89568 80.3142 7.89568ZM82.1508 8.61146L82.282 8.7416C82.0852 8.7416 81.8885 8.93682 81.6917 8.93682C81.6917 9.00189 81.6917 8.7416 81.4949 8.80667H81.4293L81.6261 8.61146H81.5605C81.7573 8.48132 82.0196 8.54639 82.1508 8.61146ZM71.8529 9.97796C72.0496 9.78275 73.0991 9.06696 73.0991 9.06696C73.0991 9.06696 71.984 9.97796 71.8529 10.1081C71.7217 10.1732 71.6561 10.1732 71.8529 9.97796ZM72.0496 10.954C71.7873 11.0842 71.7873 10.954 72.0496 10.8239C72.5744 10.3684 72.9679 10.2382 73.6238 9.78275C73.6238 9.78275 72.4432 10.6938 72.0496 10.954ZM72.312 11.7349C72.0496 11.865 71.9185 11.8 72.2464 11.5397C72.9679 11.0842 73.4927 10.889 74.2798 10.3033C74.3454 10.3684 72.8367 11.4746 72.312 11.7349ZM72.9679 13.4918C72.8367 13.622 72.5088 13.5569 72.9679 13.2315C73.4271 12.9713 74.4765 12.1904 75.7228 11.2143C74.7389 12.1904 73.2959 13.2315 72.9679 13.4918ZM72.5088 12.6459C72.3776 12.776 72.1152 12.711 72.4432 12.5158C72.7711 12.3205 74.2142 11.2794 75.0669 10.6287C74.2142 11.3445 72.8367 12.4507 72.5088 12.6459ZM73.3615 14.2076C73.0991 14.3378 73.0991 14.2076 73.3615 14.0775C73.8206 13.622 74.083 13.5569 74.411 13.2315L76.969 11.4095C75.7228 12.3205 74.6733 13.3617 73.3615 14.2076ZM73.8206 14.9234C73.5583 15.0535 73.4927 14.9885 73.755 14.6631C74.1486 14.4028 74.411 14.2076 74.8045 13.9473L78.2809 11.4095C76.8379 12.6459 75.3292 13.687 73.8206 14.9234ZM89.8251 13.4268C87.8573 15.3789 85.6928 16.9406 83.3971 18.3722C82.2164 18.8928 82.6756 18.5023 82.7411 18.4373C85.496 16.1598 88.6444 13.8823 89.6939 13.3617C89.8907 13.2966 89.8907 13.3617 89.8251 13.4268ZM76.7723 8.41625C76.7723 8.48132 76.7723 8.48132 76.7723 8.41625V8.41625ZM74.411 15.3138C74.8701 15.0535 76.8379 13.622 78.0841 12.711C76.8379 13.687 74.7389 15.3789 74.3454 15.6392C74.1486 15.7693 74.0174 15.5741 74.411 15.3138ZM87.595 12.1904C87.3982 12.4507 87.3326 12.711 87.267 12.9713C88.5133 12.0603 90.0875 10.954 90.481 10.6937C90.7434 10.4985 90.7434 10.6937 90.7434 10.6937C89.6283 12.0603 87.0046 13.8172 86.7423 14.0124C86.5455 14.2076 86.4799 14.3378 86.5455 14.533C87.8573 13.4918 89.8251 12.1904 90.4154 11.865C90.5466 11.8 90.6778 11.865 90.2842 12.2555C89.7595 12.8411 85.4304 16.0947 82.9379 17.9167L82.4788 18.242C81.5605 18.6975 81.8229 18.6325 81.2325 18.8277C81.1669 18.6975 81.4293 18.5023 81.4949 18.3722C81.4293 18.0468 81.0358 18.177 80.6422 18.4373C79.8551 18.8928 79.9863 18.3722 80.3798 18.1119C80.7078 17.7215 81.2325 17.6564 81.4949 17.0708C81.4949 17.0708 81.7573 16.7454 81.4293 17.0057C80.9702 17.266 80.3142 17.9167 79.1992 18.4373C78.9368 18.5674 78.6744 18.5023 79.1336 17.9818C80.1831 17.266 80.0519 17.331 80.5766 16.9406C81.1669 16.4851 82.0196 16.2899 81.8229 15.3789C80.5766 16.2899 79.5271 17.0057 78.3465 17.9818C77.9529 18.242 77.6906 18.177 78.0841 17.8516C78.74 17.266 79.1336 17.0708 79.8551 16.4851L81.8885 15.0535C81.954 14.9885 82.0196 14.7933 81.954 14.6631C81.8884 14.533 81.6917 14.4679 81.5605 14.4028C80.2487 15.444 78.8712 16.5502 77.625 17.5913C77.0346 18.0468 76.7723 17.6564 77.4938 17.2009C78.8712 16.2248 80.1175 15.3138 81.4293 14.4028C81.3637 14.2076 80.9702 14.1425 80.9702 13.8172C79.5271 14.9234 78.0841 16.0296 76.7067 17.2009C76.1819 17.6564 76.1163 17.2009 76.4443 16.9406C76.7067 16.7454 79.396 14.9234 80.9046 13.8172C80.7078 13.5569 80.7734 13.2966 80.511 13.1665C79.0024 14.2727 77.3626 15.444 75.9852 16.7454C75.0669 17.3961 75.3948 16.7454 75.854 16.4851C76.0508 16.2899 78.8056 14.4679 80.5766 13.1665C80.3798 12.9713 80.2486 12.776 80.3142 12.5158C80.3798 12.5158 80.3798 12.4507 80.4454 12.4507C80.4454 12.3856 80.3798 12.3856 80.3798 12.3856H80.2487C78.4777 13.7521 75.7884 15.8995 75.2637 16.2899C74.7389 16.6803 74.6077 16.4851 75.1981 16.0296C76.8379 14.9885 78.74 13.4918 80.3798 12.3205C80.1175 11.865 80.9046 10.954 80.9046 10.954V10.889C80.9046 10.889 80.839 10.6287 80.7734 10.4985C80.9702 10.7588 81.1013 10.5636 81.2325 10.4335C81.2981 10.1732 81.6917 10.1732 81.8885 9.97796C82.0196 10.2382 82.1508 9.97796 82.2164 10.1081C82.3476 10.4335 82.7411 10.1732 83.0691 10.2383C83.1347 10.1081 83.3315 10.2383 83.3315 10.1732C85.1681 8.74161 87.0702 7.3751 88.8412 5.87846C88.7756 5.68324 88.71 5.5531 88.5788 5.42296C88.3165 5.35789 88.3165 5.74832 87.9885 5.68324C86.8079 6.52917 85.5616 7.44017 84.3809 8.2861C85.7584 7.24496 87.2014 6.07367 88.5788 5.03253C88.5133 4.96746 88.5132 4.83731 88.5132 4.77224C88.2509 4.83731 88.1197 4.31674 87.9229 4.70717C86.5455 5.68324 85.1681 6.72439 83.7906 7.70046L88.0541 4.38181C87.9885 4.12153 87.7917 4.12153 87.7261 3.86124C86.4799 4.70717 85.3648 5.48803 84.1842 6.39903C85.4304 5.48803 86.6767 4.44688 87.9229 3.53588C87.7917 3.21052 87.3982 3.47081 87.3982 3.08038L84.4465 5.22774L87.1358 3.08038C87.1358 3.01531 87.0046 2.8201 86.8734 2.75503C86.8079 2.8201 86.939 2.88517 86.8734 2.95024H86.939V3.08038C86.6767 2.49474 86.2831 2.95024 85.8896 3.08038L84.9713 3.79617C85.496 3.34067 86.0207 2.95024 86.5455 2.55981L86.1519 2.23445C86.3487 2.16938 86.6111 2.62488 86.8734 2.29952C86.7423 2.03924 86.5455 1.97417 86.2175 1.90909C85.496 2.36459 84.8401 2.95024 84.1186 3.40574C84.5777 3.01531 85.4304 2.3646 86.0207 1.84402C85.824 1.64881 85.6928 1.45359 85.4304 1.38852C85.2992 1.51867 84.9713 1.58374 85.0369 1.84402V2.03924C84.5777 1.77895 84.2498 2.29952 83.9218 2.49474L83.9874 2.75503C83.9218 2.75503 83.5938 2.75503 83.5938 2.75503C83.3315 2.3646 82.6756 2.29953 82.7411 1.77895C82.4788 1.84402 82.4132 1.32345 82.0852 1.32345C82.0196 1.19331 82.0196 1.32345 81.8885 1.32345C81.6261 1.19331 81.3637 1.12824 81.2325 1.4536C81.3637 1.84402 81.8884 1.64881 81.954 1.97417C82.0852 2.03924 82.2164 2.03924 82.3476 2.23445C82.282 2.42967 82.1508 2.16938 81.954 2.16938C81.8884 2.3646 82.282 2.3646 82.282 2.62488C82.2164 2.8201 82.0196 2.8201 81.954 2.95024C82.0196 3.01531 82.0196 3.01531 82.1508 3.01531L82.282 2.8201C82.4132 2.95024 82.5444 3.2756 82.8067 3.2756L82.7411 3.34067C83.0035 3.53588 83.4627 3.66603 83.3971 4.12153C83.4627 4.1866 83.4627 4.1866 83.5938 4.1866L83.9218 4.51195L83.7906 4.57703C83.725 4.31674 83.3315 4.38181 83.1347 4.38181C83.0691 4.25167 83.2003 4.12153 83.1347 4.05646C83.0691 4.1866 82.8723 4.05646 82.7411 4.12153L82.8067 4.1866L82.7411 4.25167C82.61 4.12153 82.3476 3.79617 82.2164 4.05646C82.282 4.12153 82.4788 4.12153 82.5444 4.25167C82.5444 4.31674 82.5444 4.44688 82.61 4.51195C82.8067 4.44688 82.7412 4.6421 82.8723 4.6421L83.0035 4.51195C83.0035 4.57703 83.0035 4.57703 83.0691 4.57703C82.9379 4.57703 82.61 5.16267 82.3476 4.77224C82.2164 4.83731 82.0196 4.90239 81.8885 5.03253C81.954 5.0976 81.8884 5.16267 81.954 5.22774C81.8229 5.29281 81.5605 5.22774 81.4949 5.48803V5.5531C81.4293 5.68324 81.0358 5.81339 81.2325 6.0086C81.2981 6.33396 80.9702 6.33396 80.7734 6.52917C80.511 6.59424 80.4454 6.98467 80.511 7.17989C80.4454 7.44017 80.6422 7.63539 80.5766 7.8306C80.3142 7.76553 80.3142 7.44017 80.1175 7.17989C80.2486 6.9196 79.7895 7.11482 79.7239 6.9196C79.2648 6.78946 79.068 7.3751 78.6744 6.98467C78.4777 7.11482 78.0841 7.17989 78.0841 7.50524L78.1497 7.57032C77.8217 7.76553 77.8873 8.15596 77.8873 8.41625C78.0185 8.41625 78.0841 8.67653 78.0841 8.67653C78.2809 8.93682 78.5433 8.67653 78.74 8.7416C78.8712 8.67653 78.8056 8.2861 79.1336 8.35118L79.396 8.41625C79.4615 8.67653 79.1336 8.87175 79.1336 9.26218C79.3304 9.32725 79.7239 9.1971 79.9207 9.45739C79.9863 9.71767 79.6583 10.2382 80.0519 10.3033C80.1175 10.6287 80.3142 10.3684 80.511 10.3684C80.4454 10.4985 80.3142 10.6937 80.3142 10.7588C80.1831 10.6287 79.9207 10.5636 79.7239 10.4985L79.7895 10.4335C79.4615 10.043 79.1336 9.58753 78.5433 9.45739C78.3465 9.32725 78.2153 9.00189 77.8873 9.13203C77.7561 9.1971 77.625 9.06696 77.4282 9.06696C77.297 9.00189 76.969 8.61146 76.7067 8.54639C76.7067 8.48132 76.6411 8.41625 76.6411 8.35118C76.8379 7.89567 76.3787 7.44017 76.3131 6.98467L76.1819 6.85453C76.2475 7.17989 76.0508 7.50524 76.3131 7.8306C76.2475 7.89567 76.1163 7.57032 75.9852 7.44017C76.1163 7.17989 75.7228 7.04974 75.9196 6.85453C75.854 6.59424 75.7228 6.07367 75.7884 6.0086C75.854 5.94353 75.7228 5.87846 75.7228 5.74831V5.68324C75.6572 5.42296 75.5916 5.22774 75.6572 4.96746C75.7884 4.44688 76.5099 3.99138 76.3131 3.34067C76.5099 3.21053 76.5099 2.95024 76.6411 2.75503C76.3787 2.49474 77.1002 1.97417 76.5755 1.77895C76.3131 2.03924 75.9196 1.97417 75.526 2.03924L75.4604 1.97417C75.6572 1.9091 75.854 1.77895 75.854 1.77895C75.9196 1.84402 75.9852 1.84402 76.1163 1.84402C76.3787 1.71388 76.2475 1.19331 76.5755 1.38852V1.32345C76.7067 1.25838 77.2314 1.38852 77.2314 1.06316C77.1658 0.998093 77.1002 0.998094 77.0346 0.998094C77.297 0.737808 77.7561 0.672736 78.2809 0.542593C78.0841 0.607665 77.8217 0.672737 77.7562 0.80288C77.8873 0.998095 78.3465 0.737807 78.2809 1.06316C78.2809 1.12824 78.2153 1.12824 78.2809 1.12824C78.5433 1.19331 78.74 1.32345 78.9368 1.4536C79.0024 1.38852 79.1992 1.38852 79.068 1.25838L78.9368 1.12824C79.1992 1.12824 79.396 0.80288 79.5927 1.12824C79.6583 1.12824 79.6583 1.06317 79.6583 0.998094L79.5927 0.933021C79.7239 0.802878 79.9207 0.80288 80.0519 0.80288L80.3142 0.672737C80.2486 0.737808 80.2487 0.802878 80.2487 0.933021C80.1831 0.933021 80.1831 0.933023 80.1175 0.998094C80.1831 1.06317 80.3798 1.06317 80.511 1.12824C80.6422 1.12824 80.7078 0.998095 80.7734 1.12824C80.839 1.06317 80.839 0.998094 80.839 0.867951C80.7734 0.867951 80.7734 0.80288 80.7734 0.80288C80.9702 0.542594 81.4293 0.542594 81.6917 0.672737C81.954 0.542594 81.8229 0.542593 82.1508 0.41245C82.1508 0.607664 82.282 0.477522 82.4132 0.542593C82.6756 0.477522 83.2659 0.607665 83.1347 0.672737C83.3971 0.867951 83.5283 1.12824 83.8562 1.12824L84.5121 0.672737C84.5121 0.672737 83.8562 0.737807 83.7906 0.607664C83.2659 -0.238266 80.2487 0.152165 80.2487 0.152165C82.7412 -0.368407 85.1025 0.607664 85.6928 0.933021C85.6928 0.933021 86.3487 1.38852 86.6767 1.64881V1.71388L86.6111 1.77895L86.8079 2.03924C86.8735 1.97417 86.8734 1.97417 86.8734 1.90909L86.8079 1.84402C87.3982 2.10431 87.9229 2.68995 88.4477 3.14545C88.4477 3.14545 88.5132 3.66603 88.3821 3.53588C88.2509 3.66603 88.3821 3.79617 88.4477 3.92631C88.5133 3.99138 88.5788 3.99138 88.6444 3.99138C88.7756 3.92631 88.6444 3.79617 88.6444 3.7311L88.8412 3.79617V3.60096C88.9724 3.79617 89.1036 3.79617 89.1036 3.99138C89.038 3.92631 88.9068 3.92631 88.8412 4.05646C88.5788 4.31674 88.7756 4.57703 88.71 4.70717L88.7756 4.77224C88.8412 4.51196 88.9724 4.31674 89.038 4.05646C89.1692 4.12153 89.3004 4.51195 89.4971 4.51195C89.9563 5.16267 90.2842 6.0086 90.5466 6.85453C90.7434 7.50524 90.6778 8.02582 90.9402 8.67653C90.9402 8.80668 90.8746 9.06696 90.8746 9.06696C90.7434 9.32725 90.4154 9.45739 90.3498 9.71768L90.0875 9.65261C89.038 10.4335 87.8573 11.0842 86.8079 11.9301C87.0702 11.9301 87.1358 12.1904 87.3982 12.1904C88.6444 11.3445 89.6283 10.1081 90.9402 9.71768C90.7434 10.3033 90.2186 10.5636 89.6939 10.954C88.7756 11.4095 88.1853 11.8 87.595 12.1904ZM83.9874 10.3684C85.5616 9.1971 87.1358 7.96075 88.71 6.65932C88.7756 6.4641 88.8412 6.26889 88.71 6.07367C86.8734 7.24496 85.168 8.54639 83.3971 9.91289V9.97796C83.3971 10.043 83.4627 10.043 83.4627 10.043C83.4627 9.97796 83.5283 9.97796 83.5283 9.97796C83.6594 10.043 83.5938 10.043 83.5283 10.1732C83.5938 10.3684 83.7906 10.2382 83.9874 10.3684ZM84.9057 10.6937C86.2831 9.78275 87.595 8.54639 88.8412 7.57032C88.9068 7.31003 88.71 7.31003 88.6444 7.11482C87.0046 8.2861 85.496 9.32725 83.9218 10.5636C84.1842 11.0191 84.6433 10.4335 84.9057 10.6937ZM85.3648 11.3445L89.038 8.48132C89.1692 8.22103 89.1036 8.09089 88.9724 7.96075C88.9724 7.96075 86.1519 10.043 85.0369 10.8239C85.2992 10.954 85.168 11.2143 85.3648 11.3445ZM89.1036 9.52246L89.4315 9.19711C89.4971 9.00189 89.3659 8.93682 89.2348 8.93682C87.9885 9.78275 86.6767 10.6287 85.4304 11.6048L86.1519 11.8L89.1036 9.52246ZM78.2809 0.998094C78.2153 0.998094 78.2153 0.998094 78.2809 0.998094V0.998094ZM78.2809 0.933021C78.2809 0.998093 78.2809 0.998093 78.2809 0.933021V0.933021ZM72.0496 7.70046C71.984 7.76553 71.9185 7.76553 71.8529 7.8306C71.8529 7.89567 71.8529 7.96075 71.8529 8.02582C71.9185 8.09089 71.9185 8.09089 72.0496 8.02582C72.0496 7.96075 72.0496 7.96075 72.0496 7.89568C72.0496 7.89568 72.0496 7.76553 72.0496 7.70046ZM71.984 7.17989C72.0496 7.17989 72.0496 7.17989 72.0496 7.11482C72.1152 6.9196 72.1808 6.72439 72.2464 6.52917C72.1808 6.59424 72.1808 6.59425 72.1152 6.59425C72.1152 6.85453 72.0496 7.04974 71.984 7.17989ZM72.0496 8.67653C71.984 8.7416 71.8529 8.87175 71.7873 8.93682C71.7873 9.00189 71.7873 9.00189 71.7873 9.00189C71.7873 9.52246 72.312 8.67653 72.312 8.67653C72.312 8.67653 72.1152 8.7416 72.0496 8.67653ZM72.312 6.20381C72.3776 6.20381 72.3776 6.20381 72.3776 6.20381C72.7056 5.22774 73.2303 4.44688 73.2303 4.44688C72.7712 5.03253 72.4432 5.61817 72.312 6.20381Z" fill="#009DBD"/>
<path fill-rule="evenodd" clip-rule="evenodd" d="M2.32535 44.9865H1.8662C1.60383 44.9865 1.40706 45.1167 1.27587 45.3119C1.21028 45.5071 1.0791 45.7023 1.01351 45.8975C0.947913 46.0277 0.882321 46.1578 0.751137 46.1578C0.685545 46.1578 0.685545 46.0927 0.685545 46.0277C0.685545 45.8975 0.947913 44.9215 1.0791 44.6612C1.14469 44.5961 1.14469 44.4009 1.27587 44.4009C1.40706 44.4009 1.40706 44.4659 1.40706 44.531C1.47265 44.6612 1.47265 44.7913 1.60383 44.7913H3.96515C4.16193 44.7913 4.22752 44.7262 4.22752 44.6612C4.29311 44.5961 4.29311 44.4659 4.42429 44.4659C4.48989 44.4659 4.48989 44.531 4.48989 44.531C4.48989 44.5961 4.22752 45.5722 4.16193 45.9626C4.09633 46.0927 4.09633 46.2229 3.96515 46.2229C3.89956 46.2229 3.83396 46.1578 3.83396 46.0277C3.83396 45.8975 3.89956 45.5722 3.89956 45.377C3.89956 45.1167 3.83396 45.0516 3.37482 45.0516H3.11245L1.8662 49.086C1.8662 49.2162 1.80061 49.3463 1.80061 49.3463C1.80061 49.4114 1.8662 49.5415 2.06298 49.5415C2.19416 49.6066 2.25975 49.6066 2.25975 49.6717C2.25975 49.7368 2.19416 49.7368 1.99739 49.7368C1.73502 49.7368 1.53824 49.7368 1.14469 49.7368C0.882321 49.7368 0.619953 49.7368 0.423177 49.7368C0.357584 49.7368 0.291992 49.7368 0.291992 49.6717C0.291992 49.6066 0.357584 49.6066 0.488769 49.5415C0.751137 49.4765 0.816729 49.4765 0.947913 49.086L2.32535 44.9865Z" fill="#9FBBE0"/>
<path fill-rule="evenodd" clip-rule="evenodd" d="M7.17886 47.0688C7.17886 48.3052 6.32616 49.8018 5.40787 49.8018C5.1455 49.8018 5.01432 49.7368 5.01432 49.4114C5.01432 49.2162 5.07991 49.1511 5.27668 49.1511C5.34228 49.1511 5.40787 49.2162 5.40787 49.3463C5.40787 49.4765 5.40787 49.5415 5.47346 49.5415C5.73583 49.5415 6.32616 47.5243 6.32616 46.9387C6.32616 46.6784 6.26057 46.6133 6.12938 46.6133C5.93261 46.6133 5.67024 46.9387 5.27668 47.6545C5.01432 48.175 4.68636 48.8908 4.42399 49.5415C4.35839 49.8018 4.35839 49.8018 3.96484 49.8018C3.63688 49.8018 3.57129 49.8018 3.57129 49.7368C3.57129 49.6717 3.57129 49.6717 3.63688 49.5415C3.89925 48.3703 4.48958 46.6784 4.81754 45.442C4.88313 45.1818 4.94872 44.9865 4.94872 44.9865C4.94872 44.9215 4.88313 44.9215 4.81754 44.8564C4.75195 44.8564 4.62076 44.8564 4.62076 44.7913C4.55517 44.7913 4.55517 44.7263 4.55517 44.7263C4.55517 44.6612 4.62076 44.5961 4.68635 44.5961C4.94872 44.531 5.34228 44.531 5.67024 44.3358C5.73583 44.3358 5.80142 44.2708 5.93261 44.2708C5.9982 44.2708 5.9982 44.3358 5.9982 44.3358C5.9982 44.4009 5.9982 44.4009 5.93261 44.531C5.86701 44.8564 5.60464 45.7023 5.01432 47.6545V47.7195C5.40787 47.0688 5.93261 46.0928 6.45734 46.0928C6.98208 46.0928 7.17886 46.5483 7.17886 47.0688Z" fill="#9FBBE0"/>
<path fill-rule="evenodd" clip-rule="evenodd" d="M9.54052 46.2879C9.6717 46.2879 9.73729 46.3529 9.73729 46.5482C9.73729 46.6132 9.73729 46.8084 9.6717 47.0687C9.47492 47.4592 9.14696 47.9147 8.42545 47.9797C8.62223 46.8735 9.14696 46.2879 9.54052 46.2879ZM10.3932 46.7434C10.3932 46.2879 10.1308 46.0276 9.54052 46.0276C8.49104 46.0276 7.37598 47.2639 7.37598 48.6304C7.37598 49.4113 7.70394 49.8668 8.29427 49.8668C8.95019 49.8668 9.54052 49.2812 9.80289 48.8257C9.93407 48.6304 9.99966 48.5003 9.99966 48.4352C9.99966 48.3702 9.93407 48.3702 9.93407 48.3702C9.86848 48.3702 9.86848 48.5003 9.6717 48.6955C9.40933 49.0859 9.01578 49.3462 8.68782 49.3462C8.42545 49.3462 8.22867 49.0859 8.22867 48.6955C8.22867 48.5003 8.29427 48.3051 8.29427 48.1749C8.29427 48.1749 8.35986 48.1749 8.42545 48.1749C9.6717 47.9797 10.3932 47.5893 10.3932 46.7434Z" fill="#9FBBE0"/>
<path fill-rule="evenodd" clip-rule="evenodd" d="M12.3608 48.1749C12.3608 47.1988 12.82 46.2878 13.4759 45.6371C14.1318 44.9864 15.1157 44.5959 16.1652 44.5959C16.362 44.5959 16.5587 44.661 16.6243 44.661C16.6899 44.7261 16.6899 44.7261 16.6899 44.7261C16.6899 44.7912 16.6899 44.8562 16.6243 44.9864C16.5587 45.2467 16.362 45.6371 16.362 45.8323C16.2964 45.9624 16.2964 46.0275 16.1652 46.0275C16.0996 46.0275 16.034 45.9624 16.034 45.8323C16.034 45.7022 16.1652 45.1816 16.1652 44.9864C16.1652 44.8562 16.0996 44.7912 15.9028 44.7912C15.4437 44.7912 14.7222 45.1165 14.1974 45.8323C13.5415 46.6132 13.3447 47.6543 13.3447 48.3701C13.3447 48.7605 13.4103 49.0208 13.6071 49.216C13.7383 49.4112 14.0006 49.4763 14.263 49.4763C14.4598 49.4763 14.6566 49.4112 14.6566 49.216C14.7222 49.0859 14.7222 48.9557 14.7877 48.8256L15.0501 47.9797C15.1157 47.8495 15.1157 47.7194 15.1157 47.7194C15.1157 47.5892 15.0501 47.5242 14.9189 47.5242C14.6566 47.4591 14.6566 47.4591 14.6566 47.394C14.6566 47.3289 14.7222 47.3289 14.7877 47.3289C15.0501 47.3289 15.3125 47.394 15.6404 47.394C15.9684 47.394 16.2964 47.3289 16.4931 47.3289C16.5587 47.3289 16.6243 47.394 16.6243 47.394C16.6243 47.4591 16.5587 47.4591 16.4275 47.5242C16.2308 47.5892 16.1652 47.5892 16.0996 47.7845L15.6404 49.4112C15.6404 49.4763 15.5093 49.5414 15.2469 49.6715C14.9189 49.7366 14.591 49.7366 14.1974 49.7366C13.7383 49.7366 13.2791 49.6064 12.9512 49.2811C12.5576 49.1509 12.3608 48.7605 12.3608 48.1749Z" fill="#9FBBE0"/>
<path fill-rule="evenodd" clip-rule="evenodd" d="M16.6245 49.3463C16.6245 49.2162 16.6901 48.8908 16.8213 48.5004C17.0181 47.6545 17.4116 46.3531 17.674 45.5722C17.7396 45.2468 17.8052 45.0516 17.8052 44.9215C17.8052 44.7913 17.7396 44.7263 17.5428 44.6612C17.4772 44.6612 17.346 44.5961 17.346 44.5961C17.346 44.5311 17.4116 44.466 17.6084 44.466C18.0019 44.466 18.2643 44.3358 18.5267 44.2057C18.6579 44.1406 18.7235 44.1406 18.7891 44.1406C18.8546 44.1406 18.8546 44.2057 18.8546 44.2057C18.8546 44.2708 18.7891 44.4009 18.7891 44.6612C18.3299 46.3531 17.8708 47.6545 17.674 48.3703C17.6084 48.7607 17.5428 48.9559 17.5428 49.021C17.5428 49.0861 17.6084 49.0861 17.6084 49.0861C17.7396 49.0861 17.8708 49.021 18.0675 48.6306C18.1331 48.3703 18.2643 48.1751 18.3299 48.1751C18.3955 48.1751 18.3955 48.2401 18.3955 48.2401C18.3955 48.3052 18.3299 48.6306 18.1331 48.8908C17.8708 49.2813 17.4772 49.7368 17.0181 49.7368C16.7557 49.8669 16.6245 49.6717 16.6245 49.3463Z" fill="#9FBBE0"/>
<path fill-rule="evenodd" clip-rule="evenodd" d="M21.1501 46.9386C21.1501 47.3941 20.8877 48.24 20.6909 48.6955C20.4285 49.2812 20.1662 49.6065 19.8382 49.6065C19.5758 49.6065 19.4447 49.4113 19.4447 48.9558C19.4447 48.5003 19.707 47.6544 19.9038 47.1989C20.1662 46.5482 20.4285 46.2228 20.6909 46.2228C20.9533 46.2228 21.1501 46.4831 21.1501 46.9386ZM21.9372 47.4592C21.9372 46.5482 21.478 46.0276 20.6909 46.0276C19.6414 46.0276 18.7231 47.2639 18.7231 48.4352C18.7231 49.2812 19.1823 49.8668 19.9038 49.8668C20.4941 49.8668 21.0189 49.5414 21.3468 49.0209C21.7404 48.5654 21.9372 47.9797 21.9372 47.4592Z" fill="#9FBBE0"/>
<path fill-rule="evenodd" clip-rule="evenodd" d="M24.9544 47.0687C24.9544 47.7194 24.1017 49.6716 23.3146 49.6716C23.0522 49.6716 22.9867 49.5414 22.9867 49.3462C22.9867 48.6955 24.1017 46.6132 24.6265 46.6132C24.8232 46.6132 24.9544 46.7434 24.9544 47.0687ZM25.8727 47.0687C25.8727 46.6132 25.7415 46.0276 25.1512 46.0276C24.4953 46.0276 23.9049 47.0036 23.577 47.3941H23.5114L24.3641 44.8563C24.4297 44.4659 24.5609 44.3357 24.5609 44.2706C24.5609 44.2056 24.4953 44.2056 24.4297 44.2056L24.3641 44.2706C24.1017 44.4008 23.7738 44.5309 23.3146 44.5309C23.1178 44.5309 23.0522 44.596 23.0522 44.6611C23.0522 44.7261 23.1178 44.7261 23.3146 44.7261C23.4458 44.7912 23.5114 44.7912 23.5114 44.9864C23.5114 45.0515 23.5114 45.1816 23.4458 45.3769C23.3146 46.0276 22.8555 47.1989 22.5931 48.0448C22.5275 48.4352 22.4619 48.7606 22.4619 48.8907C22.4619 49.5414 22.9211 49.8668 23.4458 49.8668C24.692 49.8668 25.8727 48.3701 25.8727 47.0687Z" fill="#9FBBE0"/>
<path fill-rule="evenodd" clip-rule="evenodd" d="M28.7589 46.6784C28.7589 46.9387 28.4966 47.5244 28.103 48.11C27.7095 48.6956 27.2503 49.1511 27.0535 49.1511C26.9224 49.1511 26.7912 49.0861 26.7912 48.8909C26.7912 48.6306 27.0535 48.0449 27.4471 47.3291C27.7751 46.7435 28.103 46.4181 28.431 46.4181C28.6278 46.3531 28.7589 46.4832 28.7589 46.6784ZM25.9385 49.1511C25.9385 49.6066 26.0697 49.8669 26.5288 49.8669C27.1847 49.8669 27.9718 48.6306 28.2998 48.11V48.1751C28.2342 48.5004 28.103 48.8258 28.0374 49.1511C28.0374 49.2813 27.9718 49.4114 27.9718 49.5416C27.9718 49.7368 28.0374 49.8669 28.2342 49.8669C28.5622 49.8669 28.9557 49.6066 29.2181 49.2162C29.4805 48.8909 29.6772 48.5004 29.6772 48.3703C29.6772 48.3052 29.6772 48.3052 29.6116 48.3052C29.546 48.3052 29.546 48.3703 29.3493 48.6956C29.1525 49.021 29.0213 49.1511 28.8901 49.1511C28.8245 49.1511 28.8245 49.0861 28.8245 49.0861C28.8245 49.021 28.8245 48.8258 28.8901 48.5004C29.1525 47.8497 29.3493 47.0688 29.546 46.4181C29.6116 46.3531 29.6116 46.2229 29.6116 46.1578C29.6116 46.0928 29.546 46.0928 29.4805 46.0928C29.4149 46.0928 29.2181 46.0928 29.0869 46.0928C29.0213 46.0928 28.8901 46.0928 28.8901 46.1578C28.8245 46.2229 28.8245 46.3531 28.7589 46.3531C28.6933 46.3531 28.5622 46.1578 28.2342 46.1578C27.7751 46.1578 27.1847 46.5483 26.7256 47.1339C26.332 47.6545 25.9385 48.4353 25.9385 49.1511Z" fill="#9FBBE0"/>
<path fill-rule="evenodd" clip-rule="evenodd" d="M30.0049 49.3463C30.0049 49.2162 30.0705 48.8908 30.1361 48.5004C30.3984 47.6545 30.792 46.3531 30.9888 45.5722C31.0544 45.2468 31.1199 45.0516 31.1199 44.9215C31.1199 44.7913 31.0544 44.7263 30.8576 44.6612C30.792 44.6612 30.6608 44.5961 30.6608 44.5961C30.6608 44.5311 30.7264 44.466 30.9232 44.466C31.3167 44.466 31.5791 44.3358 31.8415 44.2057C31.9726 44.1406 32.0382 44.1406 32.1038 44.1406C32.1694 44.1406 32.1694 44.2057 32.1694 44.2057C32.1694 44.2708 32.1038 44.4009 32.1038 44.6612C31.6447 46.3531 31.1855 47.6545 30.9888 48.3703C30.9232 48.7607 30.8576 48.9559 30.8576 49.021C30.8576 49.0861 30.9232 49.0861 30.9232 49.0861C31.0544 49.0861 31.1855 49.021 31.3823 48.6306C31.4479 48.3703 31.5791 48.1751 31.6447 48.1751C31.7103 48.1751 31.7103 48.2401 31.7103 48.2401C31.7103 48.3052 31.6447 48.6306 31.4479 48.8908C31.1855 49.2813 30.792 49.7368 30.3328 49.7368C30.1361 49.8669 30.0049 49.6717 30.0049 49.3463Z" fill="#9FBBE0"/>
<path fill-rule="evenodd" clip-rule="evenodd" d="M35.318 45.1816C35.318 45.0514 35.2524 44.9864 35.0557 44.9864C34.9245 44.9213 34.7933 44.9213 34.7933 44.8562C34.7933 44.7911 34.8589 44.7261 34.9901 44.7261C35.2524 44.7261 35.5148 44.7911 35.8428 44.7911C36.1707 44.7911 36.4987 44.7261 36.6955 44.7261C36.761 44.7261 36.8266 44.7911 36.8266 44.7911C36.8266 44.9213 36.761 44.9213 36.5643 44.9864C36.3019 44.9864 36.2363 45.0514 36.1707 45.3117C35.9084 46.1576 35.5148 47.6543 35.1212 48.7605C35.0557 49.0208 34.9901 49.216 34.9245 49.4112C34.9245 49.4763 34.9245 49.4763 34.9901 49.4763C35.0557 49.4763 35.1868 49.4763 35.318 49.4763C35.9739 49.4763 36.3019 49.3462 36.5643 48.7605C36.8266 48.305 36.8266 48.2399 36.9578 48.2399C37.0234 48.2399 37.0234 48.305 37.0234 48.305C37.0234 48.4351 36.9578 48.7605 36.761 49.3462C36.6955 49.6715 36.6955 49.6715 36.4987 49.6715C36.3019 49.6715 36.0395 49.6715 34.6621 49.6715C34.0718 49.6715 33.7438 49.6715 33.4159 49.6715C33.3503 49.6715 33.2847 49.6715 33.2847 49.6064C33.2847 49.5414 33.3503 49.5414 33.547 49.4763C33.6782 49.4763 33.8094 49.4112 33.875 49.216C34.2685 47.9146 34.7277 46.4179 34.9245 45.7021C35.318 45.3117 35.318 45.2466 35.318 45.1816Z" fill="#9FBBE0"/>
<path fill-rule="evenodd" clip-rule="evenodd" d="M39.5815 46.2879C39.7127 46.2879 39.7783 46.3529 39.7783 46.5482C39.7783 46.6132 39.7783 46.8084 39.7127 47.0687C39.5815 47.4592 39.188 47.9147 38.4665 47.9797C38.6632 46.8735 39.188 46.2879 39.5815 46.2879ZM40.4342 46.7434C40.4342 46.2879 40.1719 46.0276 39.5815 46.0276C38.5321 46.0276 37.417 47.2639 37.417 48.6304C37.417 49.4113 37.745 49.8668 38.3353 49.8668C38.9912 49.8668 39.5815 49.2812 39.8439 48.8257C39.9751 48.6304 40.0407 48.5003 40.0407 48.4352C40.0407 48.3702 39.9751 48.3702 39.9751 48.3702C39.9095 48.3702 39.9095 48.5003 39.7127 48.6955C39.4504 49.0859 39.0568 49.3462 38.7944 49.3462C38.4665 49.3462 38.3353 49.0859 38.3353 48.6955C38.3353 48.5003 38.4009 48.3051 38.4009 48.1749C38.4665 48.1749 38.4665 48.1749 38.5321 48.1749C39.7127 47.9797 40.4342 47.5893 40.4342 46.7434Z" fill="#9FBBE0"/>
<path fill-rule="evenodd" clip-rule="evenodd" d="M43.1237 46.6784C43.1237 46.9387 42.8613 47.5244 42.4678 48.11C42.1398 48.6956 41.6807 49.1511 41.4183 49.1511C41.2871 49.1511 41.2215 49.0861 41.2215 48.8909C41.2215 48.6306 41.4839 48.0449 41.8774 47.3291C42.2054 46.7435 42.5334 46.4181 42.8613 46.4181C42.9925 46.3531 43.1237 46.4832 43.1237 46.6784ZM40.3032 49.1511C40.3032 49.6066 40.3688 49.8669 40.8936 49.8669C41.5495 49.8669 42.3366 48.6306 42.6645 48.11V48.1751C42.599 48.5004 42.4678 48.8258 42.4022 49.1511C42.3366 49.2813 42.3366 49.4114 42.3366 49.5416C42.3366 49.7368 42.4022 49.8669 42.599 49.8669C42.9269 49.8669 43.3205 49.6066 43.5828 49.2162C43.8452 48.8909 44.042 48.5004 44.042 48.3703C44.042 48.3052 44.042 48.3052 43.9764 48.3052C43.9108 48.3052 43.9108 48.3703 43.714 48.6956C43.5172 49.021 43.3861 49.1511 43.2549 49.1511C43.1893 49.1511 43.1893 49.0861 43.1893 49.0861C43.1893 49.021 43.2549 48.8258 43.3205 48.5004C43.5828 47.8497 43.7796 47.0688 43.9764 46.4181C44.042 46.3531 44.042 46.2229 44.042 46.1578C44.042 46.0928 43.9764 46.0928 43.9108 46.0928C43.7796 46.0928 43.6484 46.0928 43.5172 46.0928C43.3861 46.0928 43.3205 46.0928 43.2549 46.1578C43.2549 46.2229 43.1893 46.3531 43.1893 46.3531C43.1237 46.3531 42.9925 46.1578 42.6645 46.1578C42.2054 46.1578 41.6151 46.5483 41.0903 47.1339C40.6968 47.6545 40.3032 48.4353 40.3032 49.1511Z" fill="#9FBBE0"/>
<path fill-rule="evenodd" clip-rule="evenodd" d="M47.1247 46.5483C47.1247 46.8086 46.8623 47.3942 46.4687 48.0449C46.0096 48.7607 45.616 49.1511 45.4193 49.1511C45.2881 49.1511 45.1569 49.0861 45.1569 48.8258C45.1569 48.3703 45.4193 47.7846 45.7472 47.199C46.0752 46.6784 46.4687 46.2229 46.7967 46.2229C46.9935 46.288 47.1247 46.3531 47.1247 46.5483ZM44.3042 48.9559C44.3042 49.6066 44.501 49.8018 44.8945 49.8018C45.5504 49.8018 46.1408 48.9559 46.6655 48.1751C46.5999 48.4353 46.5343 48.6956 46.4687 48.8908C46.4031 49.1511 46.4031 49.2813 46.4031 49.4114C46.4031 49.6717 46.4687 49.8018 46.7311 49.8018C47.1247 49.8018 47.5838 49.3463 47.8462 48.9559C47.9774 48.6956 48.1085 48.5004 48.1085 48.3052C48.1085 48.2401 48.043 48.2401 48.043 48.2401C47.9774 48.2401 47.9118 48.4353 47.7806 48.6306C47.5182 49.021 47.4526 49.0861 47.3214 49.0861C47.2559 49.0861 47.2559 49.021 47.2559 49.021C47.2559 48.9559 47.3214 48.6956 47.4526 48.3052C47.8462 47.1339 48.3053 45.7674 48.6333 44.6612C48.6989 44.4009 48.6989 44.2708 48.6989 44.2057C48.6989 44.1406 48.6989 44.1406 48.6333 44.1406C48.5677 44.1406 48.5021 44.2057 48.3709 44.2057C48.1085 44.3358 47.7806 44.466 47.4526 44.466C47.2558 44.466 47.1903 44.5311 47.1903 44.5961C47.1903 44.6612 47.2558 44.6612 47.4526 44.6612C47.5838 44.7263 47.6494 44.7263 47.6494 44.8564C47.6494 44.9215 47.5838 45.0516 47.5838 45.1167C47.5182 45.377 47.387 45.7674 47.3214 46.0928C47.1247 46.0277 46.9935 45.9626 46.7967 45.9626C46.2064 45.9626 45.616 46.3531 45.1569 46.8736C44.5666 47.5243 44.3042 48.2401 44.3042 48.9559Z" fill="#9FBBE0"/>
<path fill-rule="evenodd" clip-rule="evenodd" d="M50.4045 46.2879C50.5356 46.2879 50.6668 46.3529 50.6668 46.5482C50.6668 46.6132 50.6012 46.8084 50.5356 47.0687C50.4045 47.4592 50.0109 47.9147 49.2894 47.9797C49.4862 46.8735 50.0109 46.2879 50.4045 46.2879ZM51.1916 46.7434C51.1916 46.2879 50.9292 46.0276 50.3389 46.0276C49.355 46.0276 48.1743 47.2639 48.1743 48.6304C48.1743 49.4113 48.5023 49.8668 49.0926 49.8668C49.7485 49.8668 50.3389 49.2812 50.6668 48.8257C50.7324 48.6304 50.798 48.5003 50.798 48.4352C50.798 48.3702 50.798 48.3702 50.7324 48.3702C50.6668 48.3702 50.6668 48.5003 50.4701 48.6955C50.1421 49.0859 49.8141 49.3462 49.4862 49.3462C49.2238 49.3462 49.027 49.0859 49.027 48.6955C49.027 48.5003 49.027 48.3051 49.0926 48.1749C49.1582 48.1749 49.1582 48.1749 49.2238 48.1749C50.5356 47.9797 51.1916 47.5893 51.1916 46.7434Z" fill="#9FBBE0"/>
<path fill-rule="evenodd" clip-rule="evenodd" d="M54.4053 46.4832C54.4053 47.0038 54.1429 47.3942 53.8149 47.3942C53.7493 47.3942 53.6838 47.3292 53.6182 47.2641C53.6182 47.1339 53.6838 47.0689 53.6838 46.8736C53.6838 46.8086 53.6838 46.7435 53.6182 46.7435C53.5526 46.7435 53.3558 47.0038 53.0934 47.5894C52.8966 48.0449 52.5031 48.9559 52.3063 49.5416C52.2407 49.7368 52.2407 49.8019 51.9128 49.8019C51.5192 49.8019 51.4536 49.8019 51.4536 49.7368C51.4536 49.6717 51.4536 49.6717 51.5192 49.4765C51.716 48.8258 51.9784 47.9148 52.1751 47.199C52.2407 47.0689 52.2407 46.8086 52.2407 46.7435C52.2407 46.6784 52.2407 46.6784 52.1751 46.6784C52.1095 46.6784 51.9784 46.7435 51.8472 47.0689C51.7816 47.199 51.716 47.3291 51.6504 47.3291C51.6504 47.3942 51.5848 47.3942 51.5848 47.3942C51.5192 47.3942 51.5192 47.3942 51.5192 47.3291C51.5192 47.2641 51.6504 46.8736 51.8472 46.6134C52.1095 46.3531 52.3719 46.0277 52.6999 46.0277C52.9622 46.0277 53.0934 46.1579 53.0934 46.4181C53.0934 46.6784 53.0278 47.0038 52.8311 47.6545V47.7196C53.2902 46.6784 53.6838 45.9626 54.2085 45.9626C54.2741 46.0277 54.4053 46.2229 54.4053 46.4832Z" fill="#9FBBE0"/>
<path fill-rule="evenodd" clip-rule="evenodd" d="M58.472 44.9865C58.472 45.2468 58.2752 45.5722 57.9473 45.5722C57.7505 45.5722 57.6193 45.442 57.6193 45.2468C57.6193 44.9215 57.8817 44.5961 58.0785 44.5961C58.2752 44.531 58.472 44.6612 58.472 44.9865ZM58.0785 46.4181C58.0785 46.4832 58.0129 46.8085 57.9473 47.0688C57.7505 47.5894 57.5537 48.11 57.4225 48.6305C57.3569 48.8257 57.2913 48.9559 57.2913 49.086C57.2913 49.1511 57.3569 49.1511 57.3569 49.1511C57.4225 49.1511 57.6193 49.021 57.8161 48.6305C57.9473 48.3702 57.9473 48.3052 58.0785 48.3052C58.144 48.3052 58.144 48.3052 58.144 48.3702C58.144 48.4353 58.0129 48.7607 57.8817 49.021C57.6193 49.4765 57.2258 49.8669 56.7666 49.8669C56.5042 49.8669 56.4386 49.6717 56.4386 49.4114C56.4386 49.2812 56.5042 48.9559 56.5698 48.6956C56.701 48.2401 56.8978 47.7846 57.029 47.3942C57.1602 47.0688 57.2257 46.8736 57.2257 46.7435C57.2257 46.6784 57.1602 46.6784 57.1602 46.6784C57.0946 46.6784 56.9634 46.7435 56.8322 47.0037C56.5698 47.3291 56.5698 47.4592 56.4386 47.4592L56.373 47.3942C56.373 47.3291 56.5042 47.0037 56.701 46.7435C56.9634 46.4181 57.3569 46.0927 57.7505 46.0927C57.9473 46.0277 58.0785 46.1578 58.0785 46.4181Z" fill="#9FBBE0"/>
<path fill-rule="evenodd" clip-rule="evenodd" d="M62.2762 46.5483C62.2762 46.6784 62.2106 46.8086 62.145 47.0689C62.0138 47.5894 61.7515 48.11 61.5547 48.6306C61.4891 48.8909 61.4235 49.021 61.4235 49.0861C61.4235 49.1512 61.4891 49.2162 61.4891 49.2162C61.6203 49.2162 61.7515 49.021 61.9482 48.7607C62.2106 48.4354 62.2106 48.3052 62.2762 48.3052C62.3418 48.3052 62.3418 48.3052 62.3418 48.3703C62.3418 48.4354 62.2106 48.6956 62.0138 49.021C61.7515 49.4114 61.2923 49.8669 60.8988 49.8669C60.6364 49.8669 60.4396 49.6717 60.4396 49.4114C60.4396 49.2162 60.5052 48.8258 60.702 48.4354C60.8988 47.8497 61.0955 47.4593 61.1611 47.199C61.2267 47.0038 61.2267 46.8736 61.2267 46.7435C61.2267 46.6134 61.1611 46.5483 61.0955 46.5483C60.8332 46.5483 60.5052 46.8736 60.0461 47.4593C59.7181 47.9799 59.3245 48.8909 59.0622 49.5416C58.9966 49.7368 58.9966 49.7368 58.7998 49.7368H58.5374C58.4718 49.7368 58.4062 49.6717 58.4062 49.6717C58.4062 49.6066 58.4718 49.4114 58.4718 49.2813C58.7342 48.6306 58.931 47.8497 59.1934 47.1339C59.2589 46.9387 59.2589 46.8086 59.2589 46.6784C59.2589 46.6134 59.1934 46.6134 59.1934 46.6134C59.0622 46.6134 58.931 46.7435 58.7342 47.0689C58.603 47.2641 58.5374 47.3942 58.4718 47.3942C58.4062 47.3942 58.4062 47.3942 58.4062 47.3291C58.4062 47.2641 58.5374 46.9387 58.7342 46.6784C58.9966 46.3531 59.3901 45.9626 59.7837 45.9626C60.0461 45.9626 60.1772 46.0928 60.1772 46.3531C60.1772 46.4832 60.1116 46.6784 60.1116 46.8736C60.0461 47.1339 59.9149 47.4593 59.8493 47.6545V47.6545C60.1116 47.0689 60.9643 45.9626 61.7515 45.9626C62.0794 46.0277 62.2762 46.2229 62.2762 46.5483Z" fill="#9FBBE0"/>
<path fill-rule="evenodd" clip-rule="evenodd" d="M67.8519 48.3701C68.2454 47.0036 68.5078 46.1577 68.639 45.6371C68.7046 45.3768 68.7046 45.2466 68.7046 45.1816C68.7046 45.0514 68.639 44.9864 68.4422 44.9213C68.311 44.9213 68.2454 44.8562 68.2454 44.8562C68.2454 44.7911 68.311 44.7261 68.3766 44.7261C68.5734 44.7261 68.7702 44.7911 68.9669 44.7911C69.1637 44.7911 69.2949 44.7261 69.4261 44.7261C69.4917 44.7261 69.4917 44.7911 69.4917 44.8562C69.4917 44.9213 69.4261 44.9213 69.2949 44.9213C69.0981 44.9864 69.0325 45.0514 68.9013 45.3768C68.311 47.2639 67.9831 48.5002 67.7207 49.3462C67.6551 49.7366 67.5895 49.8017 67.4583 49.8017C67.3271 49.8017 67.2615 49.6715 67.1959 49.4763L65.9497 45.572C65.5561 46.8084 65.2938 47.7844 65.097 48.4352C64.9658 48.8907 64.9002 49.1509 64.9002 49.216C64.9002 49.4112 65.0314 49.4763 65.1626 49.4763C65.2938 49.5414 65.425 49.5414 65.425 49.6064C65.425 49.6715 65.3594 49.6715 65.2938 49.6715C65.097 49.6715 64.9658 49.6715 64.6379 49.6715C64.3755 49.6715 64.2443 49.6715 64.0475 49.6715C63.9819 49.6715 63.9819 49.6715 63.9819 49.6064C63.9819 49.5414 64.0475 49.5414 64.0475 49.4763C64.2443 49.4763 64.3755 49.4112 64.4411 49.3462C64.5067 49.1509 64.6379 48.8907 64.7034 48.5653C65.1626 47.0036 65.4906 46.0926 65.6217 45.6371C65.6873 45.3768 65.6873 45.2466 65.6873 45.1816C65.6873 45.0514 65.6217 44.9864 65.425 44.9213C65.3594 44.9213 65.2938 44.8562 65.2938 44.8562C65.2938 44.7911 65.3594 44.7261 65.425 44.7261C65.6217 44.7261 65.8185 44.7911 65.9497 44.7911C66.1465 44.7911 66.2777 44.7261 66.4088 44.7261C66.4744 44.7261 66.54 44.7911 66.6056 44.9864C67.1304 46.0926 67.5239 47.2639 67.8519 48.3701Z" fill="#9FBBE0"/>
<path fill-rule="evenodd" clip-rule="evenodd" d="M71.1312 46.2879C71.2624 46.2879 71.3935 46.3529 71.3935 46.5482C71.3935 46.6132 71.3935 46.8084 71.3279 47.0687C71.1312 47.4592 70.7376 47.9147 70.0817 47.9797C70.2785 46.8735 70.8032 46.2879 71.1312 46.2879ZM72.0495 46.7434C72.0495 46.2879 71.7871 46.0276 71.1968 46.0276C70.1473 46.0276 69.0322 47.2639 69.0322 48.6304C69.0322 49.4113 69.2946 49.8668 69.8849 49.8668C70.6064 49.8668 71.1312 49.2812 71.4591 48.8257C71.5247 48.6304 71.6559 48.5003 71.6559 48.4352C71.6559 48.3702 71.5903 48.3702 71.5903 48.3702C71.5247 48.3702 71.5247 48.5003 71.3279 48.6955C71.0656 49.0859 70.672 49.3462 70.3441 49.3462C70.0817 49.3462 69.8849 49.0859 69.8849 48.6955C69.8849 48.5003 69.8849 48.3051 69.9505 48.1749C70.0161 48.1749 70.0161 48.1749 70.0817 48.1749C71.3279 47.9797 72.0495 47.5893 72.0495 46.7434Z" fill="#9FBBE0"/>
<path fill-rule="evenodd" clip-rule="evenodd" d="M75.5258 46.0927C75.657 46.0927 75.657 46.1577 75.657 46.1577C75.657 46.2228 75.657 46.2879 75.5914 46.418C75.4603 47.0037 74.8699 48.5003 74.8699 48.9558C74.8699 49.086 74.9355 49.2161 75.0667 49.2161C75.657 49.2161 76.4441 47.5893 76.4441 47.1989C76.4441 46.8735 76.2474 46.7434 76.2474 46.353C76.2474 46.0927 76.3129 45.8975 76.5097 45.8975C76.7721 45.8975 76.8377 46.1577 76.8377 46.4831C76.8377 47.329 75.657 49.7367 74.4764 49.7367C74.214 49.7367 74.0172 49.5415 74.0172 49.2812C74.0172 49.0209 74.0828 48.6955 74.1484 48.3702V48.3051C73.8861 48.7606 73.3613 49.7367 72.7054 49.7367C72.3774 49.7367 72.1807 49.4764 72.1807 49.086C72.1807 48.5003 73.0334 46.8735 73.0334 46.6133C73.0334 46.5482 72.9678 46.5482 72.9678 46.5482C72.9022 46.5482 72.771 46.6132 72.5742 46.8735C72.3118 47.264 72.3118 47.329 72.2463 47.329C72.1807 47.329 72.1807 47.329 72.1807 47.264C72.1807 47.0687 72.9022 45.8975 73.5581 45.8975C73.8205 45.8975 73.9516 46.0276 73.9516 46.2879C73.9516 46.8735 73.0989 48.5003 73.0989 48.8907C73.0989 49.0209 73.1645 49.151 73.2957 49.151C73.6237 49.151 74.0828 48.3051 74.4108 47.5242C74.6076 47.0037 74.8043 46.4831 74.8699 46.2228C74.9355 46.0276 74.9355 45.9625 75.0667 45.9625H75.5258V46.0927Z" fill="#9FBBE0"/>
<path fill-rule="evenodd" clip-rule="evenodd" d="M79.0683 48.5655C79.0683 48.8909 78.8716 49.2162 78.6092 49.4114C78.3468 49.6717 78.0189 49.8019 77.6253 49.8019C77.363 49.8019 76.9694 49.7368 76.7726 49.5416C76.707 49.4765 76.707 49.4765 76.707 49.3464C76.707 49.2813 76.707 48.9559 76.7726 48.6957C76.8382 48.4354 76.8382 48.3052 76.9694 48.3052C77.035 48.3052 77.1006 48.3703 77.1006 48.5655C77.1662 49.021 77.363 49.5416 77.7565 49.5416C78.0189 49.5416 78.1501 49.2813 78.1501 49.021C78.1501 48.6957 77.9533 48.3703 77.6909 48.1751C77.4941 47.9148 77.2318 47.5894 77.2318 47.199C77.2318 46.5483 77.8221 45.9626 78.478 45.9626C78.806 45.9626 79.3307 46.0277 79.3307 46.288C79.3307 46.4181 79.2651 46.5483 79.2651 46.7435C79.1995 47.0038 79.1339 47.1339 79.0027 47.1339C78.8716 47.1339 78.806 46.8736 78.7404 46.6784C78.6748 46.4181 78.6092 46.2229 78.3468 46.2229C78.0845 46.2229 77.8877 46.4832 77.8877 46.6784C77.8877 46.9387 78.1501 47.2641 78.3468 47.5244C78.806 47.9148 79.0683 48.1751 79.0683 48.5655Z" fill="#9FBBE0"/>
<path fill-rule="evenodd" clip-rule="evenodd" d="M83.5939 45.5069C83.6595 45.3117 83.6595 45.1165 83.7251 45.0514C83.7907 44.9864 84.1186 44.9864 84.2498 44.9864C84.9057 44.9864 85.0369 45.3768 85.0369 45.9624C85.0369 46.6132 84.7745 47.6543 84.381 48.3701C83.9874 49.0859 83.5283 49.4763 82.8724 49.4763C82.61 49.4763 82.5444 49.4112 82.5444 49.216C82.5444 49.0859 82.61 48.7605 82.61 48.5653L83.5939 45.5069ZM81.6261 49.1509C81.5605 49.4112 81.4294 49.4763 81.167 49.5414C81.1014 49.5414 80.9702 49.6064 80.9702 49.6715C80.9702 49.7366 81.0358 49.7366 81.167 49.7366C81.2982 49.7366 81.5605 49.7366 81.8885 49.7366C82.2165 49.7366 82.6756 49.7366 83.1347 49.7366C83.9874 49.7366 84.7745 49.3462 85.2337 48.6954C85.6928 47.9797 85.9552 47.0687 85.9552 46.2878C85.9552 45.8323 85.8896 45.4419 85.5616 45.1816C85.2993 44.9213 84.9057 44.7261 84.5122 44.7261C84.1186 44.7261 83.6595 44.7911 83.2659 44.7911C83.0036 44.7911 82.7412 44.7261 82.4788 44.7261C82.3476 44.7261 82.2165 44.7911 82.2165 44.8562C82.2165 44.9213 82.282 44.9213 82.4132 44.9864C82.61 44.9864 82.6756 45.0514 82.6756 45.2466C82.6756 45.3768 82.61 45.6371 82.61 45.7672L81.6261 49.1509Z" fill="#9FBBE0"/>
<path fill-rule="evenodd" clip-rule="evenodd" d="M88.2508 44.9865C88.2508 45.2468 87.9884 45.5722 87.7261 45.5722C87.4637 45.5722 87.3325 45.442 87.3325 45.2468C87.3325 44.9215 87.5949 44.5961 87.8572 44.5961C88.054 44.531 88.2508 44.6612 88.2508 44.9865ZM87.8572 46.4181C87.8572 46.4832 87.7916 46.8085 87.6605 47.0688C87.5293 47.5894 87.3325 48.11 87.1357 48.6305C87.0701 48.8257 87.0701 48.9559 87.0701 49.086C87.0701 49.1511 87.0701 49.1511 87.1357 49.1511C87.2013 49.1511 87.3325 49.021 87.5949 48.6305C87.7261 48.3702 87.7261 48.3052 87.8572 48.3052C87.9228 48.3052 87.9228 48.3052 87.9228 48.3702C87.9228 48.4353 87.8572 48.7607 87.6605 49.021C87.3981 49.4765 87.0045 49.8669 86.611 49.8669C86.3486 49.8669 86.2174 49.6717 86.2174 49.4114C86.2174 49.2812 86.283 48.9559 86.4142 48.6956C86.5454 48.2401 86.7422 47.7846 86.8734 47.3942C86.939 47.0688 87.0045 46.8736 87.0045 46.7435C87.0045 46.6784 87.0045 46.6784 86.939 46.6784C86.8734 46.6784 86.7422 46.7435 86.5454 47.0037C86.283 47.3291 86.283 47.4592 86.2174 47.4592C86.1518 47.4592 86.1519 47.3942 86.1519 47.3942C86.1519 47.3291 86.283 47.0037 86.4798 46.7435C86.7422 46.4181 87.1357 46.0927 87.5293 46.0927C87.7261 46.0277 87.8572 46.1578 87.8572 46.4181Z" fill="#9FBBE0"/>
<path fill-rule="evenodd" clip-rule="evenodd" d="M90.2187 48.5655C90.2187 48.8909 90.0875 49.2162 89.8252 49.4114C89.5628 49.6717 89.2349 49.8019 88.8413 49.8019C88.5789 49.8019 88.1854 49.7368 87.9886 49.5416C87.923 49.4765 87.8574 49.4765 87.8574 49.3464C87.8574 49.2813 87.923 48.9559 87.923 48.6957C87.9886 48.4354 88.0542 48.3052 88.1854 48.3052C88.251 48.3052 88.251 48.3703 88.3166 48.5655C88.3822 49.021 88.5133 49.5416 88.9725 49.5416C89.2349 49.5416 89.4316 49.2813 89.4316 49.021C89.4316 48.6957 89.2349 48.3703 88.9725 48.1751C88.7101 47.9148 88.5133 47.5894 88.5133 47.199C88.5133 46.5483 89.1037 45.9626 89.7596 45.9626C90.0876 45.9626 90.6123 46.0277 90.6123 46.288C90.6123 46.4181 90.5467 46.5483 90.5467 46.7435C90.4811 47.0038 90.4155 47.1339 90.2843 47.1339C90.1531 47.1339 90.0876 46.8736 90.022 46.6784C89.9564 46.4181 89.8908 46.2229 89.6284 46.2229C89.366 46.2229 89.1693 46.4832 89.1693 46.6784C89.1693 46.9387 89.366 47.2641 89.6284 47.5244C89.9564 47.9148 90.2187 48.1751 90.2187 48.5655Z" fill="#9FBBE0"/>
<path fill-rule="evenodd" clip-rule="evenodd" d="M90.6777 49.4114C90.6777 49.2813 90.7433 48.9559 90.8745 48.5655C91.0057 48.1751 91.3337 47.199 91.5304 46.4181H91.0713C91.0057 46.4181 91.0057 46.4181 91.0057 46.3531C91.0713 46.288 91.0713 46.288 91.0713 46.2229C91.0713 46.1579 91.1369 46.1579 91.1369 46.1579H91.596L91.924 45.1167C91.9896 45.0516 91.9896 44.9866 92.0552 44.9866C92.1208 44.9866 92.2519 44.9866 92.3175 44.9866C92.3831 44.9866 92.5143 44.9866 92.5799 44.9866C92.6455 44.9866 92.6455 44.9866 92.6455 45.0516C92.6455 45.1167 92.6455 45.1818 92.5799 45.3119C92.5143 45.5071 92.3831 45.8325 92.3175 46.1579H92.9079C92.9734 46.1579 92.9734 46.1579 92.9734 46.2229C92.9734 46.288 92.9734 46.288 92.9734 46.3531C92.9079 46.4181 92.9079 46.4181 92.9079 46.4181H92.2519C91.9896 47.3942 91.7928 47.9799 91.596 48.3703C91.5304 48.8258 91.3992 48.9559 91.3992 49.021C91.3992 49.0861 91.4648 49.1511 91.5304 49.1511C91.596 49.1511 91.7272 49.0861 91.924 48.8258C92.1863 48.4354 92.1863 48.2401 92.3175 48.2401C92.3831 48.2401 92.3831 48.3052 92.3831 48.3052C92.3831 48.3703 92.3175 48.6306 92.1208 48.8909C91.8584 49.3464 91.3992 49.8019 90.9401 49.8019C90.8089 49.8669 90.6777 49.7368 90.6777 49.4114Z" fill="#9FBBE0"/>
<path fill-rule="evenodd" clip-rule="evenodd" d="M95.8594 46.4832C95.8594 47.0038 95.597 47.3942 95.269 47.3942C95.2034 47.3942 95.0723 47.3292 95.0723 47.2641C95.0067 47.1339 95.1378 47.0689 95.1378 46.8736C95.1378 46.8086 95.0723 46.7435 95.0723 46.7435C95.0067 46.7435 94.8099 47.0038 94.5475 47.5894C94.2851 48.0449 93.9572 48.9559 93.7604 49.5416C93.6948 49.7368 93.6948 49.8019 93.3013 49.8019C92.9077 49.8019 92.9077 49.8019 92.9077 49.7368C92.9077 49.6717 92.9077 49.6717 92.9733 49.4765C93.1701 48.8258 93.4325 47.9148 93.6292 47.199C93.6292 47.0689 93.6948 46.8086 93.6948 46.7435C93.6948 46.6784 93.6292 46.6784 93.6292 46.6784C93.5636 46.6784 93.4325 46.7435 93.2357 47.0689C93.1701 47.199 93.1701 47.3291 93.1045 47.3291C93.0389 47.3942 93.0389 47.3942 93.0389 47.3942C92.9733 47.3942 92.9733 47.3942 92.9733 47.3291C92.9733 47.2641 93.1045 46.8736 93.3013 46.6134C93.5636 46.3531 93.826 46.0277 94.154 46.0277C94.4163 46.0277 94.4819 46.1579 94.4819 46.4181C94.4819 46.6784 94.4163 47.0038 94.2196 47.6545V47.7196C94.6787 46.6784 95.0723 45.9626 95.597 45.9626C95.7938 46.0277 95.8594 46.2229 95.8594 46.4832Z" fill="#9FBBE0"/>
<path fill-rule="evenodd" clip-rule="evenodd" d="M98.0239 44.9865C98.0239 45.2468 97.8271 45.5722 97.5648 45.5722C97.3024 45.5722 97.1712 45.442 97.1712 45.2468C97.1712 44.9215 97.4336 44.5961 97.6959 44.5961C97.8927 44.531 98.0239 44.6612 98.0239 44.9865ZM97.6959 46.4181C97.6959 46.4832 97.6304 46.8085 97.4992 47.0688C97.368 47.5894 97.1712 48.11 96.9744 48.6305C96.9089 48.8257 96.9088 48.9559 96.9088 49.086C96.9088 49.1511 96.9089 49.1511 96.9744 49.1511C97.1056 49.1511 97.2368 49.021 97.4336 48.6305C97.5648 48.3702 97.5648 48.3052 97.6959 48.3052C97.7615 48.3052 97.7615 48.3052 97.7615 48.3702C97.7615 48.4353 97.6959 48.7607 97.4992 49.021C97.2368 49.4765 96.8433 49.8669 96.4497 49.8669C96.1873 49.8669 96.0562 49.6717 96.0562 49.4114C96.0562 49.2812 96.1217 48.9559 96.2529 48.6956C96.3841 48.2401 96.5153 47.7846 96.7121 47.3942C96.7777 47.0688 96.8433 46.8736 96.8433 46.7435C96.8433 46.6784 96.8433 46.6784 96.7777 46.6784C96.7121 46.6784 96.6465 46.7435 96.4497 47.0037C96.1873 47.3291 96.1873 47.4592 96.1217 47.4592C96.0562 47.4592 96.0562 47.3942 96.0562 47.3942C96.0562 47.3291 96.1217 47.0037 96.3841 46.7435C96.6465 46.4181 97.04 46.0927 97.4336 46.0927C97.5648 46.0277 97.6959 46.1578 97.6959 46.4181Z" fill="#9FBBE0"/>
<path fill-rule="evenodd" clip-rule="evenodd" d="M100.713 47.0687C100.713 47.7194 99.8605 49.6716 99.0734 49.6716C98.811 49.6716 98.7454 49.5414 98.7454 49.3462C98.7454 48.6955 99.8605 46.6132 100.385 46.6132C100.648 46.6132 100.713 46.7434 100.713 47.0687ZM101.631 47.0687C101.631 46.6132 101.5 46.0276 100.91 46.0276C100.254 46.0276 99.6637 47.0036 99.2702 47.3941L100.123 44.8563C100.188 44.4659 100.254 44.3357 100.254 44.2706C100.254 44.2056 100.254 44.2056 100.188 44.2056L100.123 44.2706C99.8605 44.4008 99.5325 44.5309 99.0734 44.5309C98.8766 44.5309 98.811 44.596 98.811 44.6611C98.811 44.7261 98.8766 44.7261 99.0734 44.7261C99.2046 44.7912 99.2702 44.7912 99.2702 44.9864C99.2702 45.0515 99.2046 45.1816 99.2046 45.3769C99.0734 46.0276 98.6143 47.1989 98.3519 48.0448C98.2863 48.4352 98.2207 48.7606 98.2207 48.8907C98.2207 49.5414 98.6798 49.8668 99.2046 49.8668C100.451 49.8668 101.631 48.3701 101.631 47.0687Z" fill="#9FBBE0"/>
<path fill-rule="evenodd" clip-rule="evenodd" d="M102.025 49.3462C102.025 49.2161 102.091 49.0209 102.156 48.6955C102.353 48.1749 102.616 47.5242 102.812 47.0687C102.878 46.8735 102.878 46.7434 102.878 46.6783C102.878 46.6132 102.878 46.6132 102.812 46.6132C102.747 46.6132 102.55 46.7434 102.353 47.0037C102.091 47.2639 102.091 47.4592 101.96 47.4592C101.894 47.4592 101.894 47.3941 101.894 47.3941C101.894 47.1989 102.616 46.0276 103.403 46.0276C103.599 46.0276 103.731 46.1577 103.731 46.418C103.731 46.4831 103.665 46.7434 103.599 47.0037C103.468 47.4592 103.206 48.0448 103.009 48.4352C102.944 48.6955 102.878 48.8907 102.878 49.0209C102.878 49.151 102.944 49.151 103.009 49.151C103.206 49.151 103.534 48.8256 103.927 48.3051C104.255 47.7845 104.649 47.0687 104.977 46.2228C104.977 46.1577 105.042 46.1577 105.108 46.0927C105.239 46.0927 105.567 46.0927 105.698 46.0927C105.764 46.0927 105.764 46.1577 105.764 46.1577C105.764 46.2228 105.764 46.2879 105.698 46.3529C105.567 46.8084 105.108 47.9147 104.911 48.5654C104.846 48.7606 104.846 48.9558 104.846 49.0209C104.846 49.0859 104.911 49.0859 104.911 49.0859C104.977 49.0859 105.108 49.0209 105.37 48.6304C105.633 48.3701 105.633 48.24 105.698 48.24C105.764 48.24 105.764 48.24 105.764 48.3051C105.764 48.5003 104.977 49.8017 104.19 49.8017C103.993 49.8017 103.862 49.6716 103.862 49.4113C103.862 49.151 103.993 48.7606 104.124 48.24C103.731 48.8907 102.878 49.8017 102.288 49.8017C102.156 49.8668 102.025 49.6716 102.025 49.3462Z" fill="#9FBBE0"/>
<path fill-rule="evenodd" clip-rule="evenodd" d="M106.158 49.4114C106.158 49.2813 106.223 48.9559 106.289 48.5655C106.42 48.1751 106.748 47.199 107.01 46.4181H106.486C106.42 46.4181 106.42 46.4181 106.42 46.3531C106.486 46.288 106.486 46.288 106.486 46.2229C106.551 46.1579 106.551 46.1579 106.551 46.1579H107.01L107.404 45.1167C107.404 45.0516 107.47 44.9866 107.47 44.9866C107.535 44.9866 107.666 44.9866 107.732 44.9866C107.798 44.9866 107.929 44.9866 107.994 44.9866C108.06 44.9866 108.06 44.9866 108.06 45.0516C108.06 45.1167 108.06 45.1818 107.994 45.3119C107.929 45.5071 107.798 45.8325 107.732 46.1579H108.388C108.453 46.1579 108.453 46.1579 108.453 46.2229C108.388 46.288 108.388 46.288 108.388 46.3531C108.388 46.4181 108.322 46.4181 108.322 46.4181H107.732C107.404 47.3942 107.207 47.9799 107.076 48.3703C106.945 48.8258 106.879 48.9559 106.879 49.021C106.879 49.0861 106.945 49.1511 106.945 49.1511C107.01 49.1511 107.142 49.0861 107.338 48.8258C107.601 48.4354 107.601 48.2401 107.732 48.2401C107.798 48.2401 107.798 48.3052 107.798 48.3052C107.798 48.3703 107.732 48.6306 107.535 48.8909C107.273 49.3464 106.814 49.8019 106.42 49.8019C106.289 49.8669 106.158 49.7368 106.158 49.4114Z" fill="#9FBBE0"/>
<path fill-rule="evenodd" clip-rule="evenodd" d="M110.552 44.9865C110.552 45.2468 110.355 45.5722 110.027 45.5722C109.831 45.5722 109.699 45.442 109.699 45.2468C109.699 44.9215 109.962 44.5961 110.224 44.5961C110.421 44.531 110.552 44.6612 110.552 44.9865ZM110.159 46.4181C110.159 46.4832 110.093 46.8085 110.027 47.0688C109.831 47.5894 109.634 48.11 109.503 48.6305C109.437 48.8257 109.371 48.9559 109.371 49.086C109.371 49.1511 109.437 49.1511 109.437 49.1511C109.503 49.1511 109.699 49.021 109.896 48.6305C110.027 48.3702 110.027 48.3052 110.093 48.3052C110.159 48.3052 110.159 48.3052 110.159 48.3702C110.159 48.4353 110.093 48.7607 109.896 49.021C109.634 49.4765 109.24 49.8669 108.781 49.8669C108.519 49.8669 108.453 49.6717 108.453 49.4114C108.453 49.2812 108.519 48.9559 108.584 48.6956C108.781 48.2401 108.912 47.7846 109.043 47.3942C109.175 47.0688 109.24 46.8736 109.24 46.7435C109.24 46.6784 109.175 46.6784 109.175 46.6784C109.109 46.6784 108.978 46.7435 108.847 47.0037C108.584 47.3291 108.584 47.4592 108.519 47.4592C108.453 47.4592 108.453 47.3942 108.453 47.3942C108.453 47.3291 108.584 47.0037 108.847 46.7435C109.109 46.4181 109.503 46.0927 109.896 46.0927C110.027 46.0277 110.159 46.1578 110.159 46.4181Z" fill="#9FBBE0"/>
<path fill-rule="evenodd" clip-rule="evenodd" d="M112.913 46.9386C112.913 47.3941 112.651 48.24 112.454 48.6955C112.192 49.2812 111.93 49.6065 111.667 49.6065C111.405 49.6065 111.208 49.4113 111.208 48.9558C111.208 48.5003 111.47 47.6544 111.667 47.1989C111.93 46.5482 112.192 46.2228 112.454 46.2228C112.717 46.2879 112.913 46.4831 112.913 46.9386ZM113.635 47.4592C113.635 46.5482 113.176 46.0276 112.389 46.0276C111.339 46.0276 110.421 47.2639 110.421 48.4352C110.421 49.2812 110.88 49.8668 111.667 49.8668C112.258 49.8668 112.717 49.5414 113.11 49.0209C113.438 48.5654 113.635 47.9797 113.635 47.4592Z" fill="#9FBBE0"/>
<path fill-rule="evenodd" clip-rule="evenodd" d="M117.833 46.5483C117.833 46.6784 117.767 46.8086 117.702 47.0689C117.57 47.5894 117.308 48.11 117.111 48.6306C117.046 48.8909 116.98 49.021 116.98 49.0861C116.98 49.1512 117.046 49.2162 117.046 49.2162C117.177 49.2162 117.308 49.021 117.505 48.7607C117.767 48.4354 117.767 48.3052 117.833 48.3052C117.898 48.3052 117.898 48.3052 117.898 48.3703C117.898 48.4354 117.767 48.6956 117.57 49.021C117.308 49.4114 116.849 49.8669 116.39 49.8669C116.127 49.8669 115.996 49.6717 115.996 49.4114C115.996 49.2162 116.062 48.8258 116.259 48.4354C116.455 47.8497 116.652 47.4593 116.718 47.199C116.783 47.0038 116.783 46.8736 116.783 46.7435C116.783 46.6134 116.718 46.5483 116.587 46.5483C116.39 46.5483 116.062 46.8736 115.603 47.4593C115.275 47.9799 114.881 48.8909 114.619 49.5416C114.553 49.7368 114.553 49.7368 114.356 49.7368H113.963C113.897 49.7368 113.832 49.6717 113.832 49.6717C113.832 49.6066 113.897 49.4114 113.897 49.2813C114.16 48.6306 114.356 47.8497 114.619 47.1339C114.684 46.9387 114.684 46.8086 114.684 46.6784C114.684 46.6134 114.619 46.6134 114.553 46.6134C114.488 46.6134 114.291 46.7435 114.094 47.0689C113.963 47.2641 113.897 47.3942 113.832 47.3942C113.766 47.3942 113.766 47.3942 113.766 47.3291C113.766 47.2641 113.897 46.9387 114.094 46.6784C114.356 46.3531 114.75 45.9626 115.144 45.9626C115.406 45.9626 115.537 46.0928 115.537 46.3531C115.537 46.4832 115.472 46.6784 115.472 46.8736C115.406 47.1339 115.275 47.4593 115.209 47.6545H115.275C115.537 47.0689 116.39 45.9626 117.177 45.9626C117.636 46.0277 117.833 46.2229 117.833 46.5483Z" fill="#9FBBE0"/>
</svg>
