<svg width="64" height="64" viewBox="0 0 64 64" fill="none" xmlns="http://www.w3.org/2000/svg">
<path d="M32 53C43.598 53 53 43.598 53 32C53 20.402 43.598 11 32 11C20.402 11 11 20.402 11 32C11 43.598 20.402 53 32 53Z" fill="white"/>
<path d="M32 49C41.3888 49 49 41.3888 49 32C49 22.6112 41.3888 15 32 15C22.6112 15 15 22.6112 15 32C15 41.3888 22.6112 49 32 49Z" fill="#75B8FA"/>
<path d="M32 4.00001C38.78 3.99424 45.3318 6.44873 50.4391 10.9078C55.5464 15.367 58.8622 21.5278 59.7711 28.2465C60.68 34.9653 59.1201 41.7857 55.3811 47.4415C51.642 53.0973 45.9778 57.2042 39.44 59" stroke="#A8A0A2" stroke-width="2" stroke-miterlimit="10"/>
<path d="M32.0005 60C25.2205 60.0058 18.6687 57.5513 13.5614 53.0922C8.45409 48.6331 5.13822 42.4723 4.22935 35.7535C3.32048 29.0347 4.88035 22.2143 8.61939 16.5585C12.3584 10.9028 18.0226 6.79577 24.5605 5" stroke="#A8A0A2" stroke-width="2" stroke-miterlimit="10"/>
<path d="M32 63C33.6569 63 35 61.6569 35 60C35 58.3431 33.6569 57 32 57C30.3431 57 29 58.3431 29 60C29 61.6569 30.3431 63 32 63Z" fill="white"/>
<path d="M32 63C33.6569 63 35 61.6569 35 60C35 58.3431 33.6569 57 32 57C30.3431 57 29 58.3431 29 60C29 61.6569 30.3431 63 32 63Z" stroke="#A8A0A2" stroke-width="2" stroke-miterlimit="10"/>
<path d="M32 7C33.6569 7 35 5.65685 35 4C35 2.34315 33.6569 1 32 1C30.3431 1 29 2.34315 29 4C29 5.65685 30.3431 7 32 7Z" fill="white"/>
<path d="M32 7C33.6569 7 35 5.65685 35 4C35 2.34315 33.6569 1 32 1C30.3431 1 29 2.34315 29 4C29 5.65685 30.3431 7 32 7Z" stroke="#A8A0A2" stroke-width="2" stroke-miterlimit="10"/>
<path d="M52 38.42C50.4726 43.1909 47.29 47.2586 43.0268 49.889C38.7635 52.5193 33.7004 53.539 28.7513 52.7641C23.8022 51.9891 19.2931 49.4705 16.038 45.6629C12.7828 41.8553 10.996 37.0094 11 32" stroke="#524A4D" stroke-width="2" stroke-miterlimit="10"/>
<path d="M12 25.58C13.5274 20.8091 16.71 16.7414 20.9732 14.1111C25.2365 11.4807 30.2996 10.461 35.2487 11.2359C40.1978 12.0109 44.7069 14.5295 47.962 18.3371C51.2172 22.1448 53.004 26.9906 53 32" stroke="#524A4D" stroke-width="2" stroke-miterlimit="10"/>
<path d="M53 35C54.6569 35 56 33.6569 56 32C56 30.3431 54.6569 29 53 29C51.3431 29 50 30.3431 50 32C50 33.6569 51.3431 35 53 35Z" fill="#FF7652"/>
<path d="M11 35C12.6569 35 14 33.6569 14 32C14 30.3431 12.6569 29 11 29C9.34315 29 8 30.3431 8 32C8 33.6569 9.34315 35 11 35Z" fill="#FF7652"/>
<path d="M53 35C54.6569 35 56 33.6569 56 32C56 30.3431 54.6569 29 53 29C51.3431 29 50 30.3431 50 32C50 33.6569 51.3431 35 53 35Z" stroke="#524A4D" stroke-width="2" stroke-miterlimit="10"/>
<path d="M11 35C12.6569 35 14 33.6569 14 32C14 30.3431 12.6569 29 11 29C9.34315 29 8 30.3431 8 32C8 33.6569 9.34315 35 11 35Z" stroke="#524A4D" stroke-width="2" stroke-miterlimit="10"/>
<path d="M14 32H50" stroke="#524A4D" stroke-width="2" stroke-miterlimit="10"/>
<path d="M32 11V53" stroke="#524A4D" stroke-width="2" stroke-miterlimit="10"/>
<path d="M32 53C38.0751 53 43 43.598 43 32C43 20.402 38.0751 11 32 11C25.9249 11 21 20.402 21 32C21 43.598 25.9249 53 32 53Z" stroke="#524A4D" stroke-width="2" stroke-miterlimit="10"/>
</svg>
