<?xml version="1.0" encoding="utf-8"?>
<!-- Generator: Adobe Illustrator 22.1.0, SVG Export Plug-In . SVG Version: 6.00 Build 0)  -->
<svg version="1.1" xmlns="http://www.w3.org/2000/svg" xmlns:xlink="http://www.w3.org/1999/xlink" x="0px" y="0px"
	 viewBox="0 0 745.5 191.6" style="enable-background:new 0 0 745.5 191.6;" xml:space="preserve">
<style type="text/css">
	.st0{fill-rule:evenodd;clip-rule:evenodd;fill:#A80000;}
	.st1{fill:#555555;}
	.st2{fill:#A80000;}
</style>
<g id="Layer_1">
</g>
<g id="Layer_2">
	<path class="st0" d="M108.1,158.3c-0.9,1.1-1.8,2.2-2.7,3.3c-8.4,10.1-17.9,19-28.5,26.5c2.1,1.2,4.3,2.5,6.5,3.6h1.8
		c1.2-0.6,2.3-1.3,3.4-1.9c7-5.5,13.4-11.7,19.4-18.4c1.1,1.2,2.2,2.4,3.3,3.5c2.3-1.7,4.5-3.5,6.6-5.3c-2.3-2.4-4.5-4.9-6.6-7.4
		C110.2,160.9,109.2,159.6,108.1,158.3L108.1,158.3z M44.8,142.9c1.1,0,2.2,0.2,3.2,0.6c11.7-8.7,21-20,28.4-33
		c2.7-4.7,4.7-11.4,10.8-8.6c5.7,2.6,0.7,10.5-1.8,14.7c-8.2,14.2-18.6,26.5-31.5,36c-0.3,4.8-4.3,8.6-9.2,8.6
		c-5.1,0-9.2-4.1-9.2-9.2C35.6,147,39.8,142.9,44.8,142.9L44.8,142.9z M44.8,146.2c-3.3,0-5.9,2.6-5.9,5.9c0,3.3,2.6,5.9,5.9,5.9
		c3.3,0,5.9-2.6,5.9-5.9C50.7,148.8,48.1,146.2,44.8,146.2L44.8,146.2z M72.2,47.3c-4.5,0-8.3,3.3-9,7.6c-0.5,0.2-0.9,0.4-1.4,0.6
		c-13.5,6.1-22.3,16.1-29,29.1c-0.2,0.3-0.3,0.6-0.5,0.9c-0.8,1.4-1.7,2.8-2.6,4.2c-0.5-0.1-1.1-0.2-1.7-0.2c-5.1,0-9.2,4.1-9.2,9.2
		c0,1,0.2,2,0.5,2.9c-2.9,2.4-6.2,4.4-10,5.8l-1.7,0.7c0.9,2.7,1.9,5.3,3,7.9l1.8-0.7c4.9-1.9,9.2-4.6,13-7.8
		c0.8,0.3,1.7,0.4,2.7,0.4c5.1,0,9.2-4.1,9.2-9.2c0-1.4-0.3-2.7-0.8-3.8c1.2-1.7,2.3-3.5,3.3-5.3c0.2-0.4,0.4-0.8,0.6-1.2
		c5.8-11.2,13.2-19.9,25-25.2l0.4-0.2c1.7,1.7,4,2.7,6.5,2.7c4.1,0,7.6-2.7,8.8-6.5c8-0.6,16.1,0.9,23.6,4.2
		c7.4,3.3,13.8,8.5,18.6,15.1l0.1,0.2l0.1,0.2c1.7,2.6,3.2,5.3,4.5,8c5.6,11,8.9,23,10.6,35.2c0.5,2.5,0.8,5.1,1.1,7.6
		c0.2,0.5,0.5,1.1,0.8,1.4c1.9,2.4,3.8,4.7,5.8,7c1.6-2.5,3.2-5,4.6-7.5c-1-1.2-2-2.4-3-3.7c-0.3-2.1-0.6-4.2-1-6.3
		c-1.8-13-5.4-25.8-11.4-37.6c-1.5-3-3.2-5.9-5-8.7l-0.3-0.4l-0.3-0.4c-5.6-7.8-13.2-13.9-22-17.8C99,51.6,89.1,50,79.4,50.8
		C77.8,48.7,75.2,47.3,72.2,47.3L72.2,47.3z M72.2,50.6c3.3,0,5.9,2.6,5.9,5.9c0,3.3-2.6,5.9-5.9,5.9c-3.3,0-5.9-2.6-5.9-5.9
		C66.3,53.3,69,50.6,72.2,50.6L72.2,50.6z M28.1,92.8c3.3,0,5.9,2.6,5.9,5.9c0,3.3-2.6,5.9-5.9,5.9c-3.3,0-5.9-2.6-5.9-5.9
		C22.2,95.5,24.9,92.8,28.1,92.8L28.1,92.8z M123.2,96.6l-0.1-0.2l-0.1-0.2l-0.2-0.4l-0.1-0.2l-0.2-0.4l-0.1-0.2l-0.2-0.4l-0.1-0.2
		l-0.2-0.4l0-0.1l-0.2-0.5l0-0.1l-0.1-0.1l-0.2-0.4l-0.1-0.2l-0.2-0.4l-0.1-0.1l-0.2-0.5l0,0l-0.3-0.5l-0.1-0.2l-0.1-0.2l-0.1-0.1
		l0-0.1l0,0l-0.5-1.1l0,0l-0.3-0.6l-0.3-0.5l0,0l0,0l-0.6-1l0,0l0,0l-0.3-0.5l0,0l0,0l-0.3-0.5l0,0l0,0l-0.3-0.5l0,0l0,0l0,0l-0.6-1
		l0,0l0,0l-0.2-0.4l-0.4-0.7c-3.9-5.3-9.1-9.6-15.3-12.3c-10.3-4.6-22-4.9-32.3-0.2c-10,4.5-16.1,12-20.9,21.4
		c-0.2,0.5-0.5,1-0.7,1.4c-7.5,13-17.3,23.9-31.6,29.4l-1.4,0.5c1.2,2.5,2.6,5,4,7.5l0.4-0.2c16.1-6.3,27.4-18.4,35.9-33.1
		c0.3-0.6,0.6-1.2,0.9-1.7c4-7.7,8.7-13.9,16.9-17.6c8.2-3.7,17.3-3.4,25.4,0.2c3.9,1.8,7.4,4.3,10.2,7.5l0,0
		c2.8,3.2,5.3,7.5,7.5,12.9c-1.6,1.7-2.6,3.9-2.6,6.4c0,4.4,3.1,8.1,7.2,9c0.4,1.7,0.7,3.5,1.1,5.4c0.2,1,0.4,1.9,0.5,2.9
		c0.9,3.4,1.2,7.1,1.5,10c0.5,2.6,2.4,6.4,4,8.5c2.8,3.6,5.8,7.1,8.9,10.4c1.9-2.2,3.6-4.4,5.3-6.6c-2.7-2.9-5.2-5.8-7.6-8.9
		c-0.8-1.1-1.9-3.3-2.3-4.7c-0.3-2.6-0.6-5.4-1.2-8.1l-0.1-0.7l0-0.2l-0.1-0.5l0-0.2l-0.1-0.5l0-0.1l-0.1-0.7l0,0l-0.1-0.7l0-0.2
		l-0.1-0.5l0-0.2l-0.1-0.6l0-0.1l-0.1-0.7l0-0.2l-0.1-0.5l0-0.2l-0.1-0.4l0-0.2l-0.1-0.5l0-0.2l-0.1-0.6l0-0.1l-0.1-0.5l-0.1-0.2
		l-0.1-0.4l0-0.2l-0.3-1.2c1.8-1.7,2.9-4,2.9-6.7C131.1,101.1,127.7,97.2,123.2,96.6L123.2,96.6z M121.9,99.8c3.3,0,5.9,2.6,5.9,5.9
		c0,3.3-2.6,5.9-5.9,5.9c-3.3,0-5.9-2.6-5.9-5.9C116,102.4,118.7,99.8,121.9,99.8L121.9,99.8z M84.6,156.2c0.9,0,1.9,0.1,2.7,0.4
		c6.3-6.8,11.9-14.2,17-22.2c1.3-2,2.5-4,3.7-6.1c0.7-1.3,1.4-2.5,2.1-3.8c0.4-0.8,0.8-1.6,1.1-2.4l0,0l0,0l0.1-0.1l0.1-0.1l0,0
		l0.1,0l0,0l0.1,0l0,0l0.1,0l0,0l0.1,0h0c0,0,0,0,0.1,0l0,0l0.1,0l0,0l0.1,0l0,0l0.1,0l0,0c0,0,0.1,0.1,0.1,0.1l0,0l0.1,0.1l0,0
		l0.1,0.1l0,0l0.1,0.1l0,0l0.1,0.1l0,0l0.1,0.1l0,0l0.1,0.1l0,0l0.1,0.1l0,0.1l0,0.1l0,0l0.1,0.2l0.1,0.2l0,0l0.1,0.2l0,0l0.1,0.2
		l0,0l0.1,0.2l0,0l0.1,0.2l0,0l0.1,0.2l0,0l0.1,0.2l0,0l0,0l0,0.1l0.1,0.2l0,0l0.1,0.2l0,0.1l0,0.2l0,0.1l0,0l0,0l0.1,0.3l0,0.1
		l0.1,0.3l0,0l0.1,0.3l0,0l0.1,0.3l0,0l0,0.1l0,0.2l0,0.1l0,0.3l0,0.1l0,0.1l0,0.3l0,0l0,0.1l0,0.3l0,0.1l0,0.3l0,0.1l0.1,0.4l0,0
		l0.1,0.4l0,0.1l0,0.1l0,0.3l0,0.1l0,0.2l0,0.3l0,0.1l0,0.4l0,0l0,0.1l0,0.3l0,0.1l0.1,1v0l0,0.4l0,0l0,0.1c0,0.2,0,0.4,0.1,0.5
		c0.5,3.2,2.7,8.6,5.7,12.4c3.1,4,6.4,7.9,9.9,11.5c-1.9,2-3.9,4-6,5.9c-2.2-2.3-4.4-4.7-6.5-7.2c-10.7-12.8-7.8-14-18.8-0.7
		c-1.8,2.2-3.7,4.3-5.6,6.4c0.3,0.9,0.5,1.9,0.5,2.8c0,5.1-4.1,9.2-9.2,9.2c-1.1,0-2.2-0.2-3.2-0.6c-3.9,3.3-8,6.4-12.2,9.2
		c-2.6-1.7-5.1-3.4-7.6-5.2c5-3.1,9.7-6.6,14.2-10.3c-0.2-0.7-0.3-1.5-0.3-2.3C75.4,160.3,79.5,156.2,84.6,156.2L84.6,156.2z
		 M84.6,159.5c3.3,0,5.9,2.6,5.9,5.9c0,3.3-2.6,5.9-5.9,5.9c-3.3,0-5.9-2.6-5.9-5.9C78.7,162.1,81.4,159.5,84.6,159.5L84.6,159.5z
		 M157.1,90.8c-1.8-5.2-4-10.4-6.5-15.3c-1.8-3.5-3.7-6.9-5.8-10.2l-0.5-0.9l-0.6-0.8c-7.4-10.1-17.3-18.1-28.7-23.3
		c-19.1-8.6-40.9-8.9-60.1-0.2c-17,7.7-28.6,20.3-37,36.7l-0.3,0.6c-3.4,5.8-7.8,11.8-14.2,14.3l0,0c0.6,2.8,1.2,5.6,2,8.3l1.1-0.4
		c8.5-3.3,14.2-10.5,18.6-18.1l0.4-0.7c7.5-14.7,17.7-26,33-32.9c17-7.7,36.2-7.4,53.2,0.2c10.1,4.5,18.8,11.6,25.3,20.5l0.4,0.6
		l0.4,0.6c2,3.1,3.8,6.2,5.4,9.5c2.3,4.5,4.2,9.1,5.9,13.8c-1.8,1.7-2.9,4.1-2.9,6.7c0,4.4,3.1,8.1,7.3,9c0.8,3.5,1.4,7,1.9,10.5
		c0.1,0.7,0.3,1.4,0.4,2.2c2.3-4.8,4.2-9.8,5.9-14.9l0-0.1c1.8-1.7,2.9-4.1,2.9-6.7C164.4,95.4,161.3,91.7,157.1,90.8L157.1,90.8z
		 M155.2,93.9c3.3,0,5.9,2.6,5.9,5.9c0,3.3-2.6,5.9-5.9,5.9c-3.3,0-5.9-2.6-5.9-5.9C149.3,96.6,152,93.9,155.2,93.9L155.2,93.9z
		 M90.2,12c4,0,7.4,2.5,8.6,6.1c7.9,1.3,15.6,3.6,23.1,6.9c25.3,11.4,35.4,27,46.2,48.1c-0.4,4.9-1,9.7-1.9,14.4
		c-4.4-10.1-9.7-20.5-15.8-28.8c-8.2-11.3-19.3-20.2-32-26c-6.7-3-13.6-5.1-20.7-6.3c-1.7,2.4-4.4,3.9-7.5,3.9c-3.6,0-6.6-2-8.2-5
		c-10.5,0.3-20.9,2.7-30.7,7.1c-18.8,8.5-31.7,22.5-41,40.5l-0.2,0.4c-2,3.4-4.9,7.6-8.4,9.7c-0.5-3.4-0.9-6.9-1.2-10.5
		c0.9-1.2,1.7-2.5,2.2-3.4l0.1-0.1C13,49.3,27.4,34,47.9,24.8c10.9-4.9,22.5-7.5,34.2-7.8C83.6,14,86.7,12,90.2,12L90.2,12z
		 M90.2,15.3c-3.3,0-5.9,2.6-5.9,5.9c0,3.3,2.6,5.9,5.9,5.9c3.3,0,5.9-2.6,5.9-5.9C96.1,17.9,93.5,15.3,90.2,15.3L90.2,15.3z
		 M145.2,14.9c5.1,0,9.2,4.1,9.2,9.2c0,0.7-0.1,1.5-0.3,2.2c4.8,4.4,9.2,9.2,13.6,14.4c0.1,0.1,0.1,0.1,0.2,0.2
		c0.4,4.6,0.7,9.2,0.8,13.7c-5.3-7.4-11.3-14.4-18.1-20.5c-0.6-0.5-1.1-1-1.7-1.5c-1.1,0.5-2.4,0.8-3.7,0.8c-5.1,0-9.2-4.1-9.2-9.2
		c0-0.4,0-0.8,0.1-1.1c-3.4-2.1-7-4-10.7-5.7c-13.1-5.9-27-8.9-41-8.8c-13.6,0-27.2,2.9-39.9,8.6c-2.6,1.2-5.2,2.5-7.7,3.9
		c0,0.2,0,0.5,0,0.7c0,5.1-4.1,9.2-9.2,9.2c-1.5,0-2.9-0.3-4.1-1c-1.5,1.2-3,2.5-4.4,3.8C11.7,40.4,5.4,48.2,0,57
		C0,51.8,0.3,46.4,0.8,41c0.1-0.1,0.2-0.3,0.4-0.4C6.3,34.1,12.1,28.2,18.5,23c-0.1-0.5-0.1-0.9-0.1-1.4c0-5.1,4.1-9.2,9.2-9.2
		c1.7,0,3.3,0.5,4.7,1.3c2.8-1.6,5.7-3,8.6-4.4C69-3.3,100.9-3,128.8,9.6c4.4,2,8.3,4.1,12,6.4C142.1,15.3,143.6,14.9,145.2,14.9
		L145.2,14.9z M145.2,18.2c-3.3,0-5.9,2.6-5.9,5.9c0,3.3,2.6,5.9,5.9,5.9c3.3,0,5.9-2.6,5.9-5.9C151.1,20.9,148.4,18.2,145.2,18.2
		L145.2,18.2z M27.6,15.8c-3.3,0-5.9,2.6-5.9,5.9c0,3.3,2.6,5.9,5.9,5.9c3.3,0,5.9-2.6,5.9-5.9C33.5,18.4,30.9,15.8,27.6,15.8
		L27.6,15.8z M119.5,88.8L119.5,88.8L119.5,88.8z M118,86.1L118,86.1L118,86.1z M90.7,94.2c-3.7-1.7-7.7-2-11.5-0.3
		c-4.4,2-6.7,5.8-8.9,9.9c-0.4,0.8-0.8,1.6-1.3,2.4c-9.9,17.3-23.2,31.3-41.5,39.3c-1.7-2.3-3.4-4.7-5-7
		c17.4-7.1,29.9-20.2,39.1-36.4c0.4-0.7,0.7-1.4,1.1-2.1c3.1-5.9,6.5-10.9,12.9-13.8c5.9-2.7,12.5-2.4,18.4,0.3
		c4.8,2.2,8.6,5.9,10.7,10.7c4.4,10,0.1,19.3-4.9,27.9c-11.5,19.8-26.5,36.2-45.7,47.5c-2.4-1.9-4.7-3.8-6.9-5.8
		c19.2-10.6,34.1-26.5,45.3-45.9c3.5-6,7.6-13.2,4.4-20.3C95.9,97.7,93.6,95.5,90.7,94.2L90.7,94.2z M112.8,123.2L112.8,123.2
		L112.8,123.2z M111.2,122.1L111.2,122.1L111.2,122.1z M110,124.4"/>
</g>
<g id="Layer_3">
	<g>
		<path class="st1" d="M228.8,147.4c0,0.7,0,1.4,0,2c0,0.6,0,1.2,0,1.7c0,0.5,0,0.9-0.1,1.2c0,0.3-0.1,0.6-0.2,0.9s-0.3,0.4-0.5,0.4
			c-0.1,0-0.2,0-0.4,0.1c-0.1,0-0.3,0-0.5,0c-0.1,0-0.2,0-0.3,0c-0.1,0-0.1,0.1-0.1,0.1c0,0.1,0,0.1,0.1,0.2c0.1,0,0.2,0.1,0.3,0.1
			c0.2,0,0.5,0,0.8,0c0.3,0,0.6,0,0.8,0c0.3,0,0.5,0,0.8,0c0.2,0,0.4,0,0.5,0c0.2,0,0.5,0,0.9,0c0.4,0,0.8,0,1.3,0c0.5,0,1,0,1.5,0
			c0.1,0,0.2,0,0.3-0.1c0.1,0,0.1-0.1,0.1-0.2c0-0.1,0-0.1-0.1-0.1c-0.1,0-0.2,0-0.3,0c-0.1,0-0.2,0-0.4,0c-0.1,0-0.3,0-0.4,0
			c-0.1,0-0.3,0-0.4,0c-0.2,0-0.4-0.1-0.5-0.2c-0.1-0.1-0.2-0.3-0.3-0.4c-0.1-0.2-0.1-0.4-0.1-0.6c0-0.3-0.1-0.8-0.1-1.3
			c0-0.5,0-1.1,0-1.7c0-0.6,0-1.3,0-2v-9.5l2.9,0.1c0.7,0,1.2,0.1,1.6,0.2c0.4,0.1,0.7,0.3,0.9,0.5c0.2,0.2,0.3,0.4,0.3,0.6l0,0.3
			c0,0.2,0,0.3,0.1,0.4c0,0.1,0.1,0.1,0.2,0.1c0.1,0,0.1,0,0.1-0.1c0-0.1,0.1-0.2,0.1-0.3c0-0.2,0-0.4,0-0.6c0-0.2,0-0.5,0-0.8
			c0-0.3,0-0.5,0-0.8c0-0.2,0-0.4,0-0.5c0-0.2,0-0.3,0-0.4c0-0.1-0.1-0.1-0.2-0.1c0,0-0.1,0-0.2,0c-0.1,0-0.2,0.1-0.4,0.1
			c-0.2,0-0.4,0-0.7,0.1c-0.3,0-0.6,0-0.9,0h-9.2c-0.3,0-0.5,0-0.8,0c-0.3,0-0.5,0-0.8,0c-0.3,0-0.5,0-0.7-0.1
			c-0.2,0-0.3-0.1-0.5-0.1c-0.1,0-0.2-0.1-0.3-0.1c-0.1,0-0.2-0.1-0.2-0.1c-0.1,0-0.1,0-0.2,0.1c0,0.1-0.1,0.2-0.1,0.3
			c0,0,0,0.1-0.1,0.3c0,0.2-0.1,0.4-0.1,0.6c-0.1,0.2-0.1,0.5-0.1,0.7c0,0.2-0.1,0.5-0.1,0.6c0,0.2,0,0.3,0,0.4c0,0.1,0,0.2,0,0.3
			c0,0.1,0.1,0.1,0.2,0.1c0.1,0,0.1,0,0.2-0.1c0,0,0.1-0.1,0.1-0.2c0-0.1,0.1-0.2,0.1-0.3c0.1-0.1,0.2-0.3,0.3-0.5
			c0.1-0.2,0.3-0.3,0.4-0.4c0.2-0.1,0.4-0.2,0.7-0.2c0.3,0,0.7-0.1,1.1-0.1l3.5-0.1V147.4L228.8,147.4z M252.7,144
			C252.6,144,252.6,143.9,252.7,144c-0.1-0.1-0.1-0.1-0.1-0.2v-0.5c0-0.7,0-1.3,0-1.8c0-0.5,0-0.9,0-1.3c0-0.3,0-0.6,0-0.8
			c0-0.2,0-0.4,0-0.6c0-0.2,0-0.3,0-0.5c0-0.4,0.1-0.7,0.2-0.9c0.1-0.2,0.3-0.3,0.6-0.4c0.1,0,0.3,0,0.4-0.1c0.1,0,0.2,0,0.3,0
			c0.1,0,0.2,0,0.3,0c0.1,0,0.1-0.1,0.1-0.2c0-0.1,0-0.1-0.1-0.2c-0.1,0-0.2,0-0.4,0c-0.2,0-0.5,0-0.8,0c-0.3,0-0.6,0-0.8,0
			c-0.3,0-0.5,0-0.8,0c-0.2,0-0.4,0-0.6,0c-0.2,0-0.5,0-0.9,0c-0.4,0-0.8,0-1.2,0c-0.4,0-0.9,0-1.3,0c-0.2,0-0.3,0-0.4,0
			c-0.1,0-0.1,0.1-0.1,0.2c0,0.1,0,0.1,0.1,0.2c0.1,0,0.2,0,0.3,0c0.2,0,0.3,0,0.5,0c0.2,0,0.3,0,0.4,0.1c0.3,0.1,0.4,0.1,0.6,0.2
			c0.1,0.1,0.2,0.2,0.3,0.4c0.1,0.2,0.1,0.4,0.1,0.7c0,0.1,0,0.3,0,0.5c0,0.2,0,0.4,0,0.6c0,0.2,0,0.5,0,0.8c0,0.3,0,0.8,0,1.3
			c0,0.5,0,1.1,0,1.8v4.1c0,0.7,0,1.4,0,2c0,0.6,0,1.2,0,1.7c0,0.5,0,0.9-0.1,1.2c0,0.2-0.1,0.4-0.1,0.6c0,0.2-0.1,0.3-0.2,0.4
			c-0.1,0.1-0.2,0.2-0.4,0.2c-0.1,0-0.2,0-0.4,0.1c-0.1,0-0.3,0-0.5,0c-0.1,0-0.2,0-0.3,0c-0.1,0-0.1,0.1-0.1,0.1
			c0,0.1,0,0.1,0.1,0.2c0.1,0,0.2,0.1,0.3,0.1c0.2,0,0.5,0,0.8,0c0.3,0,0.6,0,0.8,0c0.3,0,0.5,0,0.8,0c0.2,0,0.4,0,0.5,0
			c0.2,0,0.5,0,0.9,0c0.4,0,0.8,0,1.3,0c0.5,0,1,0,1.5,0c0.1,0,0.3,0,0.3-0.1c0.1,0,0.1-0.1,0.1-0.2c0-0.1,0-0.1-0.1-0.1
			c-0.1,0-0.2,0-0.3,0c-0.1,0-0.2,0-0.4,0c-0.1,0-0.3,0-0.4,0c-0.1,0-0.3,0-0.4,0c-0.2,0-0.4-0.1-0.5-0.2c-0.1-0.1-0.2-0.3-0.3-0.4
			c-0.1-0.2-0.1-0.4-0.1-0.6c0-0.3-0.1-0.8-0.1-1.3c0-0.5,0-1.1,0-1.7c0-0.6,0-1.3,0-2v-2c0-0.1,0-0.1,0-0.1c0,0,0.1,0,0.1,0h8.9
			c0,0,0.1,0,0.1,0c0,0,0,0.1,0,0.1v2c0,0.7,0,1.4,0,2c0,0.6,0,1.2,0,1.7c0,0.5,0,0.9-0.1,1.2c0,0.2-0.1,0.4-0.1,0.6
			c0,0.2-0.1,0.3-0.2,0.4c-0.1,0.1-0.2,0.2-0.4,0.2c-0.1,0-0.2,0-0.4,0.1c-0.1,0-0.3,0-0.5,0c-0.1,0-0.2,0-0.3,0
			c-0.1,0-0.1,0.1-0.1,0.1c0,0.1,0,0.1,0.1,0.2c0.1,0,0.2,0.1,0.4,0.1c0.2,0,0.5,0,0.8,0c0.3,0,0.6,0,0.8,0c0.3,0,0.5,0,0.8,0
			c0.2,0,0.4,0,0.6,0c0.2,0,0.5,0,0.9,0c0.4,0,0.8,0,1.3,0c0.5,0,1,0,1.5,0c0.1,0,0.3,0,0.3-0.1c0.1,0,0.1-0.1,0.1-0.2
			c0-0.1,0-0.1-0.1-0.1c-0.1,0-0.2,0-0.3,0c-0.1,0-0.2,0-0.4,0c-0.1,0-0.3,0-0.4,0c-0.1,0-0.3,0-0.4,0c-0.2,0-0.4-0.1-0.5-0.2
			c-0.1-0.1-0.2-0.3-0.3-0.4c-0.1-0.2-0.1-0.4-0.1-0.6c0-0.3-0.1-0.8-0.1-1.3c0-0.5,0-1.1,0-1.7c0-0.6,0-1.3,0-2v-4.1
			c0-0.7,0-1.3,0-1.8c0-0.5,0-0.9,0-1.3c0-0.3,0-0.6,0-0.8c0-0.2,0-0.4,0-0.6c0-0.2,0-0.3,0-0.5c0-0.4,0.1-0.7,0.2-0.9
			c0.1-0.2,0.3-0.3,0.6-0.4c0.1,0,0.3,0,0.4-0.1c0.1,0,0.2,0,0.3,0c0.1,0,0.2,0,0.3,0c0.1,0,0.1-0.1,0.1-0.2c0-0.1,0-0.1-0.1-0.2
			c-0.1,0-0.2,0-0.4,0c-0.2,0-0.5,0-0.8,0c-0.3,0-0.6,0-0.8,0c-0.3,0-0.5,0-0.8,0c-0.2,0-0.4,0-0.6,0c-0.2,0-0.4,0-0.6,0
			c-0.2,0-0.5,0-0.8,0c-0.3,0-0.6,0-0.9,0c-0.3,0-0.6,0-1,0c-0.2,0-0.3,0-0.4,0c-0.1,0-0.1,0.1-0.1,0.2c0,0.1,0,0.1,0.1,0.2
			c0.1,0,0.2,0,0.3,0c0.2,0,0.3,0,0.5,0c0.2,0,0.3,0,0.4,0.1c0.3,0.1,0.4,0.1,0.6,0.2c0.1,0.1,0.2,0.2,0.3,0.4
			c0.1,0.2,0.1,0.4,0.1,0.7c0,0.1,0,0.3,0,0.5c0,0.2,0,0.4,0,0.6c0,0.2,0,0.5,0,0.8c0,0.3,0,0.8,0,1.3c0,0.5,0,1.1,0,1.8v0.5
			c0,0.1,0,0.1,0,0.1c0,0-0.1,0-0.1,0H252.7L252.7,144z M279.6,147.4c0,0.7,0,1.4,0,2c0,0.6,0,1.2,0,1.7c0,0.5,0,0.9-0.1,1.2
			c0,0.2-0.1,0.4-0.1,0.6c0,0.2-0.1,0.3-0.2,0.4c-0.1,0.1-0.2,0.2-0.4,0.2c-0.1,0-0.2,0-0.4,0.1c-0.1,0-0.3,0-0.5,0
			c-0.1,0-0.2,0-0.3,0c-0.1,0-0.1,0.1-0.1,0.1c0,0.1,0,0.1,0.1,0.2c0.1,0,0.2,0.1,0.3,0.1c0.2,0,0.5,0,0.8,0c0.3,0,0.6,0,0.8,0
			c0.3,0,0.5,0,0.8,0c0.2,0,0.4,0,0.6,0c0.3,0,0.7,0,1.1,0c0.4,0,0.8,0,1.3,0.1c0.5,0,1.1,0,1.7,0c0.7,0,1.4,0,2.3,0
			c0.3,0,0.5,0,0.7,0c0.2,0,0.3-0.1,0.4-0.2c0.1-0.1,0.2-0.2,0.2-0.4c0-0.1,0.1-0.3,0.1-0.5c0-0.2,0.1-0.5,0.1-0.7
			c0-0.3,0.1-0.5,0.1-0.8c0-0.2,0-0.4,0-0.6c0-0.1,0-0.2,0-0.3c0-0.1-0.1-0.1-0.2-0.1c-0.1,0-0.1,0-0.2,0.1c0,0.1-0.1,0.1-0.1,0.3
			c-0.1,0.5-0.2,0.8-0.4,1.1c-0.2,0.3-0.4,0.5-0.7,0.6c-0.2,0.1-0.4,0.2-0.7,0.2c-0.3,0-0.5,0.1-0.8,0.1c-0.3,0-0.5,0-0.7,0
			c-0.6,0-1.1,0-1.4-0.1c-0.4-0.1-0.6-0.2-0.8-0.3c-0.2-0.1-0.3-0.3-0.4-0.6c-0.1-0.3-0.1-0.6-0.1-1c0-0.1,0-0.3,0-0.6
			c0-0.2,0-0.5,0-0.8c0-0.3,0-0.6,0-0.9c0-0.3,0-0.6,0-0.8c0-0.2,0-0.5,0-0.6v-1.8c0-0.1,0-0.1,0-0.2c0,0,0.1-0.1,0.1-0.1
			c0.1,0,0.3,0,0.5,0c0.2,0,0.5,0,0.8,0c0.3,0,0.6,0,0.8,0c0.3,0,0.5,0,0.7,0c0.2,0,0.4,0,0.5,0c0.3,0,0.5,0.1,0.7,0.2
			c0.2,0.1,0.3,0.2,0.4,0.3c0.1,0.1,0.2,0.3,0.2,0.4c0,0.2,0.1,0.3,0.1,0.4c0,0.1,0,0.3,0,0.4c0,0.1,0,0.1,0,0.1
			c0,0,0.1,0.1,0.2,0.1c0.1,0,0.1,0,0.1-0.1c0,0,0-0.1,0.1-0.2c0-0.1,0-0.1,0-0.2c0,0,0-0.1,0-0.2c0-0.1,0-0.3,0-0.4
			c0-0.2,0-0.3,0-0.5c0-0.2,0-0.3,0-0.4c0-0.4,0.1-0.7,0.1-0.9c0-0.2,0.1-0.4,0.1-0.5c0-0.1,0-0.2,0-0.2c0-0.1,0-0.1,0-0.1
			c0,0-0.1,0-0.1,0c-0.1,0-0.1,0-0.2,0.1c-0.1,0.1-0.1,0.1-0.2,0.2c-0.1,0.1-0.2,0.2-0.4,0.2c-0.2,0.1-0.4,0.1-0.7,0.1
			c-0.1,0-0.3,0-0.5,0c-0.2,0-0.5,0-0.8,0c-0.3,0-0.6,0-1,0c-0.3,0-0.6,0-0.8,0c-0.2,0-0.4,0-0.5,0c-0.1,0-0.1,0-0.1-0.1
			c0,0,0-0.1,0-0.2V138c0-0.1,0-0.1,0-0.2c0,0,0.1-0.1,0.1-0.1c0.1,0,0.3,0,0.5,0c0.2,0,0.5,0,0.8,0c0.3,0,0.6,0,0.9,0
			c0.3,0,0.5,0,0.7,0c0.2,0,0.4,0,0.4,0c0.4,0,0.7,0.1,0.9,0.2c0.2,0.1,0.4,0.2,0.5,0.3c0.1,0.1,0.2,0.2,0.2,0.4
			c0,0.1,0.1,0.2,0.1,0.3c0,0.1,0,0.2,0,0.3c0,0.1,0,0.2,0,0.2c0,0.1,0,0.2,0,0.2c0,0.1,0.1,0.1,0.2,0.1c0.1,0,0.1,0,0.2-0.1
			c0-0.1,0.1-0.1,0.1-0.2c0-0.1,0-0.2,0-0.3c0-0.1,0-0.3,0-0.5c0-0.2,0-0.3,0-0.4c0-0.1,0-0.2,0-0.3c0-0.4,0.1-0.6,0.1-0.8
			c0-0.2,0.1-0.4,0.1-0.5c0-0.1,0-0.2,0-0.2c0-0.1,0-0.1,0-0.1c0,0-0.1-0.1-0.1-0.1c-0.1,0-0.1,0-0.2,0c-0.1,0-0.1,0-0.2,0.1
			c-0.1,0-0.2,0-0.4,0.1c-0.2,0-0.4,0-0.6,0.1c-0.1,0-0.3,0-0.5,0c-0.3,0-0.6,0-1,0c-0.4,0-0.8,0-1.3,0c-0.4,0-0.9,0-1.3,0
			c-0.4,0-0.8,0-1.1,0c-0.3,0-0.5,0-0.7,0c-0.2,0-0.4,0-0.6,0c-0.3,0-0.5,0-0.8,0c-0.3,0-0.6,0-0.9,0c-0.3,0-0.6,0-1,0
			c-0.2,0-0.3,0-0.4,0c-0.1,0-0.1,0.1-0.1,0.2c0,0.1,0,0.1,0.1,0.2c0.1,0,0.2,0,0.3,0c0.2,0,0.3,0,0.5,0c0.2,0,0.3,0,0.4,0.1
			c0.3,0.1,0.4,0.1,0.6,0.2c0.1,0.1,0.2,0.2,0.3,0.4c0.1,0.2,0.1,0.4,0.1,0.7c0,0.1,0,0.3,0,0.5c0,0.2,0,0.4,0,0.6
			c0,0.2,0,0.5,0,0.8c0,0.3,0,0.8,0,1.2c0,0.5,0,1.1,0,1.8V147.4L279.6,147.4z M315.5,154.5c1.2,0,2.3-0.2,3.3-0.5
			c1-0.3,1.9-0.8,2.7-1.3c0.8-0.6,1.4-1.3,2-2.1c0.5-0.8,1-1.7,1.3-2.6c0.3-1,0.4-2,0.4-3c0-1.3-0.2-2.5-0.7-3.6
			c-0.4-1.1-1.1-2-1.9-2.7c-0.8-0.8-1.8-1.3-3-1.7c-1.2-0.4-2.5-0.6-3.9-0.6c-1.2,0-2.2,0.1-3.1,0.4c-0.9,0.3-1.7,0.6-2.5,1.1
			c-0.7,0.5-1.3,1-1.8,1.6c-0.5,0.6-0.9,1.2-1.2,1.9c-0.3,0.7-0.6,1.4-0.7,2.1c-0.2,0.7-0.2,1.4-0.2,2.1c0,0.7,0.1,1.4,0.2,2.1
			c0.2,0.7,0.4,1.4,0.7,2.1c0.3,0.7,0.7,1.3,1.2,1.9c0.5,0.6,1.1,1.1,1.8,1.6c0.7,0.5,1.5,0.8,2.4,1.1
			C313.4,154.3,314.4,154.5,315.5,154.5L315.5,154.5z M316.5,153.3c-0.9,0-1.7-0.2-2.5-0.4c-0.7-0.3-1.4-0.7-2-1.2
			c-0.6-0.5-1.1-1.2-1.5-1.9c-0.4-0.7-0.7-1.5-0.9-2.4c-0.2-0.9-0.3-1.8-0.3-2.8c0-1.2,0.1-2.1,0.3-3c0.2-0.8,0.5-1.5,0.9-2.1
			c0.4-0.6,0.8-1,1.3-1.3c0.5-0.3,1-0.6,1.5-0.7c0.5-0.1,1.1-0.2,1.6-0.2c1,0,1.9,0.2,2.7,0.6c0.8,0.4,1.5,0.9,2.2,1.7
			c0.6,0.7,1.1,1.6,1.4,2.7c0.3,1,0.5,2.2,0.5,3.5c0,1.1-0.1,2.1-0.3,2.9c-0.2,0.8-0.4,1.5-0.7,2c-0.3,0.6-0.7,1-1,1.3
			c-0.4,0.3-0.8,0.6-1.2,0.8c-0.4,0.2-0.8,0.3-1.2,0.4C317,153.3,316.7,153.3,316.5,153.3L316.5,153.3z M338.4,141.2L338.4,141.2
			c0.2,0.1,0.3,0.3,0.6,0.5c0.2,0.3,0.5,0.6,0.9,1c0.4,0.4,0.8,0.8,1.2,1.3c0.4,0.5,0.9,1,1.4,1.5c0.5,0.5,1,1,1.5,1.5
			c0.6,0.6,1.2,1.2,1.9,1.9c0.6,0.6,1.3,1.3,1.9,1.9c0.6,0.6,1.2,1.2,1.7,1.7c0.5,0.5,1,1,1.3,1.3c0.1,0.1,0.3,0.3,0.4,0.4
			c0.1,0.1,0.3,0.2,0.4,0.2c0.1,0,0.2-0.1,0.2-0.2c0.1-0.1,0.1-0.3,0.1-0.5l0.3-14.7c0-0.4,0-0.8,0.1-1c0.1-0.3,0.1-0.5,0.3-0.6
			c0.1-0.1,0.3-0.2,0.5-0.3c0.1,0,0.3-0.1,0.4-0.1c0.1,0,0.2,0,0.3,0c0.3,0,0.4-0.1,0.4-0.2c0-0.1-0.1-0.1-0.2-0.2
			c-0.1,0-0.2,0-0.4,0c-0.4,0-0.7,0-1,0c-0.3,0-0.6,0-0.8,0c-0.2,0-0.4,0-0.5,0c-0.2,0-0.4,0-0.7,0c-0.3,0-0.6,0-1,0
			c-0.4,0-0.8,0-1.2,0c-0.2,0-0.3,0-0.4,0c-0.1,0-0.2,0.1-0.2,0.2c0,0.1,0,0.1,0.1,0.2c0.1,0,0.2,0.1,0.3,0.1c0.1,0,0.2,0,0.4,0
			c0.1,0,0.3,0,0.4,0c0.2,0,0.3,0.1,0.4,0.1c0.2,0.1,0.3,0.2,0.4,0.3c0.1,0.1,0.2,0.4,0.3,0.6c0.1,0.3,0.1,0.7,0.1,1.1l0.2,10.4
			h-0.1c-0.1-0.1-0.3-0.3-0.5-0.5c-0.3-0.3-0.6-0.6-1-1c-0.4-0.4-0.8-0.8-1.2-1.3c-0.4-0.5-0.9-0.9-1.3-1.3
			c-0.4-0.4-0.8-0.8-1.1-1.1c-0.7-0.7-1.4-1.4-2-2c-0.7-0.7-1.3-1.3-1.9-2c-0.6-0.6-1.1-1.2-1.6-1.7c-0.5-0.5-0.9-0.9-1.2-1.2
			c-0.3-0.3-0.5-0.5-0.5-0.6c-0.2-0.2-0.4-0.4-0.5-0.5c-0.1-0.1-0.3-0.2-0.4-0.2c-0.1,0-0.2,0.1-0.2,0.2c0,0.1-0.1,0.3-0.1,0.6
			l-0.2,13.8c0,0.7,0,1.2-0.1,1.6c0,0.4-0.1,0.7-0.2,0.9c-0.1,0.2-0.3,0.3-0.4,0.4c-0.2,0-0.3,0.1-0.5,0.1c-0.2,0-0.4,0-0.5,0
			c-0.1,0-0.2,0-0.3,0c-0.1,0-0.1,0.1-0.1,0.1c0,0.1,0.1,0.2,0.1,0.2c0.1,0,0.2,0,0.4,0c0.4,0,0.8,0,1.1,0c0.4,0,0.7,0,0.9,0
			c0.2,0,0.4,0,0.5,0c0.2,0,0.6,0,1,0c0.5,0,1.1,0,1.8,0c0.2,0,0.3,0,0.4,0c0.1,0,0.1-0.1,0.1-0.2c0-0.1,0-0.1-0.1-0.1
			c-0.1,0-0.2,0-0.3,0c-0.2,0-0.4,0-0.6,0c-0.2,0-0.4-0.1-0.6-0.1c-0.2-0.1-0.3-0.2-0.4-0.3c-0.1-0.2-0.2-0.4-0.3-0.8
			c-0.1-0.4-0.1-0.8-0.1-1.4L338.4,141.2z"/>
		<path class="st1" d="M369.6,143.3c0-0.7,0-1.3,0-1.8c0-0.5,0-0.9,0-1.3c0-0.3,0-0.6,0-0.8c0-0.2,0-0.4,0-0.6c0-0.2,0-0.3,0-0.5
			c0-0.4,0.1-0.7,0.2-0.9c0.1-0.2,0.3-0.3,0.6-0.4c0.1,0,0.3,0,0.5-0.1c0.2,0,0.3,0,0.4,0c0.1,0,0.2,0,0.3,0c0.1,0,0.1-0.1,0.1-0.2
			c0-0.1,0-0.1-0.1-0.2c-0.1,0-0.2,0-0.4,0c-0.2,0-0.5,0-0.8,0c-0.3,0-0.6,0-0.9,0c-0.3,0-0.6,0-0.8,0c-0.3,0-0.5,0-0.6,0
			c-0.2,0-0.4,0-0.6,0c-0.2,0-0.5,0-0.8,0c-0.3,0-0.6,0-0.9,0c-0.3,0-0.6,0-0.9,0c-0.2,0-0.3,0-0.4,0c-0.1,0-0.1,0.1-0.1,0.2
			c0,0.1,0,0.1,0.1,0.2c0.1,0,0.2,0,0.3,0c0.2,0,0.3,0,0.4,0c0.1,0,0.2,0,0.3,0.1c0.3,0.1,0.4,0.1,0.6,0.2c0.1,0.1,0.2,0.2,0.3,0.4
			c0.1,0.2,0.1,0.4,0.1,0.7c0,0.1,0,0.3,0,0.5c0,0.2,0,0.4,0,0.6c0,0.2,0,0.5,0,0.8c0,0.3,0,0.8,0,1.3c0,0.5,0,1.1,0,1.8v4.1
			c0,0.7,0,1.4,0,2c0,0.6,0,1.2,0,1.7c0,0.5,0,0.9-0.1,1.2c0,0.2-0.1,0.4-0.1,0.6c0,0.2-0.1,0.3-0.2,0.4c-0.1,0.1-0.2,0.2-0.4,0.2
			c-0.1,0-0.2,0-0.4,0.1c-0.1,0-0.3,0-0.5,0c-0.1,0-0.2,0-0.3,0c-0.1,0-0.1,0.1-0.1,0.1c0,0.1,0,0.1,0.1,0.2c0.1,0,0.2,0.1,0.3,0.1
			c0.2,0,0.5,0,0.8,0c0.3,0,0.6,0,0.8,0c0.3,0,0.5,0,0.8,0c0.2,0,0.4,0,0.6,0c0.3,0,0.6,0,0.9,0c0.3,0,0.6,0,0.9,0c0.3,0,0.6,0,1,0
			c0.5,0,1.1,0,1.7,0c0.6,0,1.4,0,2.2,0c0.3,0,0.5,0,0.7,0c0.2,0,0.3-0.1,0.4-0.1c0.1,0,0.2-0.1,0.2-0.2c0-0.1,0.1-0.2,0.1-0.3
			c0-0.1,0.1-0.3,0.1-0.5c0-0.2,0.1-0.4,0.1-0.6c0-0.2,0.1-0.4,0.1-0.7c0-0.2,0-0.4,0-0.5c0-0.2,0-0.3,0-0.3c0-0.1,0-0.2,0-0.3
			c0-0.1-0.1-0.1-0.2-0.1c-0.1,0-0.2,0-0.2,0.1c0,0.1-0.1,0.1-0.1,0.3c0,0.2-0.1,0.3-0.1,0.5c-0.1,0.2-0.1,0.3-0.2,0.5
			c-0.1,0.2-0.2,0.3-0.3,0.4c-0.2,0.2-0.4,0.4-0.7,0.4c-0.3,0.1-0.6,0.2-0.9,0.2c-0.3,0-0.7,0-1.1,0c-0.6,0-1.1,0-1.4-0.1
			c-0.4,0-0.7-0.1-0.9-0.2c-0.2-0.1-0.4-0.2-0.5-0.3c-0.2-0.1-0.3-0.4-0.3-0.8c-0.1-0.4-0.1-1-0.1-1.7c0-0.7,0-1.5,0-2.5V143.3
			L369.6,143.3z M389.9,150c0,0.1,0,0.3,0,0.5c0,0.2,0,0.5,0,0.8c0,0.3,0,0.6,0,1c0,0.3-0.1,0.6-0.2,0.9c-0.1,0.2-0.3,0.4-0.5,0.4
			c-0.1,0-0.2,0-0.4,0.1c-0.1,0-0.3,0-0.5,0c-0.1,0-0.2,0-0.3,0c-0.1,0-0.1,0.1-0.1,0.1c0,0.1,0,0.2,0.1,0.2c0.1,0,0.2,0,0.4,0
			c0.2,0,0.5,0,0.7,0c0.3,0,0.5,0,0.8,0c0.3,0,0.5,0,0.8,0c0.2,0,0.4,0,0.6,0c0.2,0,0.5,0,0.9,0c0.4,0,0.8,0,1.2,0
			c0.5,0,0.9,0,1.4,0c0.2,0,0.3,0,0.4-0.1c0.1,0,0.1-0.1,0.1-0.2c0-0.1,0-0.1-0.1-0.1c-0.1,0-0.2,0-0.3,0c-0.1,0-0.2,0-0.4,0
			c-0.1,0-0.3,0-0.4,0c-0.1,0-0.3,0-0.4,0c-0.2,0-0.4-0.1-0.5-0.2c-0.1-0.1-0.2-0.3-0.3-0.4c-0.1-0.2-0.1-0.4-0.1-0.6
			c0-0.3,0-0.6-0.1-1c0-0.3,0-0.6,0-0.8c0-0.2,0-0.4,0-0.5v-1.9c0-0.3,0-0.5,0-0.8c0-0.2,0-0.5,0.1-0.8c0-0.3,0.1-0.5,0.2-0.8
			c0.1-0.1,0.2-0.4,0.3-0.7c0.2-0.3,0.4-0.7,0.6-1.1c0.2-0.4,0.5-0.8,0.8-1.3c0.3-0.5,0.5-0.9,0.8-1.4c0.3-0.5,0.5-0.9,0.8-1.3
			c0.3-0.4,0.5-0.8,0.7-1c0.2-0.3,0.4-0.5,0.5-0.7c0.2-0.2,0.3-0.4,0.4-0.5c0.1-0.1,0.3-0.3,0.4-0.4c0.1-0.1,0.3-0.2,0.4-0.3
			c0.2-0.1,0.4-0.2,0.6-0.2c0.2,0,0.3-0.1,0.5-0.1c0.1,0,0.2,0,0.3-0.1c0.1,0,0.1-0.1,0.1-0.2c0-0.1,0-0.1-0.1-0.1
			c-0.1,0-0.2,0-0.3,0c-0.1,0-0.3,0-0.5,0c-0.2,0-0.5,0-0.7,0c-0.3,0-0.5,0-0.7,0c-0.2,0-0.4,0-0.5,0c-0.3,0-0.7,0-1.1,0
			c-0.4,0-0.7,0-1.1,0c-0.1,0-0.2,0-0.3,0c-0.1,0-0.1,0.1-0.1,0.2c0,0.1,0,0.1,0.1,0.2c0.1,0,0.2,0.1,0.3,0.1
			c0.2,0.1,0.3,0.1,0.4,0.2c0.1,0.1,0.1,0.2,0.1,0.3c0,0.2,0,0.3-0.1,0.5c-0.1,0.2-0.1,0.4-0.3,0.7c0,0.1-0.1,0.3-0.3,0.6
			c-0.1,0.3-0.3,0.6-0.5,0.9c-0.2,0.4-0.4,0.7-0.6,1.2c-0.2,0.4-0.5,0.8-0.7,1.2c-0.2,0.4-0.4,0.8-0.6,1.1c-0.2,0.4-0.4,0.7-0.5,0.9
			c-0.1,0.2-0.2,0.4-0.2,0.5c-0.1-0.1-0.2-0.3-0.3-0.6c-0.2-0.3-0.3-0.6-0.6-1c-0.2-0.4-0.5-0.8-0.7-1.2c-0.3-0.4-0.5-0.9-0.8-1.3
			c-0.3-0.4-0.5-0.9-0.7-1.3c-0.2-0.4-0.4-0.7-0.6-1c-0.2-0.3-0.3-0.5-0.3-0.6c-0.1-0.2-0.2-0.3-0.2-0.4c-0.1-0.1-0.1-0.2-0.1-0.3
			c0-0.1,0-0.2,0.1-0.3c0.1-0.1,0.1-0.1,0.2-0.2c0.2,0,0.3-0.1,0.4-0.1c0.1,0,0.1-0.1,0.1-0.1c0-0.1-0.1-0.2-0.3-0.2
			c-0.3,0-0.7,0-1,0c-0.3,0-0.6,0-0.9,0c-0.3,0-0.5,0-0.6,0c-0.2,0-0.4,0-0.7,0c-0.3,0-0.6,0-0.9,0c-0.3,0-0.6,0-0.8,0
			c-0.2,0-0.4,0-0.5,0c-0.1,0-0.2,0-0.3,0.1c-0.1,0-0.1,0.1-0.1,0.2c0,0.1,0,0.1,0.1,0.2c0.1,0,0.1,0,0.2,0c0.1,0,0.3,0,0.5,0.1
			c0.2,0.1,0.3,0.1,0.5,0.2c0.2,0.1,0.5,0.3,0.8,0.6c0.3,0.3,0.6,0.6,0.9,1.1c0.1,0.2,0.3,0.4,0.5,0.7c0.2,0.3,0.4,0.7,0.7,1.1
			c0.2,0.4,0.5,0.8,0.8,1.2c0.3,0.4,0.5,0.8,0.8,1.3c0.2,0.4,0.5,0.8,0.7,1.1c0.2,0.3,0.4,0.6,0.5,0.9c0.1,0.2,0.2,0.4,0.2,0.4
			c0.1,0.2,0.2,0.4,0.3,0.7c0.1,0.2,0.1,0.5,0.2,0.7c0,0.3,0.1,0.6,0.1,1V150L389.9,150z M419.3,154.5c0.4,0,0.8,0,1.2-0.1
			c0.4-0.1,0.8-0.2,1.2-0.3c0.4-0.1,0.8-0.3,1.2-0.6c0.6-0.4,1-0.8,1.3-1.2c0.3-0.5,0.5-0.9,0.7-1.4c0.1-0.5,0.2-1,0.2-1.4
			c0-0.5-0.1-1.1-0.2-1.6c-0.1-0.5-0.4-1-0.7-1.4c-0.3-0.5-0.7-0.9-1.2-1.4c-0.5-0.5-1.1-1-1.8-1.5l-0.7-0.5
			c-0.6-0.5-1.1-0.9-1.5-1.3c-0.4-0.4-0.6-0.7-0.8-1c-0.1-0.3-0.2-0.7-0.2-1c0-0.5,0.1-0.9,0.3-1.2c0.2-0.4,0.5-0.6,1-0.8
			c0.4-0.2,0.9-0.3,1.5-0.3c0.5,0,0.9,0.1,1.3,0.2c0.3,0.1,0.6,0.3,0.8,0.4c0.2,0.2,0.4,0.3,0.5,0.5c0.2,0.2,0.3,0.4,0.4,0.6
			c0.1,0.2,0.1,0.4,0.2,0.6c0,0.2,0.1,0.3,0,0.4c0,0.1,0,0.2,0.1,0.3c0,0.1,0.1,0.1,0.2,0.1c0.1,0,0.2-0.1,0.2-0.2
			c0-0.1,0.1-0.3,0.1-0.5c0-0.6,0-1.1,0-1.5c0-0.4,0-0.7,0-0.9c0-0.2,0-0.4,0-0.5c0-0.1,0-0.1-0.1-0.2c-0.1,0-0.1-0.1-0.2-0.1
			c-0.3-0.1-0.7-0.2-1.2-0.3c-0.5-0.1-1.1-0.1-1.9-0.1c-0.8,0-1.5,0.1-2.2,0.3c-0.7,0.2-1.2,0.5-1.7,0.9c-0.5,0.4-0.8,0.9-1.1,1.4
			c-0.3,0.5-0.4,1.1-0.4,1.8c0,0.6,0.1,1.2,0.3,1.8c0.2,0.6,0.6,1.2,1.1,1.8c0.5,0.6,1.2,1.2,2,1.9l1.1,0.8c0.5,0.4,0.9,0.7,1.2,1.1
			c0.3,0.3,0.5,0.6,0.7,0.9c0.2,0.3,0.3,0.6,0.3,0.9c0.1,0.3,0.1,0.6,0.1,0.8c0,0.3-0.1,0.6-0.2,0.9c-0.1,0.3-0.3,0.6-0.6,0.9
			c-0.3,0.3-0.6,0.5-1,0.6c-0.4,0.2-0.8,0.2-1.4,0.2c-0.5,0-0.9-0.1-1.4-0.2c-0.4-0.2-0.8-0.4-1.2-0.8c-0.3-0.3-0.6-0.8-0.8-1.4
			c-0.1-0.2-0.1-0.4-0.1-0.6c0-0.2-0.1-0.4-0.1-0.6c0-0.1,0-0.2,0-0.3c0-0.1-0.1-0.1-0.2-0.1c-0.1,0-0.2,0.1-0.2,0.2
			c0,0.1-0.1,0.3-0.1,0.4c0,0.1,0,0.2,0,0.5c0,0.2,0,0.4,0,0.7c0,0.3,0,0.6,0,0.9c0,0.3,0,0.6,0,1c0,0.2,0,0.3,0,0.4
			c0,0.1,0.1,0.2,0.1,0.2c0.1,0.1,0.2,0.1,0.3,0.2c0.5,0.2,1,0.4,1.6,0.5C418,154.4,418.6,154.5,419.3,154.5L419.3,154.5z
			 M446.4,154.5c0.4,0,0.8,0,1.2,0c0.4,0,0.8-0.1,1.2-0.1c0.4,0,0.7-0.1,1-0.2c0.3-0.1,0.6-0.1,0.8-0.2c0.1-0.1,0.2-0.1,0.3-0.2
			c0.1-0.1,0.1-0.1,0.2-0.2c0-0.1,0.1-0.2,0.1-0.3c0-0.2,0.1-0.4,0.1-0.6c0-0.2,0.1-0.5,0.1-0.8c0-0.3,0.1-0.5,0.1-0.8
			c0-0.2,0.1-0.5,0.1-0.6c0-0.2,0-0.3,0-0.4c0-0.1,0-0.2,0-0.2c0-0.1-0.1-0.1-0.2-0.1c-0.1,0-0.2,0-0.2,0.1c0,0.1-0.1,0.2-0.1,0.4
			c0,0.1-0.1,0.3-0.2,0.5c-0.1,0.2-0.2,0.4-0.3,0.6c-0.1,0.2-0.2,0.3-0.4,0.5c-0.3,0.4-0.7,0.6-1.1,0.8c-0.4,0.2-0.9,0.3-1.4,0.4
			c-0.5,0.1-1.1,0.1-1.8,0.1c-0.5,0-1.1-0.1-1.6-0.2c-0.6-0.2-1.1-0.4-1.7-0.7c-0.5-0.3-1.1-0.7-1.5-1.1c-0.5-0.5-0.9-1-1.3-1.6
			c-0.4-0.6-0.7-1.3-0.9-2.1c-0.2-0.8-0.3-1.6-0.3-2.5c0-0.8,0.1-1.5,0.2-2.2c0.1-0.7,0.3-1.4,0.7-2.1c0.3-0.6,0.7-1.2,1.3-1.8
			c0.3-0.3,0.7-0.6,1.1-0.8c0.4-0.2,0.9-0.4,1.4-0.5c0.5-0.1,1.1-0.2,1.8-0.2c0.7,0,1.4,0.1,2,0.2c0.6,0.1,1.2,0.3,1.6,0.5
			c0.5,0.2,0.8,0.5,1.1,0.7c0.3,0.3,0.5,0.7,0.7,1c0.2,0.4,0.2,0.7,0.2,1.1c0,0.2,0,0.3,0,0.4c0,0.1,0.1,0.1,0.2,0.1
			c0.1,0,0.2,0,0.2-0.1c0-0.1,0.1-0.2,0.1-0.4c0-0.1,0-0.3,0-0.5c0-0.2,0-0.4,0-0.7c0-0.2,0-0.5,0-0.7c0-0.2,0-0.5,0-0.7
			c0-0.3,0-0.5,0.1-0.7c0-0.2,0-0.3,0-0.4c0-0.1,0-0.2,0-0.2c0-0.1,0-0.1-0.1-0.2c-0.1-0.1-0.1-0.1-0.3-0.1c-0.3,0-0.7-0.1-1.1-0.2
			c-0.4-0.1-0.8-0.2-1.2-0.2c-0.4,0-0.7-0.1-1-0.1c-0.3,0-0.7-0.1-1.1-0.1c-0.4,0-0.8,0-1.3,0c-1.2,0-2.2,0.1-3.1,0.3
			c-0.9,0.2-1.7,0.5-2.4,0.8c-0.7,0.4-1.3,0.8-1.9,1.3c-0.6,0.5-1,1.1-1.4,1.6c-0.4,0.6-0.6,1.2-0.8,1.7c-0.2,0.6-0.3,1.1-0.4,1.6
			c-0.1,0.5-0.1,1-0.1,1.4c0,0.6,0,1.1,0.1,1.7c0.1,0.6,0.2,1.2,0.5,1.8c0.2,0.6,0.5,1.2,0.9,1.7c0.4,0.6,0.8,1.1,1.4,1.6
			c0.7,0.6,1.5,1.1,2.3,1.5c0.8,0.4,1.7,0.6,2.7,0.8C444.4,154.4,445.4,154.5,446.4,154.5L446.4,154.5z M464.1,147.4
			c0,0.7,0,1.4,0,2c0,0.6,0,1.2,0,1.7c0,0.5,0,0.9-0.1,1.2c0,0.2-0.1,0.4-0.1,0.6c0,0.2-0.1,0.3-0.2,0.4c-0.1,0.1-0.2,0.2-0.4,0.2
			c-0.1,0-0.2,0-0.4,0.1c-0.1,0-0.3,0-0.5,0c-0.1,0-0.2,0-0.3,0c-0.1,0-0.1,0.1-0.1,0.1c0,0.1,0,0.1,0.1,0.2c0.1,0,0.2,0.1,0.3,0.1
			c0.2,0,0.5,0,0.8,0c0.3,0,0.6,0,0.8,0c0.3,0,0.5,0,0.7,0c0.2,0,0.4,0,0.5,0c0.1,0,0.3,0,0.5,0c0.2,0,0.5,0,0.8,0c0.3,0,0.7,0,1,0
			c0.4,0,0.7,0,1.1,0c0.2,0,0.3,0,0.3-0.1c0.1,0,0.1-0.1,0.1-0.2c0-0.1,0-0.1-0.1-0.1c0,0-0.1,0-0.2,0c-0.1,0-0.2,0-0.3,0
			c-0.1,0-0.3,0-0.4,0c-0.1,0-0.3,0-0.4,0c-0.2,0-0.4-0.1-0.5-0.2c-0.1-0.1-0.2-0.3-0.3-0.4c-0.1-0.2-0.1-0.4-0.1-0.6
			c0-0.3-0.1-0.7-0.1-1.2c0-0.5,0-1.1,0-1.7c0-0.6,0-1.3,0-2v-0.3c0-0.1,0-0.1,0-0.1c0,0,0.1,0,0.1,0l2,0c0.1,0,0.2,0,0.2,0
			c0.1,0,0.1,0.1,0.2,0.1c0.1,0.1,0.2,0.2,0.4,0.5c0.2,0.2,0.3,0.5,0.6,0.8c0.2,0.3,0.4,0.6,0.7,1c0.2,0.3,0.5,0.7,0.7,1
			c0.4,0.6,0.8,1.1,1.2,1.6c0.4,0.4,0.7,0.8,1,1.1c0.3,0.3,0.7,0.5,1,0.7c0.2,0.1,0.4,0.2,0.6,0.3c0.2,0.1,0.5,0.1,0.8,0.1
			c0.3,0,0.7,0,1.1,0h2.2c0.1,0,0.2,0,0.3,0c0.1,0,0.1-0.1,0.1-0.2c0-0.1,0-0.1-0.1-0.1c0,0-0.1,0-0.2,0c-0.1,0-0.2,0-0.3,0
			c-0.1,0-0.2,0-0.4-0.1c-0.1,0-0.2,0-0.4-0.1c-0.2,0-0.3-0.1-0.6-0.2c-0.2-0.1-0.5-0.3-0.8-0.5c-0.3-0.2-0.6-0.5-0.9-0.8
			c-0.7-0.7-1.4-1.6-2.3-2.6c-0.8-1-1.8-2.2-2.8-3.5c0.8-0.6,1.4-1.2,1.8-1.8c0.4-0.6,0.8-1.1,1-1.7c0.2-0.6,0.3-1.1,0.3-1.7
			c0-0.4-0.1-0.8-0.2-1.1c-0.1-0.3-0.2-0.6-0.4-0.9c-0.2-0.3-0.3-0.5-0.5-0.7c-0.2-0.2-0.4-0.4-0.5-0.5c-0.4-0.3-0.9-0.5-1.3-0.6
			c-0.5-0.1-1-0.2-1.5-0.3c-0.5,0-1-0.1-1.5-0.1c-0.2,0-0.4,0-0.7,0c-0.3,0-0.6,0-0.9,0c-0.3,0-0.6,0-0.9,0c-0.3,0-0.5,0-0.7,0
			c-0.1,0-0.3,0-0.5,0c-0.2,0-0.5,0-0.8,0c-0.3,0-0.6,0-0.9,0c-0.3,0-0.6,0-0.9,0c-0.2,0-0.3,0-0.4,0c-0.1,0-0.1,0.1-0.1,0.2
			c0,0.1,0,0.1,0.1,0.2c0.1,0,0.2,0,0.3,0c0.2,0,0.3,0,0.5,0c0.2,0,0.3,0,0.4,0.1c0.3,0.1,0.4,0.1,0.6,0.2c0.1,0.1,0.2,0.2,0.3,0.4
			c0.1,0.2,0.1,0.4,0.1,0.7c0,0.1,0,0.3,0,0.5c0,0.2,0,0.4,0,0.6c0,0.2,0,0.5,0,0.8c0,0.3,0,0.8,0,1.3c0,0.5,0,1.1,0,1.8V147.4
			L464.1,147.4z M466.8,138.1c0-0.1,0-0.2,0-0.2c0,0,0.1-0.1,0.2-0.1c0.1,0,0.3-0.1,0.5-0.1c0.2,0,0.5,0,0.7,0c0.3,0,0.6,0,0.9,0.1
			c0.3,0.1,0.6,0.2,0.9,0.4c0.3,0.2,0.6,0.5,0.9,0.8c0.3,0.3,0.5,0.7,0.6,1.2c0.2,0.5,0.2,1,0.2,1.7c0,0.6-0.1,1.2-0.2,1.6
			c-0.1,0.5-0.3,0.8-0.5,1.1c-0.2,0.3-0.4,0.5-0.7,0.7c-0.1,0.1-0.3,0.2-0.4,0.2c-0.1,0.1-0.3,0.1-0.5,0.1c-0.2,0-0.4,0-0.7,0
			c-0.2,0-0.4,0-0.6,0c-0.2,0-0.4,0-0.6-0.1c-0.2,0-0.4-0.1-0.5-0.1c-0.1,0-0.1-0.1-0.2-0.1c0-0.1,0-0.2,0-0.3V138.1z"/>
		<path class="st1" d="M489,147.4c0,0.7,0,1.4,0,2c0,0.6,0,1.2,0,1.7c0,0.5,0,0.9-0.1,1.2c0,0.2-0.1,0.4-0.1,0.6
			c0,0.2-0.1,0.3-0.2,0.4c-0.1,0.1-0.2,0.2-0.4,0.2c-0.1,0-0.2,0-0.4,0.1c-0.1,0-0.3,0-0.5,0c-0.1,0-0.2,0-0.3,0
			c-0.1,0-0.1,0.1-0.1,0.1c0,0.1,0,0.1,0.1,0.2c0.1,0,0.2,0.1,0.3,0.1c0.2,0,0.5,0,0.8,0c0.3,0,0.6,0,0.8,0c0.3,0,0.5,0,0.8,0
			c0.2,0,0.4,0,0.6,0c0.3,0,0.7,0,1.1,0c0.4,0,0.8,0,1.3,0.1c0.5,0,1.1,0,1.7,0c0.7,0,1.4,0,2.3,0c0.3,0,0.5,0,0.7,0
			c0.2,0,0.3-0.1,0.4-0.2c0.1-0.1,0.2-0.2,0.2-0.4c0-0.1,0.1-0.3,0.1-0.5c0-0.2,0.1-0.5,0.1-0.7c0-0.3,0.1-0.5,0.1-0.8
			c0-0.2,0-0.4,0-0.6c0-0.1,0-0.2,0-0.3c0-0.1-0.1-0.1-0.2-0.1c-0.1,0-0.1,0-0.2,0.1c0,0.1-0.1,0.1-0.1,0.3
			c-0.1,0.5-0.2,0.8-0.4,1.1c-0.2,0.3-0.4,0.5-0.7,0.6c-0.2,0.1-0.4,0.2-0.7,0.2c-0.3,0-0.5,0.1-0.8,0.1c-0.3,0-0.5,0-0.7,0
			c-0.6,0-1.1,0-1.4-0.1c-0.4-0.1-0.6-0.2-0.8-0.3c-0.2-0.1-0.3-0.3-0.4-0.6c-0.1-0.3-0.1-0.6-0.1-1c0-0.1,0-0.3,0-0.6
			c0-0.2,0-0.5,0-0.8c0-0.3,0-0.6,0-0.9c0-0.3,0-0.6,0-0.8c0-0.2,0-0.5,0-0.6v-1.8c0-0.1,0-0.1,0-0.2c0,0,0.1-0.1,0.1-0.1
			c0.1,0,0.3,0,0.5,0c0.2,0,0.5,0,0.8,0c0.3,0,0.6,0,0.8,0c0.3,0,0.5,0,0.7,0c0.2,0,0.4,0,0.5,0c0.3,0,0.5,0.1,0.7,0.2
			c0.2,0.1,0.3,0.2,0.4,0.3c0.1,0.1,0.2,0.3,0.2,0.4c0,0.2,0.1,0.3,0.1,0.4c0,0.1,0,0.3,0,0.4c0,0.1,0,0.1,0,0.1
			c0,0,0.1,0.1,0.2,0.1c0.1,0,0.1,0,0.1-0.1c0,0,0-0.1,0.1-0.2c0-0.1,0-0.1,0-0.2c0,0,0-0.1,0-0.2c0-0.1,0-0.3,0-0.4
			c0-0.2,0-0.3,0-0.5c0-0.2,0-0.3,0-0.4c0-0.4,0.1-0.7,0.1-0.9c0-0.2,0.1-0.4,0.1-0.5c0-0.1,0-0.2,0-0.2c0-0.1,0-0.1,0-0.1
			c0,0-0.1,0-0.1,0c-0.1,0-0.1,0-0.2,0.1c-0.1,0.1-0.1,0.1-0.2,0.2c-0.1,0.1-0.2,0.2-0.4,0.2c-0.2,0.1-0.4,0.1-0.7,0.1
			c-0.1,0-0.3,0-0.5,0c-0.2,0-0.5,0-0.8,0c-0.3,0-0.6,0-1,0c-0.3,0-0.6,0-0.8,0c-0.2,0-0.4,0-0.5,0c-0.1,0-0.1,0-0.1-0.1
			c0,0,0-0.1,0-0.2V138c0-0.1,0-0.1,0-0.2c0,0,0.1-0.1,0.1-0.1c0.1,0,0.3,0,0.5,0c0.2,0,0.5,0,0.8,0c0.3,0,0.6,0,0.9,0
			c0.3,0,0.5,0,0.7,0c0.2,0,0.4,0,0.4,0c0.4,0,0.7,0.1,0.9,0.2c0.2,0.1,0.4,0.2,0.5,0.3s0.2,0.2,0.2,0.4c0,0.1,0.1,0.2,0.1,0.3
			c0,0.1,0,0.2,0,0.3c0,0.1,0,0.2,0,0.2c0,0.1,0,0.2,0,0.2c0,0.1,0.1,0.1,0.2,0.1c0.1,0,0.1,0,0.2-0.1c0-0.1,0.1-0.1,0.1-0.2
			c0-0.1,0-0.2,0-0.3c0-0.1,0-0.3,0-0.5c0-0.2,0-0.3,0-0.4c0-0.1,0-0.2,0-0.3c0-0.4,0-0.6,0.1-0.8c0-0.2,0.1-0.4,0.1-0.5
			c0-0.1,0-0.2,0-0.2c0-0.1,0-0.1,0-0.1c0,0-0.1-0.1-0.1-0.1c-0.1,0-0.1,0-0.2,0c-0.1,0-0.1,0-0.2,0.1c-0.1,0-0.2,0-0.4,0.1
			c-0.2,0-0.4,0-0.6,0.1c-0.1,0-0.3,0-0.5,0c-0.3,0-0.6,0-1,0c-0.4,0-0.8,0-1.3,0s-0.9,0-1.3,0c-0.4,0-0.8,0-1.1,0
			c-0.3,0-0.5,0-0.7,0c-0.2,0-0.4,0-0.6,0c-0.3,0-0.5,0-0.8,0c-0.3,0-0.6,0-0.9,0c-0.3,0-0.6,0-1,0c-0.2,0-0.3,0-0.4,0
			c-0.1,0-0.1,0.1-0.1,0.2c0,0.1,0,0.1,0.1,0.2c0.1,0,0.2,0,0.3,0c0.2,0,0.3,0,0.5,0c0.2,0,0.3,0,0.4,0.1c0.3,0.1,0.4,0.1,0.6,0.2
			c0.1,0.1,0.2,0.2,0.3,0.4c0.1,0.2,0.1,0.4,0.1,0.7c0,0.1,0,0.3,0,0.5c0,0.2,0,0.4,0,0.6c0,0.2,0,0.5,0,0.8c0,0.3,0,0.8,0,1.2
			c0,0.5,0,1.1,0,1.8V147.4L489,147.4z M511.1,147.4c0,0.7,0,1.4,0,2c0,0.6,0,1.2,0,1.7c0,0.5,0,0.9-0.1,1.2c0,0.2-0.1,0.4-0.1,0.6
			c0,0.2-0.1,0.3-0.2,0.4c-0.1,0.1-0.2,0.2-0.4,0.2c-0.1,0-0.2,0-0.4,0.1c-0.1,0-0.3,0-0.5,0c-0.1,0-0.2,0-0.3,0
			c-0.1,0-0.1,0.1-0.1,0.1c0,0.1,0,0.1,0.1,0.2c0.1,0,0.2,0.1,0.3,0.1c0.2,0,0.5,0,0.8,0c0.3,0,0.6,0,0.8,0c0.3,0,0.5,0,0.8,0
			c0.2,0,0.4,0,0.5,0c0.3,0,0.7,0,1.1,0c0.4,0,0.8,0,1.3,0.1c0.5,0,1.1,0,1.7,0c0.7,0,1.4,0,2.3,0c0.3,0,0.5,0,0.7,0
			c0.2,0,0.3-0.1,0.4-0.2c0.1-0.1,0.2-0.2,0.2-0.4c0-0.1,0.1-0.3,0.1-0.5c0-0.2,0.1-0.5,0.1-0.7c0-0.3,0.1-0.5,0.1-0.8
			c0-0.2,0-0.4,0-0.6c0-0.1,0-0.2,0-0.3c0-0.1-0.1-0.1-0.2-0.1c-0.1,0-0.1,0-0.2,0.1c0,0.1-0.1,0.1-0.1,0.3
			c-0.1,0.5-0.2,0.8-0.4,1.1c-0.2,0.3-0.4,0.5-0.7,0.6c-0.2,0.1-0.4,0.2-0.7,0.2c-0.3,0-0.5,0.1-0.8,0.1c-0.3,0-0.5,0-0.7,0
			c-0.6,0-1.1,0-1.4-0.1c-0.4-0.1-0.6-0.2-0.8-0.3c-0.2-0.1-0.3-0.3-0.4-0.6c-0.1-0.3-0.1-0.6-0.1-1c0-0.1,0-0.3,0-0.6
			c0-0.2,0-0.5,0-0.8c0-0.3,0-0.6,0-0.9c0-0.3,0-0.6,0-0.8c0-0.2,0-0.5,0-0.6v-1.8c0-0.1,0-0.1,0-0.2c0,0,0.1-0.1,0.1-0.1
			c0.1,0,0.3,0,0.5,0c0.2,0,0.5,0,0.8,0c0.3,0,0.6,0,0.8,0c0.3,0,0.5,0,0.7,0s0.4,0,0.5,0c0.3,0,0.5,0.1,0.7,0.2
			c0.2,0.1,0.3,0.2,0.4,0.3c0.1,0.1,0.2,0.3,0.2,0.4c0,0.2,0.1,0.3,0.1,0.4c0,0.1,0,0.3,0,0.4c0,0.1,0,0.1,0,0.1
			c0,0,0.1,0.1,0.2,0.1c0.1,0,0.1,0,0.1-0.1c0,0,0-0.1,0.1-0.2c0-0.1,0-0.1,0-0.2c0,0,0-0.1,0-0.2c0-0.1,0-0.3,0-0.4
			c0-0.2,0-0.3,0-0.5c0-0.2,0-0.3,0-0.4c0-0.4,0.1-0.7,0.1-0.9c0-0.2,0.1-0.4,0.1-0.5c0-0.1,0-0.2,0-0.2c0-0.1,0-0.1,0-0.1
			c0,0-0.1,0-0.1,0c-0.1,0-0.1,0-0.2,0.1c-0.1,0.1-0.1,0.1-0.2,0.2c-0.1,0.1-0.2,0.2-0.4,0.2c-0.2,0.1-0.4,0.1-0.7,0.1
			c-0.1,0-0.3,0-0.5,0c-0.2,0-0.5,0-0.8,0c-0.3,0-0.6,0-1,0c-0.3,0-0.6,0-0.8,0c-0.2,0-0.4,0-0.5,0c-0.1,0-0.1,0-0.1-0.1
			c0,0,0-0.1,0-0.2V138c0-0.1,0-0.1,0-0.2c0,0,0.1-0.1,0.1-0.1c0.1,0,0.3,0,0.5,0c0.2,0,0.5,0,0.8,0c0.3,0,0.6,0,0.9,0
			c0.3,0,0.5,0,0.7,0c0.2,0,0.4,0,0.4,0c0.4,0,0.7,0.1,0.9,0.2c0.2,0.1,0.4,0.2,0.5,0.3c0.1,0.1,0.2,0.2,0.2,0.4
			c0,0.1,0.1,0.2,0.1,0.3c0,0.1,0,0.2,0,0.3c0,0.1,0,0.2,0,0.2c0,0.1,0,0.2,0,0.2c0,0.1,0.1,0.1,0.2,0.1c0.1,0,0.1,0,0.2-0.1
			c0-0.1,0.1-0.1,0.1-0.2c0-0.1,0-0.2,0-0.3c0-0.1,0-0.3,0-0.5c0-0.2,0-0.3,0-0.4c0-0.1,0-0.2,0-0.3c0-0.4,0.1-0.6,0.1-0.8
			c0-0.2,0.1-0.4,0.1-0.5c0-0.1,0-0.2,0-0.2c0-0.1,0-0.1,0-0.1c0,0-0.1-0.1-0.1-0.1c-0.1,0-0.1,0-0.2,0c-0.1,0-0.1,0-0.2,0.1
			c-0.1,0-0.2,0-0.4,0.1c-0.2,0-0.4,0-0.6,0.1c-0.1,0-0.3,0-0.5,0c-0.3,0-0.6,0-1,0c-0.4,0-0.8,0-1.3,0c-0.4,0-0.9,0-1.3,0
			c-0.4,0-0.8,0-1.1,0c-0.3,0-0.5,0-0.7,0c-0.2,0-0.4,0-0.6,0c-0.3,0-0.5,0-0.8,0c-0.3,0-0.6,0-0.9,0c-0.3,0-0.6,0-1,0
			c-0.2,0-0.3,0-0.4,0c-0.1,0-0.1,0.1-0.1,0.2c0,0.1,0,0.1,0.1,0.2c0.1,0,0.2,0,0.3,0c0.2,0,0.3,0,0.5,0c0.2,0,0.3,0,0.4,0.1
			c0.3,0.1,0.4,0.1,0.6,0.2c0.1,0.1,0.2,0.2,0.3,0.4c0.1,0.2,0.1,0.4,0.1,0.7c0,0.1,0,0.3,0,0.5c0,0.2,0,0.4,0,0.6
			c0,0.2,0,0.5,0,0.8c0,0.3,0,0.8,0,1.2c0,0.5,0,1.1,0,1.8V147.4L511.1,147.4z M534.2,141.2L534.2,141.2c0.2,0.1,0.3,0.3,0.6,0.5
			c0.2,0.3,0.5,0.6,0.9,1c0.4,0.4,0.8,0.8,1.2,1.3c0.4,0.5,0.9,1,1.4,1.5c0.5,0.5,1,1,1.5,1.5c0.6,0.6,1.2,1.2,1.9,1.9
			c0.6,0.6,1.3,1.3,1.9,1.9c0.6,0.6,1.2,1.2,1.7,1.7c0.5,0.5,1,1,1.3,1.3c0.1,0.1,0.3,0.3,0.4,0.4c0.1,0.1,0.3,0.2,0.4,0.2
			c0.1,0,0.2-0.1,0.2-0.2c0.1-0.1,0.1-0.3,0.1-0.5L548,139c0-0.4,0-0.8,0.1-1c0.1-0.3,0.1-0.5,0.3-0.6c0.1-0.1,0.3-0.2,0.5-0.3
			c0.1,0,0.3-0.1,0.4-0.1c0.1,0,0.2,0,0.3,0c0.3,0,0.4-0.1,0.4-0.2c0-0.1-0.1-0.1-0.2-0.2c-0.1,0-0.2,0-0.4,0c-0.4,0-0.7,0-1,0
			c-0.3,0-0.6,0-0.8,0c-0.2,0-0.4,0-0.5,0c-0.2,0-0.4,0-0.7,0c-0.3,0-0.6,0-1,0c-0.4,0-0.8,0-1.2,0c-0.2,0-0.3,0-0.4,0
			c-0.1,0-0.2,0.1-0.2,0.2c0,0.1,0,0.1,0.1,0.2c0.1,0,0.2,0.1,0.3,0.1c0.1,0,0.2,0,0.4,0c0.1,0,0.3,0,0.4,0c0.2,0,0.3,0.1,0.4,0.1
			c0.2,0.1,0.3,0.2,0.4,0.3c0.1,0.1,0.2,0.4,0.3,0.6c0.1,0.3,0.1,0.7,0.1,1.1l0.2,10.4h-0.1c-0.1-0.1-0.3-0.3-0.5-0.5
			c-0.3-0.3-0.6-0.6-1-1c-0.4-0.4-0.8-0.8-1.2-1.3c-0.4-0.5-0.9-0.9-1.3-1.3c-0.4-0.4-0.8-0.8-1.1-1.1c-0.7-0.7-1.4-1.4-2-2
			c-0.7-0.7-1.3-1.3-1.9-2c-0.6-0.6-1.1-1.2-1.6-1.7c-0.5-0.5-0.9-0.9-1.2-1.2c-0.3-0.3-0.5-0.5-0.5-0.6c-0.2-0.2-0.4-0.4-0.5-0.5
			c-0.1-0.1-0.3-0.2-0.4-0.2c-0.1,0-0.2,0.1-0.2,0.2c0,0.1-0.1,0.3-0.1,0.6l-0.2,13.8c0,0.7,0,1.2-0.1,1.6c0,0.4-0.1,0.7-0.2,0.9
			c-0.1,0.2-0.3,0.3-0.4,0.4c-0.2,0-0.3,0.1-0.5,0.1c-0.2,0-0.4,0-0.5,0c-0.1,0-0.2,0-0.3,0c-0.1,0-0.1,0.1-0.1,0.1
			c0,0.1,0.1,0.2,0.1,0.2c0.1,0,0.2,0,0.4,0c0.4,0,0.8,0,1.1,0c0.4,0,0.7,0,0.9,0c0.2,0,0.4,0,0.5,0c0.2,0,0.6,0,1,0
			c0.5,0,1.1,0,1.8,0c0.2,0,0.3,0,0.4,0c0.1,0,0.1-0.1,0.1-0.2c0-0.1,0-0.1-0.1-0.1c-0.1,0-0.2,0-0.3,0c-0.2,0-0.4,0-0.6,0
			c-0.2,0-0.4-0.1-0.6-0.1c-0.2-0.1-0.3-0.2-0.4-0.3c-0.1-0.2-0.2-0.4-0.3-0.8c-0.1-0.4-0.1-0.8-0.1-1.4L534.2,141.2L534.2,141.2z
			 M562.6,147.4c0,0.8,0,1.5,0,2.1c0,0.6,0,1.2,0,1.7c0,0.5,0,0.9-0.1,1.2c0,0.3-0.1,0.6-0.2,0.8c-0.1,0.2-0.3,0.3-0.5,0.4
			c-0.1,0-0.2,0-0.4,0.1c-0.1,0-0.3,0-0.5,0c-0.1,0-0.2,0-0.3,0c-0.1,0-0.1,0.1-0.1,0.1c0,0.1,0,0.1,0.1,0.2c0.1,0,0.2,0.1,0.3,0.1
			c0.2,0,0.5,0,0.8,0c0.3,0,0.6,0,0.8,0c0.3,0,0.5,0,0.8,0c0.2,0,0.4,0,0.5,0c0.2,0,0.5,0,0.9,0c0.4,0,0.8,0,1.3,0c0.5,0,1,0,1.5,0
			c0.1,0,0.2,0,0.3-0.1c0.1,0,0.1-0.1,0.1-0.2c0-0.1,0-0.1-0.1-0.1c-0.1,0-0.2,0-0.3,0c-0.1,0-0.2,0-0.4,0c-0.1,0-0.3,0-0.4,0
			c-0.1,0-0.3,0-0.4,0c-0.2,0-0.4-0.1-0.5-0.2c-0.1-0.1-0.2-0.2-0.3-0.4c-0.1-0.2-0.1-0.3-0.1-0.6c0-0.3-0.1-0.8-0.1-1.3
			c0-0.5,0-1.1,0-1.7c0-0.6,0-1.3,0-2.1v-4.1c0-0.7,0-1.3,0-1.8c0-0.5,0-0.9,0-1.3c0-0.3,0-0.6,0-0.8c0-0.2,0-0.4,0-0.6
			c0-0.2,0-0.3,0-0.5c0-0.4,0.1-0.7,0.2-0.9c0.1-0.2,0.3-0.3,0.6-0.4c0.1,0,0.3,0,0.4-0.1c0.1,0,0.2,0,0.3,0c0.1,0,0.2,0,0.3,0
			c0.1,0,0.1-0.1,0.1-0.2c0-0.1,0-0.1-0.1-0.1c-0.1,0-0.2,0-0.4,0c-0.2,0-0.5,0-0.7,0c-0.3,0-0.5,0-0.8,0c-0.3,0-0.5,0-0.7,0
			c-0.2,0-0.4,0-0.6,0c-0.2,0-0.4,0-0.6,0c-0.3,0-0.5,0-0.8,0c-0.3,0-0.6,0-0.8,0c-0.3,0-0.5,0-0.8,0c-0.2,0-0.3,0-0.4,0
			c-0.1,0-0.1,0.1-0.1,0.1c0,0.1,0,0.2,0.1,0.2c0.1,0,0.2,0,0.3,0c0.1,0,0.3,0,0.4,0c0.1,0,0.3,0,0.4,0.1c0.3,0.1,0.4,0.2,0.6,0.4
			c0.1,0.2,0.2,0.5,0.2,0.9c0,0.1,0,0.3,0,0.5c0,0.2,0,0.4,0,0.6c0,0.2,0,0.5,0,0.8c0,0.3,0,0.8,0,1.3c0,0.5,0,1.1,0,1.8V147.4
			L562.6,147.4z M581.5,141.2L581.5,141.2c0.2,0.1,0.3,0.3,0.6,0.5c0.2,0.3,0.5,0.6,0.9,1c0.4,0.4,0.8,0.8,1.2,1.3
			c0.4,0.5,0.9,1,1.4,1.5c0.5,0.5,1,1,1.5,1.5c0.6,0.6,1.2,1.2,1.9,1.9c0.6,0.6,1.3,1.3,1.9,1.9c0.6,0.6,1.2,1.2,1.7,1.7
			c0.5,0.5,1,1,1.3,1.3c0.1,0.1,0.3,0.3,0.4,0.4c0.1,0.1,0.3,0.2,0.4,0.2c0.1,0,0.2-0.1,0.2-0.2c0.1-0.1,0.1-0.3,0.1-0.5l0.3-14.7
			c0-0.4,0-0.8,0.1-1c0.1-0.3,0.1-0.5,0.3-0.6c0.1-0.1,0.3-0.2,0.5-0.3c0.1,0,0.3-0.1,0.4-0.1c0.1,0,0.2,0,0.3,0
			c0.3,0,0.4-0.1,0.4-0.2c0-0.1-0.1-0.1-0.2-0.2c-0.1,0-0.2,0-0.4,0c-0.4,0-0.7,0-1,0c-0.3,0-0.6,0-0.8,0c-0.2,0-0.4,0-0.5,0
			c-0.2,0-0.4,0-0.7,0c-0.3,0-0.6,0-1,0c-0.4,0-0.8,0-1.2,0c-0.2,0-0.3,0-0.4,0c-0.1,0-0.2,0.1-0.2,0.2c0,0.1,0,0.1,0.1,0.2
			c0.1,0,0.2,0.1,0.3,0.1c0.1,0,0.2,0,0.4,0c0.1,0,0.3,0,0.4,0c0.2,0,0.3,0.1,0.4,0.1c0.2,0.1,0.3,0.2,0.4,0.3
			c0.1,0.1,0.2,0.4,0.3,0.6c0.1,0.3,0.1,0.7,0.1,1.1l0.2,10.4h-0.1c-0.1-0.1-0.3-0.3-0.5-0.5c-0.3-0.3-0.6-0.6-1-1
			c-0.4-0.4-0.8-0.8-1.2-1.3c-0.4-0.5-0.9-0.9-1.3-1.3c-0.4-0.4-0.8-0.8-1.1-1.1c-0.7-0.7-1.4-1.4-2-2c-0.7-0.7-1.3-1.3-1.9-2
			c-0.6-0.6-1.1-1.2-1.6-1.7c-0.5-0.5-0.9-0.9-1.2-1.2c-0.3-0.3-0.5-0.5-0.5-0.6c-0.2-0.2-0.4-0.4-0.5-0.5c-0.1-0.1-0.3-0.2-0.4-0.2
			c-0.1,0-0.2,0.1-0.2,0.2c0,0.1-0.1,0.3-0.1,0.6l-0.2,13.8c0,0.7,0,1.2-0.1,1.6c0,0.4-0.1,0.7-0.2,0.9c-0.1,0.2-0.3,0.3-0.4,0.4
			c-0.2,0-0.3,0.1-0.5,0.1c-0.2,0-0.4,0-0.5,0c-0.1,0-0.2,0-0.3,0c-0.1,0-0.1,0.1-0.1,0.1c0,0.1,0,0.2,0.1,0.2c0.1,0,0.2,0,0.4,0
			c0.4,0,0.8,0,1.1,0c0.4,0,0.7,0,0.9,0c0.2,0,0.4,0,0.5,0c0.2,0,0.6,0,1,0c0.5,0,1.1,0,1.8,0c0.2,0,0.3,0,0.4,0
			c0.1,0,0.1-0.1,0.1-0.2c0-0.1,0-0.1-0.1-0.1c-0.1,0-0.2,0-0.3,0c-0.2,0-0.4,0-0.6,0c-0.2,0-0.4-0.1-0.6-0.1
			c-0.2-0.1-0.3-0.2-0.4-0.3c-0.1-0.2-0.2-0.4-0.3-0.8c-0.1-0.4-0.1-0.8-0.1-1.4L581.5,141.2z"/>
		<path class="st1" d="M623.7,150c0-0.6,0-1.1,0-1.6c0-0.5,0-0.9,0-1.2c0-0.4,0.1-0.7,0.2-0.9c0.1-0.2,0.4-0.3,0.7-0.4
			c0.1,0,0.3,0,0.3-0.1c0.1,0,0.2,0,0.3,0c0.1,0,0.2,0,0.2,0c0.1,0,0.1-0.1,0.1-0.1c0-0.1,0-0.2-0.1-0.2c-0.1,0-0.2,0-0.3,0
			c-0.3,0-0.6,0-0.9,0c-0.3,0-0.7,0-1,0c-0.3,0-0.6,0-0.9,0c-0.2,0-0.5,0-0.9,0c-0.4,0-0.8,0-1.2,0c-0.4,0-0.8,0-1.3,0
			c-0.2,0-0.3,0-0.4,0c-0.1,0-0.1,0.1-0.1,0.2c0,0.1,0,0.1,0.1,0.1c0.1,0,0.1,0,0.3,0c0.2,0,0.3,0,0.5,0c0.2,0,0.3,0,0.4,0.1
			c0.3,0.1,0.5,0.1,0.6,0.2c0.1,0.1,0.2,0.2,0.3,0.4c0.1,0.2,0.1,0.4,0.1,0.7c0,0.3,0,0.7,0,1.2c0,0.4,0,1,0,1.5v2.2
			c0,0.2,0,0.4-0.1,0.5c-0.1,0.1-0.2,0.3-0.4,0.3c-0.2,0.1-0.4,0.1-0.6,0.2c-0.2,0-0.5,0.1-0.7,0.1c-0.2,0-0.5,0-0.7,0
			c-1,0-1.9-0.1-2.7-0.4c-0.8-0.3-1.6-0.7-2.2-1.2c-0.7-0.5-1.2-1.1-1.7-1.9c-0.5-0.7-0.8-1.5-1.1-2.4c-0.2-0.9-0.4-1.8-0.4-2.8
			c0-0.9,0.1-1.8,0.3-2.5c0.2-0.7,0.4-1.3,0.7-1.9c0.3-0.5,0.7-1,1.1-1.3c0.4-0.3,0.8-0.6,1.2-0.8c0.4-0.2,0.8-0.3,1.2-0.4
			c0.4-0.1,0.8-0.2,1.1-0.2c0.4,0,0.7,0,1,0c0.7,0,1.3,0.1,1.8,0.2c0.6,0.1,1.1,0.3,1.5,0.4c0.4,0.2,0.8,0.4,1.1,0.6
			c0.3,0.2,0.6,0.4,0.7,0.6c0.2,0.2,0.4,0.4,0.5,0.7c0.1,0.2,0.2,0.5,0.2,0.7c0,0.2,0.1,0.4,0.1,0.6c0,0.1,0,0.2,0.1,0.2
			c0,0.1,0.1,0.1,0.2,0.1c0.1,0,0.2,0,0.2-0.1c0-0.1,0.1-0.2,0.1-0.4c0-0.7,0-1.3,0-1.8c0-0.5,0-0.8,0.1-1.1c0-0.3,0-0.5,0.1-0.6
			c0-0.1,0-0.2,0-0.3c0-0.1,0-0.1-0.1-0.2c0,0-0.1-0.1-0.3-0.1c-0.2,0-0.4,0-0.6-0.1c-0.2,0-0.4-0.1-0.7-0.1c-0.2,0-0.4-0.1-0.6-0.1
			c-0.1,0-0.3-0.1-0.6-0.1c-0.3,0-0.6-0.1-1-0.1c-0.4,0-0.8-0.1-1.2-0.1c-0.4,0-0.8,0-1.3,0c-0.7,0-1.3,0-2,0.1
			c-0.7,0.1-1.4,0.2-2.1,0.4c-0.7,0.2-1.4,0.5-2.2,1c-0.5,0.3-1,0.7-1.5,1.2c-0.5,0.5-0.9,1-1.3,1.7c-0.4,0.6-0.7,1.3-0.9,2.1
			c-0.2,0.8-0.3,1.6-0.3,2.6c0,1.3,0.2,2.4,0.6,3.4c0.4,1,0.9,1.8,1.6,2.6c0.7,0.7,1.5,1.3,2.4,1.8c0.9,0.5,1.9,0.8,2.9,1
			c1.1,0.2,2.2,0.3,3.3,0.3c0.5,0,0.9,0,1.4-0.1c0.5,0,1-0.1,1.5-0.2c0.5-0.1,1-0.2,1.4-0.3c0.5-0.1,0.9-0.3,1.3-0.5
			c0.1-0.1,0.2-0.1,0.2-0.2c0,0,0.1-0.1,0.1-0.2c0-0.1,0-0.3,0-0.5V150L623.7,150z M658.7,150c0-0.6,0-1.1,0-1.6c0-0.5,0-0.9,0-1.2
			c0-0.4,0.1-0.7,0.2-0.9c0.1-0.2,0.4-0.3,0.7-0.4c0.1,0,0.3,0,0.3-0.1c0.1,0,0.2,0,0.3,0c0.1,0,0.2,0,0.2,0c0.1,0,0.1-0.1,0.1-0.1
			c0-0.1,0-0.2-0.1-0.2c-0.1,0-0.2,0-0.3,0c-0.3,0-0.6,0-0.9,0c-0.3,0-0.7,0-1,0c-0.3,0-0.6,0-0.9,0c-0.2,0-0.5,0-0.9,0
			c-0.4,0-0.8,0-1.2,0c-0.4,0-0.8,0-1.3,0c-0.2,0-0.3,0-0.4,0c-0.1,0-0.1,0.1-0.1,0.2c0,0.1,0,0.1,0.1,0.1c0.1,0,0.1,0,0.3,0
			c0.2,0,0.3,0,0.5,0c0.2,0,0.3,0,0.4,0.1c0.3,0.1,0.5,0.1,0.6,0.2c0.1,0.1,0.2,0.2,0.3,0.4c0.1,0.2,0.1,0.4,0.1,0.7
			c0,0.3,0,0.7,0,1.2c0,0.4,0,1,0,1.5v2.2c0,0.2,0,0.4-0.1,0.5c-0.1,0.1-0.2,0.3-0.4,0.3c-0.2,0.1-0.4,0.1-0.6,0.2
			c-0.2,0-0.5,0.1-0.7,0.1c-0.2,0-0.5,0-0.7,0c-1,0-1.9-0.1-2.7-0.4c-0.8-0.3-1.6-0.7-2.2-1.2c-0.7-0.5-1.2-1.1-1.7-1.9
			c-0.5-0.7-0.8-1.5-1.1-2.4c-0.2-0.9-0.4-1.8-0.4-2.8c0-0.9,0.1-1.8,0.3-2.5c0.2-0.7,0.4-1.3,0.7-1.9c0.3-0.5,0.7-1,1.1-1.3
			c0.4-0.3,0.8-0.6,1.2-0.8c0.4-0.2,0.8-0.3,1.2-0.4c0.4-0.1,0.8-0.2,1.1-0.2c0.4,0,0.7,0,1,0c0.7,0,1.3,0.1,1.8,0.2
			c0.6,0.1,1.1,0.3,1.5,0.4c0.4,0.2,0.8,0.4,1.1,0.6c0.3,0.2,0.6,0.4,0.7,0.6c0.2,0.2,0.4,0.4,0.5,0.7c0.1,0.2,0.2,0.5,0.2,0.7
			c0,0.2,0.1,0.4,0.1,0.6c0,0.1,0,0.2,0.1,0.2c0,0.1,0.1,0.1,0.2,0.1c0.1,0,0.2,0,0.2-0.1c0-0.1,0.1-0.2,0.1-0.4c0-0.7,0-1.3,0-1.8
			c0-0.5,0-0.8,0.1-1.1c0-0.3,0-0.5,0.1-0.6c0-0.1,0-0.2,0-0.3c0-0.1,0-0.1-0.1-0.2c0,0-0.1-0.1-0.3-0.1c-0.2,0-0.4,0-0.6-0.1
			c-0.2,0-0.4-0.1-0.7-0.1c-0.2,0-0.4-0.1-0.6-0.1c-0.1,0-0.3-0.1-0.6-0.1c-0.3,0-0.6-0.1-1-0.1c-0.4,0-0.8-0.1-1.2-0.1
			c-0.4,0-0.8,0-1.3,0c-0.7,0-1.3,0-2,0.1c-0.7,0.1-1.4,0.2-2.1,0.4c-0.7,0.2-1.4,0.5-2.2,1c-0.5,0.3-1,0.7-1.5,1.2
			c-0.5,0.5-0.9,1-1.3,1.7c-0.4,0.6-0.7,1.3-0.9,2.1c-0.2,0.8-0.3,1.6-0.3,2.6c0,1.3,0.2,2.4,0.6,3.4c0.4,1,0.9,1.8,1.6,2.6
			c0.7,0.7,1.5,1.3,2.4,1.8c0.9,0.5,1.9,0.8,2.9,1c1.1,0.2,2.2,0.3,3.3,0.3c0.5,0,0.9,0,1.4-0.1c0.5,0,1-0.1,1.5-0.2
			c0.5-0.1,1-0.2,1.4-0.3c0.5-0.1,0.9-0.3,1.3-0.5c0.1-0.1,0.2-0.1,0.2-0.2c0,0,0.1-0.1,0.1-0.2c0-0.1,0-0.3,0-0.5V150L658.7,150z
			 M671.6,146.7c0,1.1,0.1,2.1,0.3,2.9c0.2,0.8,0.4,1.4,0.7,2c0.3,0.5,0.7,1,1.1,1.3c0.4,0.4,0.9,0.7,1.3,0.9
			c0.5,0.2,0.9,0.4,1.4,0.5c0.5,0.1,0.9,0.2,1.3,0.2c0.4,0,0.8,0,1.1,0c0.5,0,1,0,1.6-0.1c0.5-0.1,1.1-0.2,1.6-0.5
			c0.6-0.2,1.1-0.6,1.7-1.1c0.5-0.4,0.9-0.9,1.2-1.4c0.3-0.5,0.5-1.1,0.7-1.7c0.2-0.6,0.3-1.2,0.3-1.9c0.1-0.6,0.1-1.3,0.1-1.9v-2.5
			c0-0.7,0-1.3,0-1.8c0-0.5,0-0.9,0-1.3c0-0.3,0-0.6,0-0.8c0-0.2,0-0.4,0-0.6c0-0.2,0-0.3,0-0.5c0-0.4,0.1-0.7,0.2-0.9
			c0.1-0.2,0.3-0.3,0.6-0.4c0.1,0,0.2,0,0.3-0.1c0.1,0,0.2,0,0.3,0c0.1,0,0.2,0,0.3,0c0.1,0,0.1-0.1,0.1-0.2c0-0.1,0-0.1-0.1-0.2
			c-0.1,0-0.2,0-0.4,0c-0.2,0-0.5,0-0.8,0c-0.3,0-0.5,0-0.8,0c-0.3,0-0.5,0-0.7,0c-0.2,0-0.3,0-0.4,0c0,0-0.1,0-0.3,0
			c-0.2,0-0.4,0-0.6,0c-0.3,0-0.6,0-0.9,0c-0.3,0-0.6,0-0.9,0c-0.2,0-0.3,0-0.4,0c-0.1,0-0.1,0.1-0.1,0.2c0,0.1,0,0.1,0.1,0.2
			c0.1,0,0.2,0,0.3,0c0.1,0,0.2,0,0.3,0c0.1,0,0.2,0,0.3,0c0.1,0,0.2,0,0.2,0c0.3,0.1,0.4,0.1,0.6,0.2c0.1,0.1,0.2,0.2,0.3,0.4
			c0.1,0.2,0.1,0.4,0.1,0.7c0,0.1,0,0.3,0,0.5c0,0.2,0,0.4,0,0.6c0,0.2,0,0.5,0,0.8c0,0.3,0,0.8,0,1.3c0,0.5,0,1.1,0,1.8v2.9
			c0,0.6,0,1.2,0,1.7c0,0.6-0.1,1.1-0.2,1.6c-0.1,0.5-0.2,0.9-0.4,1.4c-0.2,0.4-0.4,0.8-0.8,1.1c-0.3,0.3-0.7,0.6-1,0.7
			c-0.4,0.2-0.7,0.3-1.1,0.4c-0.4,0.1-0.7,0.1-1.1,0.1c-0.3,0-0.6,0-0.9-0.1c-0.3,0-0.6-0.1-1-0.3c-0.3-0.1-0.7-0.3-1-0.6
			c-0.3-0.2-0.5-0.5-0.8-0.8c-0.2-0.3-0.4-0.7-0.6-1.1c-0.2-0.4-0.3-1-0.4-1.6c-0.1-0.6-0.1-1.3-0.1-2.2v-3.3c0-0.7,0-1.3,0-1.8
			c0-0.5,0-0.9,0-1.3c0-0.3,0-0.6,0-0.8c0-0.2,0-0.4,0-0.6c0-0.2,0-0.3,0-0.5c0-0.4,0.1-0.7,0.2-0.9c0.1-0.2,0.3-0.3,0.6-0.4
			c0.1,0,0.2,0,0.3-0.1c0.1,0,0.2,0,0.3,0c0.1,0,0.2,0,0.3,0c0.1,0,0.1-0.1,0.1-0.2c0-0.1,0-0.1-0.1-0.2c-0.1,0-0.2,0-0.4,0
			c-0.2,0-0.5,0-0.7,0c-0.3,0-0.5,0-0.8,0c-0.3,0-0.5,0-0.8,0c-0.2,0-0.4,0-0.6,0c-0.2,0-0.5,0-0.9,0c-0.4,0-0.8,0-1.2,0
			c-0.4,0-0.9,0-1.3,0c-0.2,0-0.3,0-0.4,0c-0.1,0-0.1,0.1-0.1,0.2c0,0.1,0,0.1,0.1,0.2c0.1,0,0.2,0,0.3,0c0.2,0,0.3,0,0.5,0
			c0.2,0,0.3,0,0.4,0.1c0.3,0.1,0.4,0.1,0.6,0.2c0.1,0.1,0.2,0.2,0.3,0.4c0.1,0.2,0.1,0.4,0.1,0.7c0,0.1,0,0.3,0,0.5
			c0,0.2,0,0.4,0,0.6c0,0.2,0,0.5,0,0.8c0,0.3,0,0.8,0,1.3c0,0.5,0,1.1,0,1.8V146.7L671.6,146.7z M699.7,147.4c0,0.7,0,1.4,0,2
			c0,0.6,0,1.2,0,1.7c0,0.5,0,0.9-0.1,1.2c0,0.2-0.1,0.4-0.1,0.6c0,0.2-0.1,0.3-0.2,0.4c-0.1,0.1-0.2,0.2-0.4,0.2
			c-0.1,0-0.2,0-0.4,0.1c-0.1,0-0.3,0-0.5,0c-0.1,0-0.2,0-0.3,0c-0.1,0-0.1,0.1-0.1,0.1c0,0.1,0,0.1,0.1,0.2c0.1,0,0.2,0.1,0.3,0.1
			c0.2,0,0.5,0,0.8,0c0.3,0,0.6,0,0.8,0c0.3,0,0.5,0,0.7,0c0.2,0,0.4,0,0.5,0c0.1,0,0.3,0,0.5,0c0.2,0,0.5,0,0.8,0c0.3,0,0.7,0,1,0
			c0.4,0,0.7,0,1.1,0c0.2,0,0.3,0,0.3-0.1c0.1,0,0.1-0.1,0.1-0.2c0-0.1,0-0.1-0.1-0.1c0,0-0.1,0-0.2,0c-0.1,0-0.2,0-0.3,0
			c-0.1,0-0.3,0-0.4,0c-0.1,0-0.3,0-0.4,0c-0.2,0-0.4-0.1-0.5-0.2c-0.1-0.1-0.2-0.3-0.3-0.4c-0.1-0.2-0.1-0.4-0.1-0.6
			c0-0.3-0.1-0.7-0.1-1.2c0-0.5,0-1.1,0-1.7c0-0.6,0-1.3,0-2v-0.3c0-0.1,0-0.1,0.1-0.1c0,0,0.1,0,0.1,0l2,0c0.1,0,0.2,0,0.2,0
			c0.1,0,0.1,0.1,0.2,0.1c0.1,0.1,0.2,0.2,0.4,0.5c0.2,0.2,0.3,0.5,0.6,0.8c0.2,0.3,0.4,0.6,0.7,1c0.2,0.3,0.5,0.7,0.7,1
			c0.4,0.6,0.8,1.1,1.2,1.6c0.4,0.4,0.7,0.8,1,1.1c0.3,0.3,0.7,0.5,1,0.7c0.2,0.1,0.4,0.2,0.6,0.3c0.2,0.1,0.5,0.1,0.8,0.1
			c0.3,0,0.7,0,1.1,0h2.2c0.1,0,0.2,0,0.3,0c0.1,0,0.1-0.1,0.1-0.2c0-0.1,0-0.1-0.1-0.1c0,0-0.1,0-0.2,0c-0.1,0-0.2,0-0.3,0
			c-0.1,0-0.2,0-0.4-0.1c-0.1,0-0.2,0-0.4-0.1c-0.2,0-0.3-0.1-0.6-0.2c-0.2-0.1-0.5-0.3-0.8-0.5c-0.3-0.2-0.6-0.5-0.9-0.8
			c-0.7-0.7-1.4-1.6-2.3-2.6c-0.8-1-1.8-2.2-2.8-3.5c0.8-0.6,1.4-1.2,1.8-1.8c0.4-0.6,0.8-1.1,1-1.7c0.2-0.6,0.3-1.1,0.3-1.7
			c0-0.4-0.1-0.8-0.2-1.1s-0.2-0.6-0.4-0.9c-0.2-0.3-0.3-0.5-0.5-0.7c-0.2-0.2-0.4-0.4-0.5-0.5c-0.4-0.3-0.9-0.5-1.3-0.6
			c-0.5-0.1-1-0.2-1.5-0.3c-0.5,0-1-0.1-1.5-0.1c-0.2,0-0.4,0-0.7,0c-0.3,0-0.6,0-0.9,0s-0.6,0-0.9,0c-0.3,0-0.5,0-0.7,0
			c-0.1,0-0.3,0-0.5,0c-0.2,0-0.5,0-0.8,0c-0.3,0-0.6,0-0.9,0c-0.3,0-0.6,0-0.9,0c-0.2,0-0.3,0-0.4,0c-0.1,0-0.1,0.1-0.1,0.2
			c0,0.1,0,0.1,0.1,0.2c0.1,0,0.2,0,0.3,0c0.2,0,0.3,0,0.5,0c0.2,0,0.3,0,0.4,0.1c0.3,0.1,0.4,0.1,0.6,0.2c0.1,0.1,0.2,0.2,0.3,0.4
			c0.1,0.2,0.1,0.4,0.1,0.7c0,0.1,0,0.3,0,0.5c0,0.2,0,0.4,0,0.6c0,0.2,0,0.5,0,0.8c0,0.3,0,0.8,0,1.3c0,0.5,0,1.1,0,1.8V147.4
			L699.7,147.4z M702.5,138.1c0-0.1,0-0.2,0-0.2c0,0,0.1-0.1,0.2-0.1c0.1,0,0.3-0.1,0.5-0.1c0.2,0,0.5,0,0.7,0c0.3,0,0.6,0,0.9,0.1
			c0.3,0.1,0.6,0.2,0.9,0.4c0.3,0.2,0.6,0.5,0.9,0.8c0.3,0.3,0.5,0.7,0.6,1.2c0.2,0.5,0.2,1,0.2,1.7c0,0.6-0.1,1.2-0.2,1.6
			c-0.1,0.5-0.3,0.8-0.5,1.1c-0.2,0.3-0.4,0.5-0.7,0.7c-0.1,0.1-0.3,0.2-0.4,0.2c-0.1,0.1-0.3,0.1-0.5,0.1c-0.2,0-0.4,0-0.7,0
			c-0.2,0-0.4,0-0.6,0c-0.2,0-0.4,0-0.6-0.1c-0.2,0-0.4-0.1-0.5-0.1c-0.1,0-0.1-0.1-0.2-0.1c0-0.1,0-0.2,0-0.3V138.1L702.5,138.1z
			 M723.6,146.7c0,1.1,0.1,2.1,0.3,2.9c0.2,0.8,0.4,1.4,0.7,2c0.3,0.5,0.7,1,1.1,1.3c0.4,0.4,0.9,0.7,1.3,0.9
			c0.5,0.2,0.9,0.4,1.4,0.5c0.5,0.1,0.9,0.2,1.3,0.2c0.4,0,0.8,0,1.1,0c0.5,0,1,0,1.6-0.1c0.5-0.1,1.1-0.2,1.6-0.5
			c0.6-0.2,1.1-0.6,1.7-1.1c0.5-0.4,0.9-0.9,1.2-1.4c0.3-0.5,0.5-1.1,0.7-1.7c0.2-0.6,0.3-1.2,0.3-1.9c0.1-0.6,0.1-1.3,0.1-1.9v-2.5
			c0-0.7,0-1.3,0-1.8c0-0.5,0-0.9,0-1.3c0-0.3,0-0.6,0-0.8c0-0.2,0-0.4,0-0.6c0-0.2,0-0.3,0-0.5c0-0.4,0.1-0.7,0.2-0.9
			c0.1-0.2,0.3-0.3,0.6-0.4c0.1,0,0.2,0,0.3-0.1c0.1,0,0.2,0,0.3,0c0.1,0,0.2,0,0.3,0c0.1,0,0.1-0.1,0.1-0.2c0-0.1,0-0.1-0.1-0.2
			c-0.1,0-0.2,0-0.4,0c-0.2,0-0.5,0-0.8,0c-0.3,0-0.5,0-0.8,0c-0.3,0-0.5,0-0.7,0c-0.2,0-0.3,0-0.4,0c0,0-0.1,0-0.3,0
			c-0.2,0-0.4,0-0.6,0c-0.3,0-0.5,0-0.9,0c-0.3,0-0.6,0-0.9,0c-0.2,0-0.3,0-0.4,0c-0.1,0-0.1,0.1-0.1,0.2c0,0.1,0,0.1,0.1,0.2
			c0.1,0,0.2,0,0.3,0c0.1,0,0.2,0,0.3,0c0.1,0,0.2,0,0.3,0c0.1,0,0.2,0,0.2,0c0.3,0.1,0.4,0.1,0.6,0.2c0.1,0.1,0.2,0.2,0.3,0.4
			c0.1,0.2,0.1,0.4,0.1,0.7c0,0.1,0,0.3,0,0.5c0,0.2,0,0.4,0,0.6c0,0.2,0,0.5,0,0.8c0,0.3,0,0.8,0,1.3c0,0.5,0,1.1,0,1.8v2.9
			c0,0.6,0,1.2,0,1.7c0,0.6-0.1,1.1-0.2,1.6c-0.1,0.5-0.2,0.9-0.4,1.4c-0.2,0.4-0.4,0.8-0.8,1.1c-0.3,0.3-0.7,0.6-1,0.7
			c-0.4,0.2-0.7,0.3-1.1,0.4c-0.4,0.1-0.7,0.1-1.1,0.1c-0.3,0-0.6,0-0.9-0.1c-0.3,0-0.6-0.1-1-0.3c-0.3-0.1-0.7-0.3-1-0.6
			c-0.3-0.2-0.5-0.5-0.8-0.8c-0.2-0.3-0.4-0.7-0.6-1.1c-0.2-0.4-0.3-1-0.4-1.6c-0.1-0.6-0.1-1.3-0.1-2.2v-3.3c0-0.7,0-1.3,0-1.8
			c0-0.5,0-0.9,0-1.3c0-0.3,0-0.6,0-0.8c0-0.2,0-0.4,0-0.6c0-0.2,0-0.3,0-0.5c0-0.4,0.1-0.7,0.2-0.9c0.1-0.2,0.3-0.3,0.6-0.4
			c0.1,0,0.2,0,0.3-0.1c0.1,0,0.2,0,0.3,0c0.1,0,0.2,0,0.3,0c0.1,0,0.1-0.1,0.1-0.2c0-0.1,0-0.1-0.1-0.2c-0.1,0-0.2,0-0.4,0
			c-0.2,0-0.5,0-0.7,0c-0.3,0-0.5,0-0.8,0c-0.3,0-0.5,0-0.8,0c-0.2,0-0.4,0-0.6,0c-0.2,0-0.5,0-0.9,0c-0.4,0-0.8,0-1.2,0
			c-0.4,0-0.9,0-1.3,0c-0.2,0-0.3,0-0.4,0c-0.1,0-0.1,0.1-0.1,0.2c0,0.1,0,0.1,0.1,0.2c0.1,0,0.2,0,0.3,0c0.2,0,0.3,0,0.5,0
			c0.2,0,0.3,0,0.4,0.1c0.3,0.1,0.4,0.1,0.6,0.2c0.1,0.1,0.2,0.2,0.3,0.4c0.1,0.2,0.1,0.4,0.1,0.7c0,0.1,0,0.3,0,0.5
			c0,0.2,0,0.4,0,0.6c0,0.2,0,0.5,0,0.8c0,0.3,0,0.8,0,1.3c0,0.5,0,1.1,0,1.8V146.7z"/>
	</g>
</g>
<g id="Layer_4">
	<path class="st1" d="M511.1,100.1c0-2.2,0-4.2,0-5.9c0-1.8,0-3.3,0.1-4.7c0-1.5,0.3-2.7,0.9-3.4c0.6-0.7,1.4-1.2,2.7-1.4
		c0.5-0.1,1-0.2,1.4-0.2c0.4-0.1,0.8-0.1,1.1-0.1c0.3,0,0.6-0.1,0.8-0.3c0.2-0.2,0.3-0.4,0.3-0.7c0-0.3-0.2-0.6-0.5-0.7
		c-0.3-0.1-0.8-0.2-1.4-0.1c-1,0-2.2,0-3.5,0.1c-1.3,0-2.6,0.1-3.8,0.1c-1.3,0-2.4,0.1-3.4,0.1c-0.7,0-1.6,0-2.7,0
		c-1.1,0-2.3,0-3.6-0.1c-1.3,0-2.6-0.1-4-0.1c-1.3,0-2.6,0-3.8,0c-0.6,0-1.1,0-1.5,0.1c-0.3,0.1-0.5,0.3-0.5,0.7
		c0,0.3,0.2,0.5,0.4,0.7c0.3,0.2,0.6,0.3,1,0.3c0.7,0,1.3,0,2,0.1c0.7,0.1,1.2,0.1,1.6,0.2c1,0.3,1.7,0.6,2.3,0.9
		c0.6,0.4,1,0.8,1.2,1.5c0.2,0.6,0.4,1.4,0.4,2.4c0.1,1.3,0.1,2.9,0.1,4.6c0,1.7,0,3.6,0,5.8v8.1c0,0.8-0.1,1.4-0.4,1.9
		c-0.3,0.5-0.7,0.9-1.4,1.2c-1.1,0.5-2.1,0.7-3.1,0.8c-1,0.1-2.1,0.1-3.3,0.1c-4.9,0-9.3-0.8-13.2-2.5c-3.9-1.6-7.2-3.9-10-6.8
		c-2.8-2.9-4.9-6.4-6.4-10.4c-1.5-4-2.2-8.4-2.2-13.2c0-3.6,0.4-6.7,1.1-9.5c0.7-2.7,1.7-5.1,2.9-7c1.3-2,2.7-3.7,4.5-5
		c1.6-1.3,3.2-2.3,4.7-3c1.6-0.7,3.1-1.2,4.6-1.5c1.5-0.3,3-0.5,4.4-0.6c1.4-0.1,2.7-0.1,4-0.1c2.6,0,4.9,0.2,7.1,0.7
		c2.1,0.4,4,1,5.7,1.7c1.7,0.7,3.1,1.4,4.3,2.2c1.2,0.8,2.1,1.5,2.8,2.2c0.8,0.8,1.4,1.7,1.8,2.5c0.4,0.9,0.7,1.7,0.9,2.5
		c0.2,0.8,0.3,1.5,0.4,2.2c0.1,0.4,0.1,0.6,0.3,0.8c0.1,0.2,0.3,0.3,0.7,0.3c0.4,0,0.7-0.2,0.9-0.5c0.2-0.3,0.3-0.8,0.3-1.5
		c0-2.8,0-5,0.1-6.8c0.1-1.8,0.1-3.2,0.2-4.2c0.1-1,0.2-1.8,0.2-2.4c0.1-0.5,0.1-0.9,0.1-1.1c0-0.3-0.1-0.6-0.2-0.7
		c-0.2-0.2-0.5-0.3-1-0.3c-0.7,0-1.6-0.1-2.4-0.2c-0.9-0.1-1.8-0.2-2.6-0.3c-0.8-0.1-1.6-0.3-2.2-0.4c-0.5-0.1-1.3-0.2-2.4-0.4
		c-1.1-0.2-2.5-0.3-4-0.5c-1.5-0.2-3.2-0.3-4.8-0.4c-1.7-0.1-3.3-0.2-5-0.2c-2.6,0-5.2,0.1-7.9,0.3c-2.7,0.3-5.4,0.8-8.2,1.6
		c-2.8,0.8-5.7,2.1-8.6,3.7c-2.1,1.2-4.1,2.8-6,4.6c-1.9,1.8-3.6,4-5.1,6.4c-1.5,2.4-2.7,5.1-3.5,8.1c-0.9,3-1.3,6.3-1.3,9.8
		c0,4.9,0.8,9.2,2.3,13c1.5,3.8,3.5,7,6.2,9.8c2.7,2.7,5.8,5,9.3,6.7c3.5,1.8,7.4,3.1,11.6,3.9c4.2,0.8,8.5,1.2,13,1.2
		c1.8,0,3.7-0.1,5.7-0.2c2-0.1,3.9-0.3,5.9-0.7c2-0.3,3.9-0.7,5.7-1.2c1.8-0.5,3.5-1.1,5.1-1.9c0.4-0.2,0.6-0.4,0.8-0.6
		c0.2-0.2,0.3-0.5,0.3-0.8c0-0.4,0-1,0-1.7V100.1L511.1,100.1z M532.7,87.5c0,4.2,0.4,7.9,1.1,10.8c0.7,3,1.7,5.5,3,7.5
		c1.2,2,2.7,3.7,4.2,5c1.7,1.4,3.5,2.6,5.4,3.4c1.9,0.8,3.8,1.4,5.8,1.8c1.9,0.4,3.7,0.6,5.4,0.7c1.7,0.1,3.1,0.1,4.3,0.1
		c2,0,4.1-0.1,6.2-0.5c2.1-0.3,4.3-0.9,6.6-1.8c2.2-0.9,4.4-2.3,6.6-4.1c1.9-1.6,3.4-3.4,4.6-5.4c1.2-2,2-4.2,2.7-6.5
		c0.6-2.3,1-4.7,1.2-7.2c0.2-2.5,0.3-5,0.3-7.4v-9.5c0-2.7,0-4.9,0-6.8c0-1.9,0-3.5,0-4.7c0-1.3,0-2.4,0-3.2c0-0.8,0-1.6,0.1-2.2
		c0-0.6,0-1.2,0.1-1.7c0.1-1,0.2-1.9,0.4-2.5c0.2-0.7,0.5-1.2,1-1.5c0.5-0.3,1.1-0.6,1.9-0.7c0.6-0.1,1-0.2,1.4-0.2
		c0.4-0.1,0.8-0.1,1.3-0.1c1,0,1.6-0.3,1.6-0.9c0-0.3-0.2-0.5-0.5-0.7c-0.3-0.1-0.8-0.2-1.4-0.2c-0.9,0-1.9,0-3,0
		c-1.1,0-2.2,0-3.3,0.1c-1.1,0-2,0.1-2.8,0.1c-0.8,0-1.3,0-1.6,0c0,0-0.4,0-1.1,0c-0.7,0-1.6,0-2.7-0.1c-1.1,0-2.3-0.1-3.5-0.1
		c-1.3,0-2.5,0-3.7,0c-0.6,0-1.1,0.1-1.4,0.2c-0.3,0.1-0.5,0.3-0.5,0.7c0,0.6,0.5,0.9,1.6,0.9c0.6,0,1.1,0,1.8,0.1
		c0.6,0.1,1.2,0.1,1.5,0.2c1,0.3,1.7,0.6,2.3,0.9c0.5,0.4,0.9,0.8,1.2,1.5c0.2,0.6,0.4,1.4,0.4,2.4c0,0.5,0.1,1.1,0.1,1.7
		c0,0.6,0,1.4,0.1,2.2c0,0.8,0,1.9,0.1,3.2c0,1.3,0,2.9,0,4.7c0,1.9,0,4.2,0,6.8v11.1c0,2.3,0,4.4-0.1,6.5c-0.1,2.1-0.3,4-0.6,5.9
		c-0.3,1.8-0.8,3.5-1.6,5.1c-0.7,1.5-1.7,2.9-3,4.1c-1.2,1.2-2.5,2.1-3.9,2.8c-1.4,0.7-2.8,1.2-4.2,1.5c-1.4,0.3-2.8,0.5-4.1,0.4
		c-1,0-2.2-0.1-3.5-0.2c-1.3-0.1-2.6-0.5-4-1c-1.4-0.5-2.7-1.3-4.1-2.4c-1.1-0.9-2.1-1.9-3-3c-0.9-1.1-1.6-2.5-2.2-4.2
		c-0.6-1.6-1-3.6-1.3-5.9c-0.3-2.3-0.5-5.1-0.5-8.3V74.5c0-2.7,0-4.9,0-6.8s0-3.5,0-4.7c0-1.3,0-2.4,0-3.2c0-0.8,0-1.6,0.1-2.2
		c0-0.6,0.1-1.2,0.1-1.7c0.1-1.5,0.4-2.7,0.8-3.4c0.5-0.7,1.3-1.2,2.5-1.4c0.6-0.1,1-0.2,1.4-0.2c0.4-0.1,0.8-0.1,1.3-0.1
		c0.5,0,0.8-0.1,1.1-0.2c0.3-0.2,0.4-0.4,0.4-0.7c0-0.3-0.2-0.5-0.5-0.7c-0.3-0.1-0.8-0.2-1.5-0.2c-0.8,0-1.8,0-2.9,0
		c-1.1,0-2.2,0-3.3,0.1c-1.1,0-2.2,0.1-3.2,0.1c-1,0-1.8,0-2.3,0c-0.9,0-2.1,0-3.7-0.1c-1.5,0-3.2-0.1-4.9-0.1
		c-1.8,0-3.5-0.1-5.1-0.1c-0.7,0-1.2,0.1-1.5,0.2c-0.3,0.1-0.5,0.3-0.5,0.7c0,0.6,0.5,0.9,1.6,0.9c0.6,0,1.3,0,2,0.1
		c0.7,0.1,1.2,0.1,1.6,0.2c1,0.3,1.7,0.6,2.3,0.9c0.6,0.3,1,0.8,1.2,1.4c0.3,0.6,0.4,1.4,0.5,2.4c0,0.5,0.1,1.1,0.1,1.7
		c0,0.6,0,1.4,0,2.2c0,0.8,0,1.9,0,3.2c0,1.3,0,2.9,0,4.7c0,1.9,0,4.2,0,6.8V87.5L532.7,87.5z M613.6,90.1c0,2.7,0,5.3,0,7.7
		c0,2.4-0.1,4.5-0.1,6.4c-0.1,1.9-0.2,3.5-0.3,4.7c-0.1,1.3-0.4,2.4-0.8,3.2c-0.4,0.8-1,1.3-1.9,1.5c-0.4,0.1-0.9,0.2-1.4,0.2
		c-0.5,0.1-1.1,0.1-1.8,0.1c-0.6,0-1,0.1-1.2,0.3c-0.2,0.2-0.3,0.4-0.3,0.6c0,0.3,0.2,0.5,0.5,0.7c0.3,0.2,0.7,0.2,1.3,0.2
		c0.9,0,1.9,0,3-0.1c1.1,0,2.2-0.1,3.3-0.1c1.1,0,2-0.1,2.9-0.1c0.9,0,1.5-0.1,2-0.1c0.4,0,1,0,2,0.1c1,0,2.2,0.1,3.6,0.1
		c1.4,0,2.8,0.1,4.3,0.1c1.5,0,2.9,0.1,4.3,0.1c0.6,0,1-0.1,1.4-0.2c0.3-0.2,0.5-0.4,0.5-0.7c0-0.2-0.1-0.4-0.3-0.6
		c-0.2-0.2-0.5-0.3-0.8-0.3c-0.4,0-0.8,0-1.4,0c-0.5,0-1.1-0.1-1.6-0.1c-0.5-0.1-1-0.1-1.5-0.2c-0.9-0.1-1.6-0.4-2.1-0.8
		c-0.5-0.4-0.8-0.9-1-1.6c-0.2-0.6-0.3-1.4-0.4-2.3c-0.1-1.3-0.2-2.8-0.3-4.7c-0.1-1.9-0.1-4-0.2-6.4c0-2.4,0-4.9,0-7.7v-1.2
		c0-0.3,0.1-0.5,0.2-0.6c0.1-0.1,0.3-0.2,0.5-0.2l8.2,0.2c0.3,0,0.6,0,0.9,0.1c0.3,0.1,0.5,0.2,0.8,0.5c0.3,0.3,0.7,1,1.3,1.8
		c0.6,0.8,1.3,1.8,2.1,3c0.8,1.1,1.6,2.3,2.5,3.6c0.9,1.3,1.8,2.5,2.7,3.7c1.7,2.3,3.2,4.3,4.6,6c1.4,1.7,2.7,3.1,4,4.3
		c1.3,1.2,2.6,2.1,3.9,2.7c0.8,0.4,1.6,0.7,2.5,1c0.9,0.3,2,0.5,3.2,0.6c1.2,0.1,2.6,0.2,4.3,0.2h8.7c0.6,0,1-0.1,1.3-0.2
		c0.3-0.1,0.5-0.4,0.5-0.7c0-0.2-0.1-0.4-0.3-0.6c-0.2-0.2-0.5-0.3-0.8-0.3c-0.3,0-0.7,0-1,0c-0.3,0-0.7-0.1-1.2-0.2
		c-0.5-0.1-1.2-0.2-2-0.5c-0.9-0.3-2-0.8-3.3-1.6c-1.3-0.8-2.8-2-4.5-3.7c-2.7-2.8-5.8-6.1-9.1-10.1c-3.3-4-7-8.4-11-13.4
		c3-2.4,5.4-4.6,7.3-6.8c1.9-2.2,3.2-4.3,4.1-6.4c0.9-2.1,1.3-4.2,1.3-6.4c0-1.5-0.2-2.9-0.6-4.2c-0.4-1.3-1-2.4-1.6-3.5
		c-0.7-1-1.4-1.9-2.1-2.7c-0.7-0.8-1.4-1.4-2.1-1.8c-1.6-1.1-3.4-1.9-5.4-2.4c-1.9-0.5-3.9-0.9-6-1.1c-2.1-0.2-4.1-0.3-6-0.3
		c-0.7,0-1.7,0-3,0c-1.3,0-2.6,0-4,0.1c-1.4,0-2.8,0.1-4.1,0.1c-1.3,0-2.3,0-3.2,0c-0.5,0-1.2,0-2.1,0c-0.9,0-1.9,0-3.1-0.1
		c-1.2,0-2.4-0.1-3.6-0.1c-1.3,0-2.5,0-3.7,0c-0.7,0-1.2,0.1-1.5,0.2c-0.4,0.1-0.5,0.3-0.5,0.7c0,0.3,0.2,0.5,0.4,0.7
		c0.3,0.2,0.7,0.2,1.1,0.2c0.7,0,1.4,0,2.1,0.1c0.7,0.1,1.2,0.1,1.6,0.2c1,0.3,1.7,0.6,2.3,0.9c0.6,0.4,1,0.8,1.2,1.5
		c0.3,0.6,0.4,1.4,0.5,2.4c0,0.5,0,1.1,0.1,1.7c0,0.6,0,1.4,0,2.2c0,0.9,0,1.9,0,3.2c0,1.3,0,2.9,0,4.7s0,4.2,0,6.8V90.1L613.6,90.1
		z M625.2,55.1c0-0.4,0.1-0.6,0.2-0.8c0.1-0.2,0.3-0.3,0.7-0.4c0.5-0.1,1.2-0.2,2.2-0.2c1-0.1,2-0.1,3.2-0.1c1.1,0,2.3,0.1,3.5,0.4
		c1.3,0.3,2.5,0.8,3.7,1.5c1.2,0.7,2.3,1.7,3.3,2.9c1,1.2,1.8,2.7,2.4,4.5c0.6,1.8,0.9,3.9,0.9,6.4c0,2.4-0.3,4.5-0.9,6.2
		c-0.6,1.7-1.3,3.1-2.2,4.3c-0.9,1.1-1.8,2-2.8,2.7c-0.5,0.4-1,0.7-1.6,0.9c-0.5,0.2-1.2,0.4-1.9,0.5c-0.8,0.1-1.8,0.1-2.9,0.1
		c-1.2,0-2.4-0.1-3.6-0.2c-1.2-0.1-2.4-0.3-3.4-0.7c-0.3-0.1-0.5-0.3-0.7-0.6c-0.1-0.2-0.2-0.6-0.2-1V55.1L625.2,55.1z M680.4,87.5
		v-13c0-2.7,0-4.9,0-6.8c0-1.9,0-3.5,0-4.7c0-1.3,0-2.4,0-3.2c0-0.8,0-1.6,0-2.2c0-0.6-0.1-1.2-0.1-1.7c-0.1-1-0.2-1.8-0.5-2.4
		c-0.3-0.6-0.7-1.1-1.2-1.4c-0.6-0.3-1.3-0.7-2.3-0.9c-0.4-0.1-0.9-0.2-1.6-0.2c-0.7-0.1-1.3-0.1-2-0.1c-1,0-1.6-0.3-1.6-0.9
		c0-0.3,0.2-0.5,0.5-0.7c0.3-0.1,0.8-0.2,1.5-0.2c1.7,0,3.4,0,5.1,0.1c1.8,0,3.4,0.1,4.9,0.1c1.5,0,2.7,0.1,3.7,0.1
		c0.6,0,1.4,0,2.3,0c1,0,2,0,3.2-0.1c1.1,0,2.2-0.1,3.3-0.1c1.1,0,2.1,0,2.9,0c0.7,0,1.2,0.1,1.5,0.2c0.3,0.1,0.5,0.3,0.5,0.7
		c0,0.3-0.1,0.5-0.4,0.7c-0.2,0.2-0.6,0.2-1.1,0.2c-0.5,0-0.9,0-1.3,0.1c-0.4,0.1-0.8,0.1-1.4,0.2c-1.2,0.2-2,0.6-2.5,1.4
		c-0.5,0.7-0.8,1.9-0.8,3.4c0,0.5-0.1,1.1-0.1,1.7c0,0.6-0.1,1.4-0.1,2.2c0,0.8,0,1.9,0,3.2c0,1.3,0,2.9,0,4.7s0,4.2,0,6.8v12.4
		c0,3.2,0.2,6,0.5,8.3c0.3,2.3,0.7,4.3,1.3,5.9c0.6,1.6,1.3,3,2.2,4.2c0.9,1.2,1.9,2.2,3,3c1.4,1.1,2.7,1.8,4.1,2.4
		c1.4,0.5,2.7,0.8,4,1c1.3,0.2,2.4,0.2,3.5,0.2c1.3,0,2.7-0.1,4.1-0.4c1.4-0.3,2.8-0.8,4.2-1.5c1.4-0.7,2.7-1.6,3.9-2.8
		c1.3-1.2,2.3-2.6,3-4.1c0.7-1.5,1.2-3.2,1.6-5.1c0.3-1.8,0.6-3.8,0.6-5.9c0.1-2.1,0.1-4.2,0.1-6.5V74.5c0-2.7,0-4.9,0-6.8
		c0-1.9,0-3.5,0-4.7c0-1.3,0-2.4-0.1-3.2c0-0.8,0-1.6-0.1-2.2c0-0.6-0.1-1.2-0.1-1.7c-0.1-1-0.2-1.8-0.4-2.4
		c-0.2-0.6-0.6-1.1-1.2-1.5c-0.5-0.4-1.3-0.7-2.3-0.9c-0.4-0.1-0.9-0.2-1.5-0.2c-0.6-0.1-1.2-0.1-1.8-0.1c-1,0-1.6-0.3-1.6-0.9
		c0-0.3,0.2-0.5,0.5-0.7c0.3-0.1,0.8-0.2,1.4-0.2c1.2,0,2.4,0,3.7,0c1.2,0,2.4,0,3.5,0.1c1.1,0,2,0.1,2.7,0.1c0.7,0,1.1,0,1.1,0
		c0.3,0,0.8,0,1.6,0c0.8,0,1.7,0,2.8-0.1c1.1,0,2.2-0.1,3.3-0.1c1.1,0,2.1,0,3,0c0.6,0,1.1,0.1,1.4,0.2c0.3,0.1,0.5,0.3,0.5,0.7
		c0,0.6-0.5,0.9-1.6,0.9c-0.5,0-0.9,0-1.3,0.1c-0.4,0.1-0.8,0.1-1.4,0.2c-0.8,0.1-1.5,0.4-1.9,0.7c-0.5,0.4-0.8,0.9-1,1.5
		c-0.2,0.6-0.3,1.5-0.4,2.5c0,0.5,0,1.1-0.1,1.7c0,0.6-0.1,1.4-0.1,2.2c0,0.8,0,1.9,0,3.2c0,1.3,0,2.9,0,4.7c0,1.9,0,4.2,0,6.8V84
		c0,2.5-0.1,5-0.3,7.4c-0.2,2.5-0.6,4.9-1.2,7.2c-0.6,2.3-1.5,4.5-2.7,6.5c-1.2,2-2.7,3.8-4.6,5.4c-2.1,1.8-4.3,3.1-6.6,4.1
		c-2.2,0.9-4.4,1.5-6.6,1.8c-2.2,0.3-4.2,0.5-6.2,0.5c-1.2,0-2.7,0-4.4-0.1c-1.7-0.1-3.5-0.3-5.4-0.7c-1.9-0.4-3.8-1-5.8-1.8
		c-1.9-0.8-3.7-2-5.4-3.4c-1.6-1.3-3-3-4.2-5c-1.2-2-2.2-4.5-3-7.5C680.8,95.4,680.5,91.8,680.4,87.5z"/>
</g>
<g id="Layer_5">
	<path class="st2" d="M230.5,85.6c0,3.2,0,6.2,0,9c0,2.8-0.1,5.3-0.1,7.6c-0.1,2.2-0.2,4.1-0.4,5.6c-0.1,1-0.3,1.9-0.5,2.7
		c-0.2,0.8-0.5,1.5-0.9,2c-0.4,0.5-0.9,0.9-1.6,1c-0.5,0.1-1,0.2-1.6,0.3c-0.6,0.1-1.3,0.1-2.1,0.1c-0.6,0-1,0.1-1.3,0.2
		c-0.2,0.1-0.4,0.3-0.4,0.6c0,0.4,0.2,0.6,0.5,0.8c0.3,0.2,0.9,0.2,1.5,0.2c1.1,0,2.2-0.1,3.5-0.1c1.3-0.1,2.5-0.1,3.7-0.1
		c1.3-0.1,2.4-0.1,3.5-0.1c1.1,0,1.9,0,2.5,0c1.3,0,2.8,0.1,4.6,0.2c1.7,0.1,3.6,0.3,5.6,0.4c2,0.2,4,0.3,6.1,0.4
		c2,0.1,4,0.2,5.9,0.2c4.8,0,9.1-0.4,12.9-1.2c3.8-0.8,7.1-1.8,9.9-3.1c2.8-1.3,5.3-2.6,7.2-4c2-1.4,3.6-2.7,4.7-4
		c1.5-1.5,2.9-3.2,4.2-5.2c1.4-2,2.6-4.2,3.6-6.6c1.1-2.4,1.9-5.1,2.5-8c0.6-2.9,0.9-5.9,1-9.2c0-4.1-0.5-7.8-1.5-11.1
		c-1-3.3-2.2-6.2-3.7-8.8c-1.5-2.5-3.2-4.7-4.9-6.5c-2.3-2.4-4.8-4.3-7.4-5.8c-2.7-1.5-5.5-2.7-8.4-3.5c-2.9-0.8-5.9-1.4-8.8-1.8
		c-3-0.4-5.9-0.6-8.8-0.7c-2.9-0.1-5.6-0.1-8.2-0.1c-2.1,0-4.2,0-6.2,0.1c-2,0-3.9,0.1-5.6,0.1c-1.7,0.1-3.1,0.1-4.2,0.1
		c-1,0-2.3,0-4-0.1c-1.6-0.1-3.4-0.1-5.3-0.1c-1.9-0.1-3.8-0.1-5.7-0.1c-0.8,0-1.4,0.1-1.7,0.2c-0.4,0.1-0.6,0.4-0.6,0.7
		c0,0.3,0.2,0.6,0.5,0.7c0.3,0.1,0.7,0.2,1.3,0.2c0.8,0,1.5,0,2.3,0.1c0.7,0.1,1.4,0.1,1.8,0.2c1.1,0.2,2,0.6,2.6,1.1
		c0.6,0.5,1.1,1.1,1.4,1.9c0.3,0.8,0.4,1.8,0.5,2.9c0,0.6,0.1,1.3,0.1,2c0,0.7,0.1,1.6,0.1,2.6c0,1,0,2.3,0,3.8c0,1.5,0,3.4,0,5.6
		c0,2.2,0,4.9,0,8V85.6L230.5,85.6z M243.5,65.7c0-2.1,0-4.1,0-6.2c0-2.1,0-4.1,0-5.9c0-1.9,0-3.6,0-5.1c0-1.5,0-2.7,0.1-3.6
		c0-0.6,0.1-1,0.3-1.3c0.2-0.3,0.5-0.6,1-0.8c0.2-0.1,0.6-0.2,1.1-0.3c0.5-0.1,1.1-0.2,1.8-0.2c0.7-0.1,1.4-0.1,2-0.2
		c0.7,0,1.3-0.1,1.8-0.1c2,0,4.3,0.1,6.7,0.3c2.4,0.2,4.9,0.7,7.5,1.4c2.6,0.7,5.2,1.8,7.8,3.1c2.6,1.4,5.1,3.2,7.5,5.5
		c1.1,1.1,2.3,2.4,3.4,4c1.2,1.6,2.2,3.5,3.2,5.6c1,2.2,1.8,4.6,2.4,7.3c0.6,2.7,0.9,5.7,0.9,9c0,3.6-0.2,7-0.8,10.2
		c-0.5,3.2-1.5,6.2-2.7,8.8c-1.3,2.7-3,5-5.2,6.9c-2.1,1.8-4.3,3.2-6.6,4.4c-2.3,1.1-4.9,1.9-7.8,2.4c-2.8,0.5-6,0.8-9.5,0.7
		c-2.7,0-5-0.2-6.9-0.6c-1.9-0.4-3.3-0.9-4.4-1.6c-1.1-0.6-1.9-1.3-2.3-2c-0.3-0.4-0.5-1.1-0.6-2c-0.2-0.9-0.3-1.9-0.3-3
		c-0.1-1.1-0.1-2-0.2-2.9c0-0.7-0.1-2-0.1-3.9c0-1.9-0.1-4.3-0.1-7.2c0-2.9,0-6.2,0-9.9V65.7L243.5,65.7z M326.8,85.6
		c0,3.2,0,6.2,0,9c0,2.8-0.1,5.3-0.1,7.6c-0.1,2.2-0.2,4.1-0.4,5.6c-0.1,1-0.3,1.9-0.5,2.7c-0.2,0.8-0.5,1.5-0.9,2
		c-0.4,0.5-0.9,0.9-1.6,1c-0.5,0.1-1,0.2-1.6,0.3c-0.6,0.1-1.3,0.1-2.1,0.1c-0.6,0-1,0.1-1.3,0.2c-0.2,0.1-0.4,0.3-0.4,0.6
		c0,0.4,0.2,0.6,0.5,0.8c0.3,0.2,0.9,0.2,1.5,0.2c1.1,0,2.2,0,3.5-0.1c1.2,0,2.5-0.1,3.7-0.1c1.2,0,2.4-0.1,3.4-0.1
		c1,0,1.9-0.1,2.5-0.1c0.9,0,2.2,0,3.9,0.1c1.6,0.1,3.5,0.1,5.6,0.1c2.1,0.1,4.3,0.1,6.6,0.1c0.6,0,1.1-0.1,1.4-0.2
		c0.4-0.2,0.5-0.4,0.6-0.8c0-0.3-0.1-0.5-0.4-0.6c-0.3-0.2-0.7-0.2-1.3-0.2c-0.5,0-1.1,0-1.8-0.1c-0.6-0.1-1.2-0.1-1.9-0.2
		c-0.6-0.1-1.2-0.1-1.7-0.2c-1-0.1-1.8-0.5-2.4-1c-0.6-0.5-0.9-1.2-1.2-2c-0.2-0.8-0.4-1.7-0.5-2.7c-0.2-1.5-0.3-3.4-0.4-5.6
		c-0.1-2.3-0.1-4.8-0.1-7.6c0-2.8,0-5.8,0-9V44.1c0-0.6,0.1-1,0.2-1.3c0.1-0.3,0.3-0.5,0.6-0.6c0.5-0.2,1.1-0.3,1.8-0.3
		c0.7-0.1,1.5-0.1,2.3-0.1c0.8,0,1.8,0.1,2.9,0.3c1.1,0.2,2.4,0.6,3.6,1.2c1.3,0.6,2.6,1.5,3.8,2.6c1.4,1.3,2.6,2.7,3.4,4.1
		c0.8,1.5,1.5,2.9,1.8,4.3c0.4,1.4,0.6,2.8,0.7,4c0.1,1.2,0.2,2.3,0.1,3.2c0,2.7-0.5,5-1.4,7.2c-0.9,2.1-2,3.9-3.4,5.4
		c-1.4,1.5-2.9,2.6-4.5,3.4c-1.6,0.8-3.1,1.2-4.6,1.2c-1.1,0-1.8,0.1-2.3,0.3c-0.5,0.2-0.7,0.5-0.6,0.9c0,0.3,0.2,0.6,0.4,0.7
		c0.3,0.1,0.5,0.2,0.8,0.2c0.3,0.1,0.7,0.1,1.1,0.1c0.5,0,0.8,0,1.1,0c3.7,0,7.1-0.6,10.2-1.9c3.1-1.2,5.8-2.9,8.1-5.2
		c2.3-2.2,4.1-4.9,5.3-8c1.3-3.1,1.9-6.4,1.9-10.2c0-1.9-0.3-3.6-0.8-5.2c-0.5-1.6-1.2-3-2-4.2c-0.8-1.2-1.6-2.2-2.4-2.9
		c-0.4-0.4-1-0.9-1.9-1.6c-0.9-0.6-2-1.3-3.5-2c-1.5-0.7-3.4-1.2-5.6-1.7c-2.3-0.5-5-0.7-8.3-0.7c-1.6,0-3.3,0-5.1,0.1
		c-1.8,0-3.5,0.1-5.3,0.1c-1.7,0.1-3.3,0.1-4.7,0.1c-1,0-2.3,0-4-0.1c-1.6-0.1-3.4-0.1-5.3-0.1c-1.9-0.1-3.8-0.1-5.7-0.1
		c-0.8,0-1.4,0.1-1.7,0.2c-0.4,0.1-0.6,0.4-0.6,0.7c0,0.3,0.2,0.6,0.5,0.7c0.3,0.1,0.7,0.2,1.3,0.2c0.8,0,1.5,0,2.3,0.1
		c0.7,0.1,1.4,0.1,1.8,0.2c1.1,0.2,2,0.6,2.6,1.1c0.6,0.5,1.1,1.1,1.4,1.9c0.3,0.8,0.4,1.8,0.5,2.9c0,0.6,0.1,1.3,0.1,2
		c0,0.7,0.1,1.6,0.1,2.6c0,1,0,2.3,0,3.8c0,1.5,0,3.4,0,5.6c0,2.2,0,4.9,0,8V85.6L326.8,85.6z M407.9,67.3c0-3.1,0-5.8,0-8
		c0-2.2,0-4.1,0-5.6c0-1.5,0-2.8,0-3.8c0-1,0-1.9,0.1-2.6c0-0.7,0.1-1.4,0.1-2c0.1-1.8,0.4-3.2,1-4.1c0.6-0.9,1.5-1.5,2.9-1.8
		c0.6-0.1,1.3-0.2,2.1-0.2c0.7-0.1,1.4-0.1,2-0.1c0.6,0,1.1-0.1,1.4-0.2c0.3-0.1,0.5-0.4,0.5-0.7c0-0.4-0.2-0.6-0.6-0.7
		c-0.4-0.1-0.9-0.2-1.6-0.2c-1,0-2.2,0-3.6,0.1c-1.3,0-2.7,0.1-4.1,0.1c-1.4,0-2.6,0.1-3.8,0.1c-1.1,0-2,0.1-2.7,0.1
		c-0.7,0-1.6,0-2.7-0.1c-1.1,0-2.3-0.1-3.6-0.1c-1.3,0-2.7-0.1-4-0.1c-1.4,0-2.7-0.1-3.9-0.1c-0.8,0-1.4,0.1-1.7,0.2
		c-0.4,0.1-0.6,0.4-0.6,0.7c0,0.3,0.2,0.6,0.5,0.7c0.3,0.1,0.7,0.2,1.3,0.2c0.7,0,1.3,0,1.9,0.1c0.6,0.1,1.1,0.1,1.5,0.2
		c1.1,0.2,2,0.6,2.6,1.1c0.6,0.5,1.1,1.1,1.4,1.9c0.3,0.8,0.4,1.8,0.5,2.9c0,0.6,0.1,1.3,0.1,2c0,0.7,0.1,1.6,0.1,2.6
		c0,1,0,2.3,0,3.8c0,1.5,0,3.4,0,5.6c0,2.2,0,4.9,0,8v18.3c0,3.2,0,6.2,0,9c0,2.8-0.1,5.3-0.1,7.6c-0.1,2.2-0.2,4.1-0.4,5.6
		c-0.1,1-0.3,1.9-0.5,2.7c-0.2,0.8-0.5,1.5-0.9,2c-0.4,0.5-0.9,0.9-1.6,1c-0.5,0.1-1,0.2-1.6,0.3c-0.6,0.1-1.3,0.1-2.1,0.1
		c-0.6,0-1,0.1-1.3,0.2c-0.2,0.1-0.4,0.3-0.4,0.6c0,0.4,0.2,0.6,0.5,0.8c0.3,0.2,0.9,0.2,1.5,0.2c1.1,0,2.2-0.1,3.5-0.1
		c1.3-0.1,2.5-0.1,3.7-0.1c1.3-0.1,2.4-0.1,3.5-0.1c1.1,0,1.9,0,2.5,0c1.4,0,2.8,0,4.1,0c1.4,0,2.7,0.1,4.1,0.1
		c1.4,0.1,2.9,0.1,4.4,0.2c2.3,0.1,4.9,0.1,7.7,0.2c2.8,0.1,6.1,0.1,9.8,0.1c1.3,0,2.4,0,3.2-0.1c0.8-0.1,1.4-0.2,1.8-0.4
		c0.4-0.2,0.8-0.5,1-0.8c0.2-0.4,0.4-0.8,0.5-1.4c0.2-0.6,0.3-1.4,0.5-2.3c0.2-0.9,0.3-1.9,0.4-2.9c0.1-1,0.3-2,0.3-2.9
		c0.1-0.9,0.2-1.8,0.2-2.4c0.1-0.7,0.1-1.1,0.1-1.4c0-0.6,0-1.1-0.1-1.4c-0.1-0.3-0.3-0.4-0.7-0.4c-0.4,0-0.7,0.2-0.8,0.4
		c-0.2,0.3-0.3,0.7-0.3,1.1c-0.1,0.7-0.2,1.4-0.5,2.2c-0.3,0.8-0.6,1.5-1,2.3c-0.4,0.7-0.8,1.3-1.2,1.8c-0.9,0.9-1.9,1.6-3.1,2
		c-1.2,0.4-2.5,0.7-4.1,0.8c-1.5,0.1-3.2,0.2-5,0.1c-2.7,0-4.8-0.1-6.5-0.2c-1.6-0.2-2.9-0.4-3.8-0.8c-0.9-0.3-1.7-0.8-2.3-1.3
		c-0.7-0.6-1.2-1.8-1.5-3.7c-0.3-1.8-0.5-4.3-0.6-7.4c-0.1-3.1-0.1-6.9-0.1-11.3V67.3z"/>
</g>
</svg>
