<svg width="64" height="64" viewBox="0 0 64 64" fill="none" xmlns="http://www.w3.org/2000/svg">
<g clip-path="url(#clip0)">
<path d="M53 20C52.9977 18.7158 52.6423 17.457 51.9724 16.3613C51.3026 15.2656 50.3443 14.3753 49.2023 13.7878C48.0604 13.2003 46.7788 12.9382 45.4979 13.0303C44.217 13.1225 42.9861 13.5652 41.94 14.31C40.6031 10.8223 38.0881 7.91221 34.8309 6.08408C31.5737 4.25596 27.7796 3.62502 24.106 4.3006C20.4325 4.97619 17.111 6.91572 14.7173 9.78306C12.3237 12.6504 11.0086 16.2649 11 20C8.08262 20 5.28473 21.1589 3.22183 23.2218C1.15893 25.2847 0 28.0826 0 31C0 33.9174 1.15893 36.7153 3.22183 38.7782C5.28473 40.8411 8.08262 42 11 42H53C55.9174 42 58.7153 40.8411 60.7782 38.7782C62.8411 36.7153 64 33.9174 64 31C64 28.0826 62.8411 25.2847 60.7782 23.2218C58.7153 21.1589 55.9174 20 53 20Z" fill="#FACF6C"/>
<path d="M64 47H55L52 50L47 41L44 53L39 44L36 47H8" stroke="#FF7652" stroke-width="2" stroke-miterlimit="10"/>
<path d="M0 47H2" stroke="#FF7652" stroke-width="2" stroke-miterlimit="10"/>
<path d="M4 47H6" stroke="#FF7652" stroke-width="2" stroke-miterlimit="10"/>
<path d="M29 33H25V59H29V33Z" fill="#736B6D"/>
<path d="M27 33C34.1797 33 40 27.1797 40 20C40 12.8203 34.1797 7 27 7C19.8203 7 14 12.8203 14 20C14 27.1797 19.8203 33 27 33Z" fill="white"/>
<path d="M29 37H25" stroke="#524A4D" stroke-width="2" stroke-miterlimit="10"/>
<path d="M29 33V59H25V33H27C30.226 33 33.3369 31.8005 35.7278 29.6346C38.1187 27.4688 39.6189 24.4913 39.9367 21.281C40.2546 18.0706 39.3675 14.8568 37.4478 12.2641C35.5281 9.67139 32.7129 7.8851 29.5495 7.25242C26.3861 6.61974 23.1005 7.18587 20.3313 8.84077C17.562 10.4957 15.507 13.1211 14.5657 16.2068C13.6244 19.2924 13.864 22.6178 15.238 25.5367C16.612 28.4555 19.0221 30.7592 22 32" stroke="#524A4D" stroke-width="2" stroke-miterlimit="10"/>
<path d="M26 20H28" stroke="#524A4D" stroke-width="2" stroke-miterlimit="10"/>
<path d="M22 20H24" stroke="#524A4D" stroke-width="2" stroke-miterlimit="10"/>
<path d="M30 20H32" stroke="#524A4D" stroke-width="2" stroke-miterlimit="10"/>
</g>
<defs>
<clipPath id="clip0">
<rect width="64" height="64" fill="white"/>
</clipPath>
</defs>
</svg>
