<svg width="30" height="24" viewBox="0 0 30 24" fill="none" xmlns="http://www.w3.org/2000/svg">
<path d="M13.2368 18.3586C13.2368 20.0797 12.6654 21.4502 11.5227 22.4701C10.38 23.49 8.98326 24 7.33263 24C5.11062 24 3.33301 23.3307 1.99981 21.992C0.666602 20.6534 0 18.6454 0 15.9681C0 13.4183 0.349172 11.2191 1.04752 9.37052C1.80935 7.45817 2.69815 5.86454 3.71393 4.58964C4.79319 3.31474 5.90419 2.32669 7.04694 1.62549C8.18969 0.860556 9.20546 0.318725 10.0943 0L12.9511 3.92032C11.1735 4.81275 9.61812 5.96016 8.28492 7.36255C7.0152 8.76494 6.38034 10.5498 6.38034 12.7171C6.63428 12.6534 7.0152 12.6215 7.52309 12.6215C8.98326 12.6215 10.2847 13.1633 11.4275 14.247C12.6337 15.3307 13.2368 16.7012 13.2368 18.3586ZM30 18.3586C30 20.0797 29.4286 21.4502 28.2859 22.4701C27.1431 23.49 25.7464 24 24.0958 24C21.8738 24 20.0962 23.3307 18.763 21.992C17.4298 20.6534 16.7632 18.6454 16.7632 15.9681C16.7632 13.4183 17.1124 11.2191 17.8107 9.37052C18.5725 7.45817 19.4613 5.86454 20.4771 4.58964C21.5564 3.31474 22.6674 2.32669 23.8101 1.62549C24.9529 0.860556 25.9686 0.318725 26.8574 0L29.7143 3.92032C27.9367 4.81275 26.3813 5.96016 25.0481 7.36255C23.7784 8.76494 23.1435 10.5498 23.1435 12.7171C23.3975 12.6534 23.7784 12.6215 24.2863 12.6215C25.7464 12.6215 27.0479 13.1633 28.1907 14.247C29.3969 15.3307 30 16.7012 30 18.3586Z" fill="#BB2E21"/>
</svg>
