<svg width="64" height="64" viewBox="0 0 64 64" fill="none" xmlns="http://www.w3.org/2000/svg">
<path d="M56 50L32 64L8 50V0H14L18 4L22 0H42L46 4L50 0H56V50Z" fill="#FF7652"/>
<path d="M11 2V48L32 60L53 48V2" stroke="#524A4D" stroke-width="2" stroke-miterlimit="10"/>
<path d="M32 43C40.2843 43 47 36.2843 47 28C47 19.7157 40.2843 13 32 13C23.7157 13 17 19.7157 17 28C17 36.2843 23.7157 43 32 43Z" fill="white"/>
<path d="M32 40C38.6274 40 44 34.6274 44 28C44 21.3726 38.6274 16 32 16C25.3726 16 20 21.3726 20 28C20 34.6274 25.3726 40 32 40Z" fill="#73DCE0"/>
<path d="M32 43C40.2843 43 47 36.2843 47 28C47 19.7157 40.2843 13 32 13C23.7157 13 17 19.7157 17 28C17 36.2843 23.7157 43 32 43Z" stroke="#524A4D" stroke-width="2" stroke-miterlimit="10"/>
<path d="M17 28H47" stroke="#524A4D" stroke-width="2" stroke-miterlimit="10"/>
<path d="M32 13V43" stroke="#524A4D" stroke-width="2" stroke-miterlimit="10"/>
<path d="M32 43C36.4183 43 40 36.2843 40 28C40 19.7157 36.4183 13 32 13C27.5817 13 24 19.7157 24 28C24 36.2843 27.5817 43 32 43Z" stroke="#524A4D" stroke-width="2" stroke-miterlimit="10"/>
<path d="M31 5H33" stroke="white" stroke-width="2" stroke-miterlimit="10"/>
<path d="M35 5H37" stroke="white" stroke-width="2" stroke-miterlimit="10"/>
<path d="M27 5H29" stroke="white" stroke-width="2" stroke-miterlimit="10"/>
</svg>
