<svg width="129" height="50" viewBox="0 0 129 50" fill="none" xmlns="http://www.w3.org/2000/svg">
<g clip-path="url(#clip0)">
<path d="M128.718 43.6268C127.855 46.3791 126.035 47.317 124.333 47.317C121.556 47.317 119.705 44.6801 119.705 40.2673C119.705 40.2058 119.705 40.0828 119.736 39.6292H128.843C128.875 36.1466 126.192 33.9709 122.733 33.9709C119.367 33.9709 115.477 36.6617 115.477 41.751C115.477 46.4406 119.093 49.2851 122.395 49.2851C125.855 49.2851 128.043 46.9864 129 43.7191L128.718 43.6268ZM122.599 34.2785C124.113 34.2785 125.102 35.6392 125.133 39.2986H119.728C119.885 35.4547 121.148 34.2785 122.599 34.2785Z" fill="black"/>
<path d="M115.963 34.2168H115.563C114.669 34.2168 113.861 34.3091 112.904 34.3091C111.947 34.3091 111.241 34.2168 110.276 34.2168H109.97V34.4859C111.358 34.4859 112.221 35.2085 112.221 36.4847C112.221 36.9998 112.033 37.6917 111.852 38.2068L109.193 45.5871L105.859 36.1464C105.765 35.9004 105.703 35.6006 105.703 35.393C105.703 34.7242 106.197 34.4859 106.965 34.4859V34.2168H105.977C105.114 34.2168 104.338 34.3091 103.326 34.3091C102.306 34.3091 101.569 34.2168 100.698 34.2168H99.7095V34.4859C100.604 34.4859 101.129 35.0317 101.623 36.3309L106.252 49.0389H108.291H110.456L109.374 46.0406L112.151 38.3836C112.951 36.1772 114.339 34.5089 115.947 34.4782V34.2168H115.963Z" fill="black"/>
<path d="M95.4964 31.3942C96.673 31.3942 97.7163 30.5793 97.7163 29.3031C97.7163 28.0654 96.6652 27.2197 95.4964 27.2197C94.2884 27.2197 93.2764 28.0654 93.2764 29.3031C93.2686 30.5716 94.2884 31.3942 95.4964 31.3942Z" fill="black"/>
<path d="M97.5912 46.6482V33.825H97.3715C96.8146 34.6091 94.3123 35.0627 92.7983 35.0627H91.8413V35.3318H91.9668C93.2925 35.3318 93.5749 36.2389 93.5749 37.4536V46.6559C93.5749 47.8629 93.3004 48.7778 91.9668 48.7778H91.8413V49.0468H92.8611H95.5752H98.305H99.3248V48.7778H99.1993C97.8736 48.7701 97.5912 47.8629 97.5912 46.6482Z" fill="black"/>
<path d="M88.7977 47.8629C87.9662 47.8629 87.472 47.3478 87.472 45.9256V34.5476H90.6803V34.217H87.472V29.1892H87.1975V29.3122C87.1975 30.9728 86.0836 31.9722 83.495 31.9722V34.2093H81.3613V34.5399H83.495V45.4951C83.495 48.401 85.1344 49.2775 86.9543 49.2775C89.1429 49.2775 90.4137 47.763 90.8137 46.1639L90.5705 46.1024C90.2175 47.1326 89.5665 47.8629 88.7977 47.8629Z" fill="black"/>
<path d="M78.9761 46.6482V33.825H78.7565C78.1996 34.6091 75.6972 35.0627 74.1833 35.0627H73.2263V35.3318H73.3518C74.6775 35.3318 74.9599 36.2389 74.9599 37.4536V46.8942L72.9831 47.6169C72.332 47.8629 71.5947 48.132 71.0691 48.132C70.418 48.132 70.0179 47.7706 70.0179 46.8635V33.825H69.7983C69.2414 34.6091 66.739 35.0627 65.2251 35.0627H64.2681V35.3318H64.3936C65.7193 35.3318 66.0017 36.2389 66.0017 37.4536V46.9557C66.0017 48.5625 66.8018 49.2851 68.1667 49.2851C69.2178 49.2851 70.269 48.9546 71.626 48.4395L74.9599 47.2325V49.0468H76.968H79.6821H80.7019V48.7777H80.5764C79.2585 48.7701 78.9761 47.8629 78.9761 46.6482Z" fill="black"/>
<path d="M58.4798 47.3171C56.0088 47.3171 54.1262 45.0185 54.1262 40.2059C54.1262 35.9391 55.7343 34.3016 57.5228 34.3016C59.0367 34.3016 60.0879 35.1781 60.0879 36.7233C60.0879 37.5075 59.8996 37.9918 59.8996 38.6299C59.8996 39.4755 60.488 40.0214 61.3508 40.0214C62.151 40.0214 62.802 39.3525 62.802 38.4146C62.802 36.0545 60.0565 33.9634 57.2718 33.9634C53.632 33.9634 49.8589 36.7464 49.8589 41.7665C49.8589 46.3331 53.13 49.2698 56.4952 49.2698C59.7349 49.2698 62.0176 47.0327 62.9746 43.7038L62.7001 43.6116C61.9941 45.8949 60.4566 47.3171 58.4798 47.3171Z" fill="black"/>
<path d="M43.3162 47.317C40.5393 47.317 38.6881 44.6801 38.6881 40.2673C38.6881 40.2058 38.688 40.0828 38.7194 39.6292H47.8267C47.8581 36.1466 45.1675 33.9709 41.716 33.9709C38.3507 33.9709 34.46 36.6617 34.46 41.751C34.46 46.4406 38.0683 49.2851 41.3787 49.2851C44.838 49.2851 47.0266 46.9864 47.9836 43.7191L47.709 43.6268C46.8383 46.3791 45.0184 47.317 43.3162 47.317ZM41.5905 34.2785C43.1044 34.2785 44.0928 35.6392 44.1242 39.2986H38.7194C38.8763 35.4547 40.1393 34.2785 41.5905 34.2785Z" fill="black"/>
<path d="M32.1145 46.894L27.8236 40.1749L29.1493 38.2068C30.2946 36.5155 32.2635 34.5166 33.9971 34.4859H34.0285V34.2168H33.346C32.7891 34.2168 31.5889 34.3091 30.9692 34.3091C30.075 34.3091 29.2748 34.2168 28.5296 34.2168H28.0668V34.4859H28.0982C29.4553 34.4859 29.8553 35.001 29.8553 35.8159C29.8553 36.3617 29.4239 37.1766 28.8356 38.0838L27.6275 39.8981L25.1252 35.9619C24.9997 35.7774 24.8506 35.4468 24.8506 35.2085C24.8506 34.6934 25.2193 34.4859 25.9959 34.4859V34.2168H24.9762C24.1133 34.2168 23.3681 34.3091 22.3561 34.3091C21.3442 34.3091 20.599 34.2168 19.6969 34.2168H18.6772V34.4859C19.6028 34.4859 20.2539 35.393 20.8657 36.3617L24.9997 42.8348L23.4544 45.0412C22.2777 46.7018 20.3323 48.7314 18.6066 48.7621H18.5752V49.0312H19.2576H21.6345H24.0741H24.5369V48.7621H24.5055C23.1484 48.7621 22.7797 48.2471 22.7797 47.4321C22.7797 46.8863 23.1484 46.0407 23.7681 45.1642L25.1879 43.1039L27.8707 47.2784C27.9962 47.4629 28.1453 47.7935 28.1453 48.0318C28.1453 48.5469 27.7452 48.7621 27 48.7621V49.0312H27.9884H30.6162H33.2754H34.2952V48.7621C33.4088 48.7698 32.7263 47.8627 32.1145 46.894Z" fill="black"/>
<path d="M13.0922 47.7398C12.1979 48.6162 11.4841 48.6777 10.2525 48.6777H6.20487V38.7835H9.07589C11.5155 38.7835 12.1352 40.7208 12.4411 43.1117H12.747V34.1862H12.4411C12.1352 36.5463 11.5155 38.4222 9.07589 38.4222H6.20487V28.797H10.0957C11.3272 28.797 12.041 28.8893 12.8725 29.6734C13.8296 30.5806 15.0062 32.2719 17.1006 35.0934L17.3517 34.9703L14.9434 27.467L14.6924 27.5285C14.7238 28.1359 14.2924 28.4357 13.3667 28.4357H7.62469C6.60493 28.4357 5.09098 28.4665 4.03984 28.4665C3.08283 28.4665 2.1572 28.4357 1.23157 28.4357H0V28.7355H0.125512C1.32569 28.7355 1.88265 29.4889 1.88265 30.9727V46.4944C1.88265 47.9781 1.32569 48.7315 0.125512 48.7315H0V49.0314H1.23157H4.03984H7.03636H13.5472C14.5042 49.0314 14.8729 49.3927 14.8415 49.9385L15.0925 50L17.9008 41.8894L17.6497 41.7664C15.6573 44.6262 14.1119 46.7711 13.0922 47.7398Z" fill="black"/>
<path d="M114.849 19.1504C112.378 19.1504 110.495 16.8517 110.495 12.0391C110.495 7.7724 112.103 6.1349 113.892 6.1349C115.406 6.1349 116.457 7.01131 116.457 8.55656C116.457 9.34071 116.269 9.82505 116.269 10.4631C116.269 11.3088 116.857 11.8546 117.72 11.8546C118.52 11.8546 119.171 11.1858 119.171 10.2479C119.171 7.88772 116.426 5.79663 113.641 5.79663C110.001 5.79663 106.228 8.57962 106.228 13.5998C106.228 18.1663 109.499 21.1031 112.864 21.1031C116.104 21.1031 118.395 18.8659 119.352 15.5371L119.077 15.4448C118.371 17.7281 116.826 19.1504 114.849 19.1504Z" fill="black"/>
<path d="M100.925 4.17448C102.102 4.17448 103.145 3.35957 103.145 2.0834C103.145 0.845659 102.094 0 100.925 0C99.717 0 98.7051 0.845659 98.7051 2.0834C98.7051 3.35189 99.7248 4.17448 100.925 4.17448Z" fill="black"/>
<path d="M103.027 18.4815V5.6582H102.815C102.258 6.44236 99.7561 6.89594 98.2422 6.89594H97.2852V7.16501H97.4107C98.7364 7.16501 99.0188 8.07218 99.0188 9.28685V18.4892C99.0188 19.6962 98.7442 20.611 97.4107 20.611H97.2852V20.8801H98.3049H101.019H103.733H104.753V20.611H104.627C103.302 20.6033 103.027 19.6962 103.027 18.4815Z" fill="black"/>
<path d="M94.4143 18.4815V8.13368C94.4143 6.52693 93.6455 5.80427 92.2806 5.80427C91.2295 5.80427 90.1156 6.1656 88.7899 6.64993L85.2992 7.91842V5.6582H85.0874C84.5304 6.44236 82.0281 6.89594 80.5141 6.89594H79.5571V7.16501H79.6826C81.0083 7.16501 81.2907 8.07218 81.2907 9.28685V18.4892C81.2907 19.6962 81.0162 20.611 79.6826 20.611H79.5571V20.8801H80.5769H83.291H86.0052H87.0249V20.611H86.8994C85.5737 20.611 85.2913 19.7038 85.2913 18.4892V8.26437L87.425 7.48022C88.0761 7.23421 88.8134 6.96513 89.339 6.96513C89.9901 6.96513 90.3901 7.32646 90.3901 8.23362V18.4892C90.3901 19.6962 90.1156 20.611 88.7821 20.611H88.6565V20.8801H89.6763H92.3904H95.1046H96.1243V20.611H95.9988C94.6888 20.6033 94.4143 19.6962 94.4143 18.4815Z" fill="black"/>
<path d="M77.3056 19.7883C76.7487 19.7883 76.4741 19.4578 76.4741 18.6428V9.5251C76.4741 6.89587 75.423 5.8042 72.0578 5.8042C68.9357 5.8042 64.2134 7.41095 64.2134 9.55585C64.2134 10.4015 64.8645 10.9473 65.6019 10.9473C66.4648 10.9473 66.8648 10.34 67.4845 9.07152C68.5984 7.16494 69.7045 6.16553 71.2184 6.16553C72.2068 6.16553 72.5441 6.61911 72.5441 7.8876V10.5783L68.5278 12.2158C65.9314 13.2768 63.8369 14.7297 63.8369 17.236C63.8369 19.6576 65.4136 21.1106 67.8846 21.1106C69.9241 21.1106 71.5557 20.2035 72.701 19.2656C73.0069 20.4187 73.9639 21.1106 75.3838 21.1106C77.2037 21.1106 78.4431 19.9036 78.8745 18.4814L78.6235 18.3891C78.3882 19.058 77.8626 19.7883 77.3056 19.7883ZM69.7123 20.3034C68.5043 20.3034 67.9238 19.2732 67.9238 16.6748C67.9238 14.0148 68.3552 12.5925 70.4262 11.7699L72.5598 10.9243V17.5204C72.5598 18.0355 72.5912 18.7043 72.6539 18.9734C71.6577 19.7268 70.6693 20.3034 69.7123 20.3034Z" fill="black"/>
<path d="M55.6087 5.80427C53.8516 5.80427 52.4631 6.64993 51.412 7.43409V5.6582H51.1924C50.6354 6.44236 48.1644 6.89594 46.6191 6.89594H45.6621V7.16501H45.819C47.1133 7.16501 47.4271 8.07218 47.4271 9.28685V25.3236C47.4271 26.5306 47.1212 27.4455 45.819 27.4455H45.6621V27.7145H46.7132H49.4274H52.2984H53.9065V27.4378H53.3495C52.0239 27.4378 51.4042 26.5306 51.4042 25.3159V19.4732C52.4239 20.2574 53.8437 21.103 55.6009 21.103C58.7464 21.103 61.5312 18.7736 61.5312 13.446C61.5312 8.1183 58.7543 5.80427 55.6087 5.80427ZM54.8635 20.6033C53.5692 20.6033 52.3298 19.8192 51.4042 19.0581V7.86461C52.3612 7.1112 53.5692 6.31935 54.8635 6.31935C56.2833 6.31935 57.1462 7.10351 57.1462 13.4613C57.1462 19.8192 56.2833 20.6033 54.8635 20.6033Z" fill="black"/>
<path d="M39.6452 11.4623L38.6882 11.101C36.3428 10.2246 35.2289 9.44043 35.2289 8.10275C35.2289 7.01108 36.0917 6.10392 37.6685 6.10392C39.0569 6.10392 41.3082 6.77276 43.285 10.8857L43.536 10.7935L42.1476 5.49658L41.9279 5.52733C41.9593 6.04242 41.622 6.28074 41.0964 6.28074C40.1394 6.28074 38.9314 5.79641 37.6685 5.79641C34.9543 5.79641 32.6638 7.34166 32.6638 10.0016C32.6638 12.1773 33.9267 13.8148 36.5546 14.7527L37.6685 15.1755C40.1394 16.1135 41.4337 16.9899 41.4337 18.4121C41.4337 19.6806 40.5081 20.803 38.5941 20.803C36.8056 20.803 34.4287 20.0189 32.2637 15.2678L32.0127 15.36L33.4325 21.2566L33.6522 21.2258C33.6208 20.7723 33.9267 20.4417 34.4209 20.4417C35.2838 20.4417 36.7664 21.1105 38.5862 21.1105C41.3318 21.1105 44.0537 19.3885 44.0537 16.298C44.0616 13.7917 42.5162 12.554 39.6452 11.4623Z" fill="black"/>
<path d="M26.5842 4.17448C27.7609 4.17448 28.8042 3.35957 28.8042 2.0834C28.8042 0.845659 27.7531 0 26.5842 0C25.3841 0 24.3643 0.845659 24.3643 2.0834C24.3565 3.35189 25.3762 4.17448 26.5842 4.17448Z" fill="black"/>
<path d="M28.6869 18.4815V5.6582H28.4672C27.9103 6.44236 25.4079 6.89594 23.9018 6.89594H22.9448V7.16501H23.0703C24.396 7.16501 24.6784 8.07218 24.6784 9.28685V18.4892C24.6784 19.6962 24.4039 20.611 23.0703 20.611H22.9448V20.8801H23.9646H26.6787H29.3929H30.4126V20.611H30.2871C28.9614 20.6033 28.6869 19.6962 28.6869 18.4815Z" fill="black"/>
<path d="M17.2575 0.361053C16.3005 0.361053 15.3749 0.268799 14.4492 0.268799H13.2412V0.568624H13.3354C14.512 0.568624 15.0925 1.32203 15.0925 2.80578V10.1861H6.20486V2.80578C6.20486 1.32203 6.76181 0.568624 7.96199 0.568624H8.05612V0.268799H6.82456C5.93031 0.268799 5.00468 0.361053 4.04767 0.361053C3.09066 0.361053 2.16503 0.268799 1.2394 0.268799H0V0.568624H0.125509C1.33354 0.568624 1.88264 1.32203 1.88264 2.80578V18.3275C1.88264 19.8112 1.32569 20.5646 0.125509 20.5646H0V20.8645H1.2394H4.04767H6.82456H8.05612V20.5646H7.96199C6.76181 20.5646 6.20486 19.8112 6.20486 18.3275V10.5551H15.0925V18.3275C15.0925 19.8112 14.5042 20.5646 13.3354 20.5646H13.2412V20.8645H14.4492H17.2575H20.0658H21.2973V20.5646H21.1797C19.9795 20.5646 19.4225 19.8112 19.4225 18.3275V2.81347C19.4225 1.32972 19.9795 0.576311 21.1797 0.576311H21.3052V0.268799H20.0736C19.1402 0.268799 18.2145 0.361053 17.2575 0.361053Z" fill="black"/>
</g>
<defs>
<clipPath id="clip0">
<rect width="129" height="50" fill="white"/>
</clipPath>
</defs>
</svg>
